M48
; DRILL file {KiCad 5.1.6} date Fri Sep  4 11:32:25 2020
; FORMAT={-:-/ absolute / inch / decimal}
; #@! TF.CreationDate,2020-09-04T11:32:25-04:00
; #@! TF.GenerationSoftware,Kicad,Pcbnew,5.1.6
; #@! TF.FileFunction,Plated,1,4,PTH
FMAT,2
INCH
T1C0.0157
T2C0.0400
%
G90
G05
T1
X4.05Y-3.375
X4.05Y-4.925
X4.1388Y-3.7612
X4.1388Y-4.5112
X4.2Y-3.35
X4.2Y-3.675
X4.2Y-3.9
X4.2Y-4.15
X4.2Y-4.375
X4.2Y-4.6
X4.2Y-4.825
X4.2Y-4.95
X4.35Y-3.75
X4.375Y-3.35
X4.375Y-4.95
X4.45Y-3.875
X4.5Y-3.8
X4.5Y-4.275
X4.525Y-4.025
X4.55Y-3.35
X4.55Y-4.5
X4.55Y-4.95
X4.5941Y-4.4809
X4.6Y-4.3
X4.65Y-3.95
X4.65Y-4.025
X4.7Y-4.325
X4.775Y-3.35
X4.775Y-4.325
X4.775Y-4.95
X4.85Y-4.425
X4.8567Y-4.6433
X4.8738Y-3.8988
X4.8738Y-4.0012
X4.875Y-3.95
X4.9939Y-4.6689
X5.0Y-4.35
X5.025Y-3.35
X5.025Y-4.95
X5.05Y-4.45
X5.075Y-4.2511
X5.2232Y-4.3482
X5.2244Y-4.3994
X5.25Y-3.35
X5.275Y-4.95
X5.363Y-4.912
X5.3866Y-4.5116
X5.5Y-3.35
X5.5Y-4.1
X5.5Y-4.95
X5.5124Y-4.4626
X5.6Y-3.875
X5.725Y-3.35
X5.725Y-4.95
X5.95Y-3.35
X5.975Y-4.95
X6.1Y-3.7
X6.2Y-4.95
X6.3Y-3.4
X6.3Y-3.45
X6.3Y-3.5
X6.3Y-3.55
X6.3Y-3.6
X6.3Y-3.65
X6.3Y-3.7
X6.3Y-3.75
X6.3Y-3.85
X6.3Y-3.975
X6.3Y-4.15
X6.3Y-4.375
X6.3Y-4.625
X6.3Y-4.85
X6.45Y-3.65
X6.55Y-4.475
X6.575Y-3.65
X6.5848Y-3.3848
X6.6Y-3.5
X6.725Y-3.625
X6.775Y-3.4
X6.825Y-3.275
X6.85Y-3.475
X6.875Y-3.3
X7.15Y-3.3
X7.15Y-3.775
X7.15Y-4.375
X7.15Y-4.825
T2
X4.69Y-3.2
X4.79Y-3.2
X4.89Y-3.2
X4.99Y-3.2
X5.05Y-5.1
X5.09Y-3.2
X5.15Y-5.1
X5.19Y-3.2
X5.25Y-5.1
X5.29Y-3.2
X5.35Y-5.1
X5.39Y-3.2
X5.45Y-5.1
X5.49Y-3.2
X5.55Y-5.1
X5.59Y-3.2
X5.65Y-5.1
X5.75Y-3.2
X5.75Y-5.1
X5.85Y-3.2
X5.95Y-3.2
X5.95Y-5.1
X6.05Y-3.2
X6.05Y-5.1
X6.15Y-3.2
X6.15Y-5.1
X6.25Y-3.2
X6.25Y-5.1
X6.35Y-3.2
X6.35Y-5.1
X6.45Y-3.2
X6.45Y-5.1
X6.455Y-4.0
X6.455Y-4.1
X6.455Y-4.2
X6.55Y-5.1
X6.555Y-4.0
X6.555Y-4.1
X6.555Y-4.2
X6.65Y-3.2
X6.65Y-5.1
X6.75Y-3.2
X6.85Y-3.2
X6.85Y-5.1
X6.95Y-3.2
X6.95Y-5.1
X7.05Y-3.2
X7.05Y-5.1
X7.15Y-3.2
X7.15Y-5.1
X7.25Y-3.2
X7.25Y-5.1
X7.35Y-3.2
X7.35Y-5.1
X7.45Y-5.1
X7.55Y-5.1
X7.65Y-3.2
X7.65Y-3.3
X7.65Y-3.4
X7.65Y-3.5
X7.65Y-3.6
X7.65Y-3.7
X7.65Y-3.8
X7.65Y-3.9
X7.65Y-4.0
X7.65Y-4.1
X7.65Y-4.2
X7.65Y-4.3
X7.65Y-4.4
X7.65Y-4.5
X7.65Y-4.6
X7.65Y-4.7
X7.65Y-4.8
X7.65Y-4.9
X7.75Y-3.2
X7.75Y-3.3
X7.75Y-3.4
X7.75Y-3.5
X7.75Y-3.6
X7.75Y-3.7
X7.75Y-3.8
X7.75Y-3.9
X7.75Y-4.0
X7.75Y-4.1
X7.75Y-4.2
X7.75Y-4.3
X7.75Y-4.4
X7.75Y-4.5
X7.75Y-4.6
X7.75Y-4.7
X7.75Y-4.8
X7.75Y-4.9
T0
M30
