%TF.GenerationSoftware,KiCad,Pcbnew,5.1.6*%
%TF.CreationDate,2020-09-04T11:32:19-04:00*%
%TF.ProjectId,rf-analyzer,72662d61-6e61-46c7-997a-65722e6b6963,rev?*%
%TF.SameCoordinates,Original*%
%TF.FileFunction,Legend,Bot*%
%TF.FilePolarity,Positive*%
%FSLAX46Y46*%
G04 Gerber Fmt 4.6, Leading zero omitted, Abs format (unit mm)*
G04 Created by KiCad (PCBNEW 5.1.6) date 2020-09-04 11:32:19*
%MOMM*%
%LPD*%
G01*
G04 APERTURE LIST*
%ADD10C,0.120000*%
%ADD11C,0.150000*%
G04 APERTURE END LIST*
D10*
%TO.C,C26*%
X165724721Y-89660000D02*
X166050279Y-89660000D01*
X165724721Y-90680000D02*
X166050279Y-90680000D01*
%TO.C,C31*%
D11*
X125987142Y-118737142D02*
X126034761Y-118689523D01*
X126082380Y-118546666D01*
X126082380Y-118451428D01*
X126034761Y-118308571D01*
X125939523Y-118213333D01*
X125844285Y-118165714D01*
X125653809Y-118118095D01*
X125510952Y-118118095D01*
X125320476Y-118165714D01*
X125225238Y-118213333D01*
X125130000Y-118308571D01*
X125082380Y-118451428D01*
X125082380Y-118546666D01*
X125130000Y-118689523D01*
X125177619Y-118737142D01*
X125082380Y-119070476D02*
X125082380Y-119689523D01*
X125463333Y-119356190D01*
X125463333Y-119499047D01*
X125510952Y-119594285D01*
X125558571Y-119641904D01*
X125653809Y-119689523D01*
X125891904Y-119689523D01*
X125987142Y-119641904D01*
X126034761Y-119594285D01*
X126082380Y-119499047D01*
X126082380Y-119213333D01*
X126034761Y-119118095D01*
X125987142Y-119070476D01*
X126082380Y-120641904D02*
X126082380Y-120070476D01*
X126082380Y-120356190D02*
X125082380Y-120356190D01*
X125225238Y-120260952D01*
X125320476Y-120165714D01*
X125368095Y-120070476D01*
%TO.C,C30*%
X123647142Y-116197142D02*
X123694761Y-116149523D01*
X123742380Y-116006666D01*
X123742380Y-115911428D01*
X123694761Y-115768571D01*
X123599523Y-115673333D01*
X123504285Y-115625714D01*
X123313809Y-115578095D01*
X123170952Y-115578095D01*
X122980476Y-115625714D01*
X122885238Y-115673333D01*
X122790000Y-115768571D01*
X122742380Y-115911428D01*
X122742380Y-116006666D01*
X122790000Y-116149523D01*
X122837619Y-116197142D01*
X122742380Y-116530476D02*
X122742380Y-117149523D01*
X123123333Y-116816190D01*
X123123333Y-116959047D01*
X123170952Y-117054285D01*
X123218571Y-117101904D01*
X123313809Y-117149523D01*
X123551904Y-117149523D01*
X123647142Y-117101904D01*
X123694761Y-117054285D01*
X123742380Y-116959047D01*
X123742380Y-116673333D01*
X123694761Y-116578095D01*
X123647142Y-116530476D01*
X122742380Y-117768571D02*
X122742380Y-117863809D01*
X122790000Y-117959047D01*
X122837619Y-118006666D01*
X122932857Y-118054285D01*
X123123333Y-118101904D01*
X123361428Y-118101904D01*
X123551904Y-118054285D01*
X123647142Y-118006666D01*
X123694761Y-117959047D01*
X123742380Y-117863809D01*
X123742380Y-117768571D01*
X123694761Y-117673333D01*
X123647142Y-117625714D01*
X123551904Y-117578095D01*
X123361428Y-117530476D01*
X123123333Y-117530476D01*
X122932857Y-117578095D01*
X122837619Y-117625714D01*
X122790000Y-117673333D01*
X122742380Y-117768571D01*
%TO.C,C27*%
X163017142Y-90312142D02*
X163064761Y-90264523D01*
X163112380Y-90121666D01*
X163112380Y-90026428D01*
X163064761Y-89883571D01*
X162969523Y-89788333D01*
X162874285Y-89740714D01*
X162683809Y-89693095D01*
X162540952Y-89693095D01*
X162350476Y-89740714D01*
X162255238Y-89788333D01*
X162160000Y-89883571D01*
X162112380Y-90026428D01*
X162112380Y-90121666D01*
X162160000Y-90264523D01*
X162207619Y-90312142D01*
X162207619Y-90693095D02*
X162160000Y-90740714D01*
X162112380Y-90835952D01*
X162112380Y-91074047D01*
X162160000Y-91169285D01*
X162207619Y-91216904D01*
X162302857Y-91264523D01*
X162398095Y-91264523D01*
X162540952Y-91216904D01*
X163112380Y-90645476D01*
X163112380Y-91264523D01*
X162112380Y-91597857D02*
X162112380Y-92264523D01*
X163112380Y-91835952D01*
%TO.C,C26*%
X169552857Y-90527142D02*
X169600476Y-90574761D01*
X169743333Y-90622380D01*
X169838571Y-90622380D01*
X169981428Y-90574761D01*
X170076666Y-90479523D01*
X170124285Y-90384285D01*
X170171904Y-90193809D01*
X170171904Y-90050952D01*
X170124285Y-89860476D01*
X170076666Y-89765238D01*
X169981428Y-89670000D01*
X169838571Y-89622380D01*
X169743333Y-89622380D01*
X169600476Y-89670000D01*
X169552857Y-89717619D01*
X169171904Y-89717619D02*
X169124285Y-89670000D01*
X169029047Y-89622380D01*
X168790952Y-89622380D01*
X168695714Y-89670000D01*
X168648095Y-89717619D01*
X168600476Y-89812857D01*
X168600476Y-89908095D01*
X168648095Y-90050952D01*
X169219523Y-90622380D01*
X168600476Y-90622380D01*
X167743333Y-89622380D02*
X167933809Y-89622380D01*
X168029047Y-89670000D01*
X168076666Y-89717619D01*
X168171904Y-89860476D01*
X168219523Y-90050952D01*
X168219523Y-90431904D01*
X168171904Y-90527142D01*
X168124285Y-90574761D01*
X168029047Y-90622380D01*
X167838571Y-90622380D01*
X167743333Y-90574761D01*
X167695714Y-90527142D01*
X167648095Y-90431904D01*
X167648095Y-90193809D01*
X167695714Y-90098571D01*
X167743333Y-90050952D01*
X167838571Y-90003333D01*
X168029047Y-90003333D01*
X168124285Y-90050952D01*
X168171904Y-90098571D01*
X168219523Y-90193809D01*
%TO.C,C22*%
X167012857Y-92967142D02*
X167060476Y-93014761D01*
X167203333Y-93062380D01*
X167298571Y-93062380D01*
X167441428Y-93014761D01*
X167536666Y-92919523D01*
X167584285Y-92824285D01*
X167631904Y-92633809D01*
X167631904Y-92490952D01*
X167584285Y-92300476D01*
X167536666Y-92205238D01*
X167441428Y-92110000D01*
X167298571Y-92062380D01*
X167203333Y-92062380D01*
X167060476Y-92110000D01*
X167012857Y-92157619D01*
X166631904Y-92157619D02*
X166584285Y-92110000D01*
X166489047Y-92062380D01*
X166250952Y-92062380D01*
X166155714Y-92110000D01*
X166108095Y-92157619D01*
X166060476Y-92252857D01*
X166060476Y-92348095D01*
X166108095Y-92490952D01*
X166679523Y-93062380D01*
X166060476Y-93062380D01*
X165679523Y-92157619D02*
X165631904Y-92110000D01*
X165536666Y-92062380D01*
X165298571Y-92062380D01*
X165203333Y-92110000D01*
X165155714Y-92157619D01*
X165108095Y-92252857D01*
X165108095Y-92348095D01*
X165155714Y-92490952D01*
X165727142Y-93062380D01*
X165108095Y-93062380D01*
%TO.C,C21*%
X170187857Y-85547142D02*
X170235476Y-85594761D01*
X170378333Y-85642380D01*
X170473571Y-85642380D01*
X170616428Y-85594761D01*
X170711666Y-85499523D01*
X170759285Y-85404285D01*
X170806904Y-85213809D01*
X170806904Y-85070952D01*
X170759285Y-84880476D01*
X170711666Y-84785238D01*
X170616428Y-84690000D01*
X170473571Y-84642380D01*
X170378333Y-84642380D01*
X170235476Y-84690000D01*
X170187857Y-84737619D01*
X169806904Y-84737619D02*
X169759285Y-84690000D01*
X169664047Y-84642380D01*
X169425952Y-84642380D01*
X169330714Y-84690000D01*
X169283095Y-84737619D01*
X169235476Y-84832857D01*
X169235476Y-84928095D01*
X169283095Y-85070952D01*
X169854523Y-85642380D01*
X169235476Y-85642380D01*
X168283095Y-85642380D02*
X168854523Y-85642380D01*
X168568809Y-85642380D02*
X168568809Y-84642380D01*
X168664047Y-84785238D01*
X168759285Y-84880476D01*
X168854523Y-84928095D01*
%TO.C,C20*%
X118567142Y-107457142D02*
X118614761Y-107409523D01*
X118662380Y-107266666D01*
X118662380Y-107171428D01*
X118614761Y-107028571D01*
X118519523Y-106933333D01*
X118424285Y-106885714D01*
X118233809Y-106838095D01*
X118090952Y-106838095D01*
X117900476Y-106885714D01*
X117805238Y-106933333D01*
X117710000Y-107028571D01*
X117662380Y-107171428D01*
X117662380Y-107266666D01*
X117710000Y-107409523D01*
X117757619Y-107457142D01*
X117757619Y-107838095D02*
X117710000Y-107885714D01*
X117662380Y-107980952D01*
X117662380Y-108219047D01*
X117710000Y-108314285D01*
X117757619Y-108361904D01*
X117852857Y-108409523D01*
X117948095Y-108409523D01*
X118090952Y-108361904D01*
X118662380Y-107790476D01*
X118662380Y-108409523D01*
X117662380Y-109028571D02*
X117662380Y-109123809D01*
X117710000Y-109219047D01*
X117757619Y-109266666D01*
X117852857Y-109314285D01*
X118043333Y-109361904D01*
X118281428Y-109361904D01*
X118471904Y-109314285D01*
X118567142Y-109266666D01*
X118614761Y-109219047D01*
X118662380Y-109123809D01*
X118662380Y-109028571D01*
X118614761Y-108933333D01*
X118567142Y-108885714D01*
X118471904Y-108838095D01*
X118281428Y-108790476D01*
X118043333Y-108790476D01*
X117852857Y-108838095D01*
X117757619Y-108885714D01*
X117710000Y-108933333D01*
X117662380Y-109028571D01*
%TO.C,C17*%
X141612857Y-103327142D02*
X141660476Y-103374761D01*
X141803333Y-103422380D01*
X141898571Y-103422380D01*
X142041428Y-103374761D01*
X142136666Y-103279523D01*
X142184285Y-103184285D01*
X142231904Y-102993809D01*
X142231904Y-102850952D01*
X142184285Y-102660476D01*
X142136666Y-102565238D01*
X142041428Y-102470000D01*
X141898571Y-102422380D01*
X141803333Y-102422380D01*
X141660476Y-102470000D01*
X141612857Y-102517619D01*
X140660476Y-103422380D02*
X141231904Y-103422380D01*
X140946190Y-103422380D02*
X140946190Y-102422380D01*
X141041428Y-102565238D01*
X141136666Y-102660476D01*
X141231904Y-102708095D01*
X140327142Y-102422380D02*
X139660476Y-102422380D01*
X140089047Y-103422380D01*
%TO.C,C14*%
X139072857Y-115192142D02*
X139120476Y-115239761D01*
X139263333Y-115287380D01*
X139358571Y-115287380D01*
X139501428Y-115239761D01*
X139596666Y-115144523D01*
X139644285Y-115049285D01*
X139691904Y-114858809D01*
X139691904Y-114715952D01*
X139644285Y-114525476D01*
X139596666Y-114430238D01*
X139501428Y-114335000D01*
X139358571Y-114287380D01*
X139263333Y-114287380D01*
X139120476Y-114335000D01*
X139072857Y-114382619D01*
X138120476Y-115287380D02*
X138691904Y-115287380D01*
X138406190Y-115287380D02*
X138406190Y-114287380D01*
X138501428Y-114430238D01*
X138596666Y-114525476D01*
X138691904Y-114573095D01*
X137263333Y-114620714D02*
X137263333Y-115287380D01*
X137501428Y-114239761D02*
X137739523Y-114954047D01*
X137120476Y-114954047D01*
%TO.C,C9*%
X125552142Y-109203333D02*
X125599761Y-109155714D01*
X125647380Y-109012857D01*
X125647380Y-108917619D01*
X125599761Y-108774761D01*
X125504523Y-108679523D01*
X125409285Y-108631904D01*
X125218809Y-108584285D01*
X125075952Y-108584285D01*
X124885476Y-108631904D01*
X124790238Y-108679523D01*
X124695000Y-108774761D01*
X124647380Y-108917619D01*
X124647380Y-109012857D01*
X124695000Y-109155714D01*
X124742619Y-109203333D01*
X125647380Y-109679523D02*
X125647380Y-109870000D01*
X125599761Y-109965238D01*
X125552142Y-110012857D01*
X125409285Y-110108095D01*
X125218809Y-110155714D01*
X124837857Y-110155714D01*
X124742619Y-110108095D01*
X124695000Y-110060476D01*
X124647380Y-109965238D01*
X124647380Y-109774761D01*
X124695000Y-109679523D01*
X124742619Y-109631904D01*
X124837857Y-109584285D01*
X125075952Y-109584285D01*
X125171190Y-109631904D01*
X125218809Y-109679523D01*
X125266428Y-109774761D01*
X125266428Y-109965238D01*
X125218809Y-110060476D01*
X125171190Y-110108095D01*
X125075952Y-110155714D01*
%TO.C,C8*%
X127892142Y-112078333D02*
X127939761Y-112030714D01*
X127987380Y-111887857D01*
X127987380Y-111792619D01*
X127939761Y-111649761D01*
X127844523Y-111554523D01*
X127749285Y-111506904D01*
X127558809Y-111459285D01*
X127415952Y-111459285D01*
X127225476Y-111506904D01*
X127130238Y-111554523D01*
X127035000Y-111649761D01*
X126987380Y-111792619D01*
X126987380Y-111887857D01*
X127035000Y-112030714D01*
X127082619Y-112078333D01*
X127415952Y-112649761D02*
X127368333Y-112554523D01*
X127320714Y-112506904D01*
X127225476Y-112459285D01*
X127177857Y-112459285D01*
X127082619Y-112506904D01*
X127035000Y-112554523D01*
X126987380Y-112649761D01*
X126987380Y-112840238D01*
X127035000Y-112935476D01*
X127082619Y-112983095D01*
X127177857Y-113030714D01*
X127225476Y-113030714D01*
X127320714Y-112983095D01*
X127368333Y-112935476D01*
X127415952Y-112840238D01*
X127415952Y-112649761D01*
X127463571Y-112554523D01*
X127511190Y-112506904D01*
X127606428Y-112459285D01*
X127796904Y-112459285D01*
X127892142Y-112506904D01*
X127939761Y-112554523D01*
X127987380Y-112649761D01*
X127987380Y-112840238D01*
X127939761Y-112935476D01*
X127892142Y-112983095D01*
X127796904Y-113030714D01*
X127606428Y-113030714D01*
X127511190Y-112983095D01*
X127463571Y-112935476D01*
X127415952Y-112840238D01*
%TO.C,C5*%
X118367142Y-101433333D02*
X118414761Y-101385714D01*
X118462380Y-101242857D01*
X118462380Y-101147619D01*
X118414761Y-101004761D01*
X118319523Y-100909523D01*
X118224285Y-100861904D01*
X118033809Y-100814285D01*
X117890952Y-100814285D01*
X117700476Y-100861904D01*
X117605238Y-100909523D01*
X117510000Y-101004761D01*
X117462380Y-101147619D01*
X117462380Y-101242857D01*
X117510000Y-101385714D01*
X117557619Y-101433333D01*
X117462380Y-102338095D02*
X117462380Y-101861904D01*
X117938571Y-101814285D01*
X117890952Y-101861904D01*
X117843333Y-101957142D01*
X117843333Y-102195238D01*
X117890952Y-102290476D01*
X117938571Y-102338095D01*
X118033809Y-102385714D01*
X118271904Y-102385714D01*
X118367142Y-102338095D01*
X118414761Y-102290476D01*
X118462380Y-102195238D01*
X118462380Y-101957142D01*
X118414761Y-101861904D01*
X118367142Y-101814285D01*
%TO.C,C4*%
X116027142Y-98893333D02*
X116074761Y-98845714D01*
X116122380Y-98702857D01*
X116122380Y-98607619D01*
X116074761Y-98464761D01*
X115979523Y-98369523D01*
X115884285Y-98321904D01*
X115693809Y-98274285D01*
X115550952Y-98274285D01*
X115360476Y-98321904D01*
X115265238Y-98369523D01*
X115170000Y-98464761D01*
X115122380Y-98607619D01*
X115122380Y-98702857D01*
X115170000Y-98845714D01*
X115217619Y-98893333D01*
X115455714Y-99750476D02*
X116122380Y-99750476D01*
X115074761Y-99512380D02*
X115789047Y-99274285D01*
X115789047Y-99893333D01*
%TD*%
M02*
