M48
;DRILL file {KiCad 4.0.6} date Friday, July 21, 2017 'PMt' 04:30:04 PM
;FORMAT={-:-/ absolute / metric / decimal}
FMAT,2
METRIC,TZ
T1C0.400
T2C0.500
T3C0.800
T4C1.500
T5C1.700
T6C1.800
T7C3.700
%
G90
G05
M71
T1
X124.46Y-121.92
X135.89Y-66.04
X135.89Y-93.345
X154.94Y-88.9
X154.94Y-95.25
X160.02Y-118.11
X160.02Y-129.37
X161.29Y-55.245
X161.29Y-66.675
X164.805Y-95.25
X170.18Y-78.105
X170.18Y-88.265
X175.26Y-66.675
X175.26Y-92.71
X177.165Y-89.535
X177.165Y-114.3
X177.8Y-81.28
X184.15Y-71.755
X189.865Y-64.135
X194.31Y-81.28
T2
X103.905Y-46.355
X104.718Y-44.393
X104.718Y-48.317
X106.68Y-43.58
X106.68Y-49.13
X108.642Y-44.393
X108.642Y-48.317
X109.455Y-46.355
X124.86Y-129.54
X125.673Y-127.578
X125.673Y-131.502
X127.635Y-126.765
X127.635Y-132.315
X129.597Y-127.578
X129.597Y-131.502
X130.41Y-129.54
X132.48Y-46.355
X133.293Y-44.393
X133.293Y-48.317
X135.255Y-43.58
X135.255Y-49.13
X137.217Y-44.393
X137.217Y-48.317
X138.03Y-46.355
X146.45Y-46.355
X146.45Y-129.54
X147.263Y-44.393
X147.263Y-48.317
X147.263Y-127.578
X147.263Y-131.502
X149.225Y-43.58
X149.225Y-49.13
X149.225Y-126.765
X149.225Y-132.315
X151.187Y-44.393
X151.187Y-48.317
X151.187Y-127.578
X151.187Y-131.502
X152.Y-46.355
X152.Y-129.54
X191.535Y-46.355
X191.935Y-129.54
X192.348Y-44.393
X192.348Y-48.317
X192.748Y-127.578
X192.748Y-131.502
X194.31Y-43.58
X194.31Y-49.13
X194.71Y-126.765
X194.71Y-132.315
X196.272Y-44.393
X196.272Y-48.317
X196.672Y-127.578
X196.672Y-131.502
X197.085Y-46.355
X197.485Y-129.54
T3
X156.845Y-123.19
X161.29Y-46.99
X169.545Y-123.19
X173.99Y-46.99
X189.865Y-90.17
X189.865Y-92.17
X189.865Y-94.17
X189.865Y-96.17
X189.865Y-98.17
X189.865Y-100.17
X189.865Y-102.17
X189.865Y-104.17
X189.865Y-106.17
X189.865Y-108.17
T4
X106.68Y-102.235
X106.68Y-128.905
T5
X104.14Y-99.695
X104.14Y-104.775
X104.14Y-126.365
X104.14Y-131.445
X109.22Y-99.695
X109.22Y-104.775
X109.22Y-126.365
X109.22Y-131.445
T6
X106.68Y-66.04
X113.03Y-66.04
X120.65Y-102.87
X120.65Y-109.22
X120.65Y-121.92
X120.65Y-128.27
X125.73Y-66.04
X132.08Y-66.04
T7
X106.68Y-46.355
X127.635Y-129.54
X135.255Y-46.355
X149.225Y-46.355
X149.225Y-129.54
X194.31Y-46.355
X194.71Y-129.54
T0
M30
