G04 #@! TF.FileFunction,Copper,L2,Bot,Signal*
%FSLAX46Y46*%
G04 Gerber Fmt 4.6, Leading zero omitted, Abs format (unit mm)*
G04 Created by KiCad (PCBNEW 4.0.6) date Friday, July 21, 2017 'PMt' 04:29:49 PM*
%MOMM*%
%LPD*%
G01*
G04 APERTURE LIST*
%ADD10C,0.100000*%
%ADD11R,1.600000X1.600000*%
%ADD12O,1.600000X1.600000*%
%ADD13C,2.200000*%
%ADD14C,2.000000*%
%ADD15R,1.350000X1.350000*%
%ADD16O,1.350000X1.350000*%
%ADD17C,3.600000*%
%ADD18C,7.400000*%
%ADD19C,0.600000*%
%ADD20C,1.000000*%
%ADD21C,0.250000*%
%ADD22C,0.500000*%
%ADD23C,0.254000*%
G04 APERTURE END LIST*
D10*
D11*
X173990000Y-46990000D03*
D12*
X161290000Y-46990000D03*
D11*
X169545000Y-123190000D03*
D12*
X156845000Y-123190000D03*
D13*
X104140000Y-104775000D03*
X104140000Y-99695000D03*
X109220000Y-99695000D03*
X109220000Y-104775000D03*
D14*
X106680000Y-102235000D03*
D13*
X104140000Y-131445000D03*
X104140000Y-126365000D03*
X109220000Y-126365000D03*
X109220000Y-131445000D03*
D14*
X106680000Y-128905000D03*
D15*
X189865000Y-108170000D03*
D16*
X189865000Y-106170000D03*
X189865000Y-104170000D03*
X189865000Y-102170000D03*
X189865000Y-100170000D03*
X189865000Y-98170000D03*
X189865000Y-96170000D03*
X189865000Y-94170000D03*
X189865000Y-92170000D03*
X189865000Y-90170000D03*
D17*
X120650000Y-121920000D03*
X120650000Y-109220000D03*
X120650000Y-102870000D03*
X120650000Y-128270000D03*
X125730000Y-66040000D03*
X113030000Y-66040000D03*
X106680000Y-66040000D03*
X132080000Y-66040000D03*
D18*
X194310000Y-46355000D03*
D19*
X197085000Y-46355000D03*
X196272221Y-48317221D03*
X194310000Y-49130000D03*
X192347779Y-48317221D03*
X191535000Y-46355000D03*
X192347779Y-44392779D03*
X194310000Y-43580000D03*
X196272221Y-44392779D03*
D18*
X149225000Y-46355000D03*
D19*
X152000000Y-46355000D03*
X151187221Y-48317221D03*
X149225000Y-49130000D03*
X147262779Y-48317221D03*
X146450000Y-46355000D03*
X147262779Y-44392779D03*
X149225000Y-43580000D03*
X151187221Y-44392779D03*
D18*
X149225000Y-129540000D03*
D19*
X152000000Y-129540000D03*
X151187221Y-131502221D03*
X149225000Y-132315000D03*
X147262779Y-131502221D03*
X146450000Y-129540000D03*
X147262779Y-127577779D03*
X149225000Y-126765000D03*
X151187221Y-127577779D03*
D18*
X194710000Y-129540000D03*
D19*
X197485000Y-129540000D03*
X196672221Y-131502221D03*
X194710000Y-132315000D03*
X192747779Y-131502221D03*
X191935000Y-129540000D03*
X192747779Y-127577779D03*
X194710000Y-126765000D03*
X196672221Y-127577779D03*
D18*
X127635000Y-129540000D03*
D19*
X130410000Y-129540000D03*
X129597221Y-131502221D03*
X127635000Y-132315000D03*
X125672779Y-131502221D03*
X124860000Y-129540000D03*
X125672779Y-127577779D03*
X127635000Y-126765000D03*
X129597221Y-127577779D03*
D18*
X106680000Y-46355000D03*
D19*
X109455000Y-46355000D03*
X108642221Y-48317221D03*
X106680000Y-49130000D03*
X104717779Y-48317221D03*
X103905000Y-46355000D03*
X104717779Y-44392779D03*
X106680000Y-43580000D03*
X108642221Y-44392779D03*
D18*
X135255000Y-46355000D03*
D19*
X138030000Y-46355000D03*
X137217221Y-48317221D03*
X135255000Y-49130000D03*
X133292779Y-48317221D03*
X132480000Y-46355000D03*
X133292779Y-44392779D03*
X135255000Y-43580000D03*
X137217221Y-44392779D03*
X164805000Y-95250000D03*
X170180000Y-78105000D03*
X170180000Y-88265000D03*
X154940000Y-88900000D03*
X154940000Y-95250000D03*
X161290000Y-66675000D03*
X161290000Y-55245000D03*
X160020000Y-129370000D03*
X160020000Y-118110000D03*
X124460000Y-121920000D03*
X135890000Y-93345000D03*
X135890000Y-66040000D03*
X189865000Y-64135000D03*
X184150000Y-71755000D03*
X175260000Y-66675000D03*
X175260000Y-92710000D03*
X177800000Y-81280000D03*
X194310000Y-81280000D03*
X177165000Y-89535000D03*
X177165000Y-114300000D03*
D20*
X160020000Y-118110000D02*
X160020000Y-95250000D01*
X160020000Y-95250000D02*
X160020000Y-93345000D01*
D21*
X164805000Y-95250000D02*
X160020000Y-95250000D01*
D20*
X170180000Y-78105000D02*
X170180000Y-88265000D01*
X170180000Y-88265000D02*
X155575000Y-88265000D01*
X155575000Y-88265000D02*
X154940000Y-88900000D01*
X154940000Y-93345000D02*
X154940000Y-88900000D01*
X154940000Y-95250000D02*
X154940000Y-93345000D01*
X160020000Y-93345000D02*
X154940000Y-93345000D01*
X154940000Y-93345000D02*
X135890000Y-93345000D01*
X161290000Y-55245000D02*
X161290000Y-66675000D01*
X160020000Y-118110000D02*
X160020000Y-129370000D01*
X135890000Y-121920000D02*
X135890000Y-114300000D01*
X135890000Y-114300000D02*
X135890000Y-93345000D01*
X124460000Y-121920000D02*
X135890000Y-121920000D01*
X135890000Y-66040000D02*
X135890000Y-93345000D01*
D22*
X184150000Y-71755000D02*
X189865000Y-66040000D01*
X189865000Y-66040000D02*
X189865000Y-64135000D01*
X175260000Y-92710000D02*
X175260000Y-66675000D01*
X194310000Y-81280000D02*
X177800000Y-81280000D01*
X177165000Y-89535000D02*
X177165000Y-90170000D01*
X177165000Y-90170000D02*
X177165000Y-114300000D01*
D23*
G36*
X140208000Y-92710000D02*
X140218006Y-92759410D01*
X140246447Y-92801035D01*
X140288841Y-92828315D01*
X140335000Y-92837000D01*
X144145000Y-92837000D01*
X144194410Y-92826994D01*
X144236035Y-92798553D01*
X144263315Y-92756159D01*
X144272000Y-92710000D01*
X144272000Y-66860167D01*
X174324838Y-66860167D01*
X174375000Y-66981569D01*
X174375000Y-92403178D01*
X174325162Y-92523201D01*
X174324838Y-92895167D01*
X174466883Y-93238943D01*
X174729673Y-93502192D01*
X175073201Y-93644838D01*
X175445167Y-93645162D01*
X175788943Y-93503117D01*
X176052192Y-93240327D01*
X176194838Y-92896799D01*
X176195162Y-92524833D01*
X176145000Y-92403431D01*
X176145000Y-89720167D01*
X176229838Y-89720167D01*
X176280000Y-89841569D01*
X176280000Y-113993178D01*
X176230162Y-114113201D01*
X176229838Y-114485167D01*
X176371883Y-114828943D01*
X176634673Y-115092192D01*
X176978201Y-115234838D01*
X177350167Y-115235162D01*
X177693943Y-115093117D01*
X177957192Y-114830327D01*
X178099838Y-114486799D01*
X178100162Y-114114833D01*
X178050000Y-113993431D01*
X178050000Y-98170000D01*
X188529336Y-98170000D01*
X188629054Y-98671315D01*
X188913026Y-99096310D01*
X189023311Y-99170000D01*
X188913026Y-99243690D01*
X188629054Y-99668685D01*
X188529336Y-100170000D01*
X188629054Y-100671315D01*
X188913026Y-101096310D01*
X189023311Y-101170000D01*
X188913026Y-101243690D01*
X188629054Y-101668685D01*
X188529336Y-102170000D01*
X188629054Y-102671315D01*
X188913026Y-103096310D01*
X189023311Y-103170000D01*
X188913026Y-103243690D01*
X188629054Y-103668685D01*
X188529336Y-104170000D01*
X188629054Y-104671315D01*
X188913026Y-105096310D01*
X189023311Y-105170000D01*
X188913026Y-105243690D01*
X188629054Y-105668685D01*
X188529336Y-106170000D01*
X188629054Y-106671315D01*
X188830008Y-106972064D01*
X188738559Y-107030910D01*
X188593569Y-107243110D01*
X188542560Y-107495000D01*
X188542560Y-108845000D01*
X188586838Y-109080317D01*
X188725910Y-109296441D01*
X188938110Y-109441431D01*
X189190000Y-109492440D01*
X190540000Y-109492440D01*
X190775317Y-109448162D01*
X190991441Y-109309090D01*
X191136431Y-109096890D01*
X191187440Y-108845000D01*
X191187440Y-107495000D01*
X191143162Y-107259683D01*
X191004090Y-107043559D01*
X190899823Y-106972317D01*
X191100946Y-106671315D01*
X191200664Y-106170000D01*
X191100946Y-105668685D01*
X190816974Y-105243690D01*
X190706689Y-105170000D01*
X190816974Y-105096310D01*
X191100946Y-104671315D01*
X191200664Y-104170000D01*
X191100946Y-103668685D01*
X190816974Y-103243690D01*
X190706689Y-103170000D01*
X190816974Y-103096310D01*
X191100946Y-102671315D01*
X191200664Y-102170000D01*
X191100946Y-101668685D01*
X190816974Y-101243690D01*
X190706689Y-101170000D01*
X190816974Y-101096310D01*
X191100946Y-100671315D01*
X191200664Y-100170000D01*
X191100946Y-99668685D01*
X190816974Y-99243690D01*
X190706689Y-99170000D01*
X190816974Y-99096310D01*
X191100946Y-98671315D01*
X191200664Y-98170000D01*
X191100946Y-97668685D01*
X190816974Y-97243690D01*
X190699314Y-97165072D01*
X190994478Y-96833633D01*
X191132910Y-96499400D01*
X191009224Y-96297000D01*
X189992000Y-96297000D01*
X189992000Y-96317000D01*
X189738000Y-96317000D01*
X189738000Y-96297000D01*
X188720776Y-96297000D01*
X188597090Y-96499400D01*
X188735522Y-96833633D01*
X189030686Y-97165072D01*
X188913026Y-97243690D01*
X188629054Y-97668685D01*
X188529336Y-98170000D01*
X178050000Y-98170000D01*
X178050000Y-90170000D01*
X188529336Y-90170000D01*
X188629054Y-90671315D01*
X188913026Y-91096310D01*
X189023311Y-91170000D01*
X188913026Y-91243690D01*
X188629054Y-91668685D01*
X188529336Y-92170000D01*
X188629054Y-92671315D01*
X188913026Y-93096310D01*
X189023311Y-93170000D01*
X188913026Y-93243690D01*
X188629054Y-93668685D01*
X188529336Y-94170000D01*
X188629054Y-94671315D01*
X188913026Y-95096310D01*
X189030686Y-95174928D01*
X188735522Y-95506367D01*
X188597090Y-95840600D01*
X188720776Y-96043000D01*
X189738000Y-96043000D01*
X189738000Y-96023000D01*
X189992000Y-96023000D01*
X189992000Y-96043000D01*
X191009224Y-96043000D01*
X191132910Y-95840600D01*
X190994478Y-95506367D01*
X190699314Y-95174928D01*
X190816974Y-95096310D01*
X191100946Y-94671315D01*
X191200664Y-94170000D01*
X191100946Y-93668685D01*
X190816974Y-93243690D01*
X190706689Y-93170000D01*
X190816974Y-93096310D01*
X191100946Y-92671315D01*
X191200664Y-92170000D01*
X191100946Y-91668685D01*
X190816974Y-91243690D01*
X190706689Y-91170000D01*
X190816974Y-91096310D01*
X191100946Y-90671315D01*
X191200664Y-90170000D01*
X191100946Y-89668685D01*
X190816974Y-89243690D01*
X190391979Y-88959718D01*
X189890664Y-88860000D01*
X189839336Y-88860000D01*
X189338021Y-88959718D01*
X188913026Y-89243690D01*
X188629054Y-89668685D01*
X188529336Y-90170000D01*
X178050000Y-90170000D01*
X178050000Y-89841822D01*
X178099838Y-89721799D01*
X178100162Y-89349833D01*
X177958117Y-89006057D01*
X177695327Y-88742808D01*
X177351799Y-88600162D01*
X176979833Y-88599838D01*
X176636057Y-88741883D01*
X176372808Y-89004673D01*
X176230162Y-89348201D01*
X176229838Y-89720167D01*
X176145000Y-89720167D01*
X176145000Y-81465167D01*
X176864838Y-81465167D01*
X177006883Y-81808943D01*
X177269673Y-82072192D01*
X177613201Y-82214838D01*
X177985167Y-82215162D01*
X178106569Y-82165000D01*
X194003178Y-82165000D01*
X194123201Y-82214838D01*
X194495167Y-82215162D01*
X194838943Y-82073117D01*
X195102192Y-81810327D01*
X195244838Y-81466799D01*
X195245162Y-81094833D01*
X195103117Y-80751057D01*
X194840327Y-80487808D01*
X194496799Y-80345162D01*
X194124833Y-80344838D01*
X194003431Y-80395000D01*
X178106822Y-80395000D01*
X177986799Y-80345162D01*
X177614833Y-80344838D01*
X177271057Y-80486883D01*
X177007808Y-80749673D01*
X176865162Y-81093201D01*
X176864838Y-81465167D01*
X176145000Y-81465167D01*
X176145000Y-71940167D01*
X183214838Y-71940167D01*
X183356883Y-72283943D01*
X183619673Y-72547192D01*
X183963201Y-72689838D01*
X184335167Y-72690162D01*
X184678943Y-72548117D01*
X184942192Y-72285327D01*
X184992566Y-72164014D01*
X190490787Y-66665792D01*
X190490790Y-66665790D01*
X190682633Y-66378675D01*
X190682634Y-66378674D01*
X190750001Y-66040000D01*
X190750000Y-66039995D01*
X190750000Y-64441822D01*
X190799838Y-64321799D01*
X190800162Y-63949833D01*
X190658117Y-63606057D01*
X190395327Y-63342808D01*
X190051799Y-63200162D01*
X189679833Y-63199838D01*
X189336057Y-63341883D01*
X189072808Y-63604673D01*
X188930162Y-63948201D01*
X188929838Y-64320167D01*
X188980000Y-64441569D01*
X188980000Y-65673421D01*
X183741164Y-70912256D01*
X183621057Y-70961883D01*
X183357808Y-71224673D01*
X183215162Y-71568201D01*
X183214838Y-71940167D01*
X176145000Y-71940167D01*
X176145000Y-66981822D01*
X176194838Y-66861799D01*
X176195162Y-66489833D01*
X176053117Y-66146057D01*
X175790327Y-65882808D01*
X175446799Y-65740162D01*
X175074833Y-65739838D01*
X174731057Y-65881883D01*
X174467808Y-66144673D01*
X174325162Y-66488201D01*
X174324838Y-66860167D01*
X144272000Y-66860167D01*
X144272000Y-47213502D01*
X144889249Y-47213502D01*
X145547823Y-48807372D01*
X146766213Y-50027892D01*
X148358932Y-50689246D01*
X150083502Y-50690751D01*
X151677372Y-50032177D01*
X152897892Y-48813787D01*
X153559246Y-47221068D01*
X153559447Y-46990000D01*
X159826887Y-46990000D01*
X159936120Y-47539151D01*
X160247189Y-48004698D01*
X160712736Y-48315767D01*
X161261887Y-48425000D01*
X161318113Y-48425000D01*
X161867264Y-48315767D01*
X162332811Y-48004698D01*
X162643880Y-47539151D01*
X162753113Y-46990000D01*
X162643880Y-46440849D01*
X162476268Y-46190000D01*
X172542560Y-46190000D01*
X172542560Y-47790000D01*
X172586838Y-48025317D01*
X172725910Y-48241441D01*
X172938110Y-48386431D01*
X173190000Y-48437440D01*
X174790000Y-48437440D01*
X175025317Y-48393162D01*
X175241441Y-48254090D01*
X175386431Y-48041890D01*
X175437440Y-47790000D01*
X175437440Y-47213502D01*
X189974249Y-47213502D01*
X190632823Y-48807372D01*
X191851213Y-50027892D01*
X193443932Y-50689246D01*
X195168502Y-50690751D01*
X196762372Y-50032177D01*
X197982892Y-48813787D01*
X198644246Y-47221068D01*
X198645751Y-45496498D01*
X197987177Y-43902628D01*
X196768787Y-42682108D01*
X195176068Y-42020754D01*
X193451498Y-42019249D01*
X191857628Y-42677823D01*
X190637108Y-43896213D01*
X189975754Y-45488932D01*
X189974249Y-47213502D01*
X175437440Y-47213502D01*
X175437440Y-46190000D01*
X175393162Y-45954683D01*
X175254090Y-45738559D01*
X175041890Y-45593569D01*
X174790000Y-45542560D01*
X173190000Y-45542560D01*
X172954683Y-45586838D01*
X172738559Y-45725910D01*
X172593569Y-45938110D01*
X172542560Y-46190000D01*
X162476268Y-46190000D01*
X162332811Y-45975302D01*
X161867264Y-45664233D01*
X161318113Y-45555000D01*
X161261887Y-45555000D01*
X160712736Y-45664233D01*
X160247189Y-45975302D01*
X159936120Y-46440849D01*
X159826887Y-46990000D01*
X153559447Y-46990000D01*
X153560751Y-45496498D01*
X152902177Y-43902628D01*
X151683787Y-42682108D01*
X150091068Y-42020754D01*
X148366498Y-42019249D01*
X146772628Y-42677823D01*
X145552108Y-43896213D01*
X144890754Y-45488932D01*
X144889249Y-47213502D01*
X144272000Y-47213502D01*
X144272000Y-41325000D01*
X199340000Y-41325000D01*
X199340000Y-133935000D01*
X144272000Y-133935000D01*
X144272000Y-130398502D01*
X144889249Y-130398502D01*
X145547823Y-131992372D01*
X146766213Y-133212892D01*
X148358932Y-133874246D01*
X150083502Y-133875751D01*
X151677372Y-133217177D01*
X152897892Y-131998787D01*
X153559246Y-130406068D01*
X153559252Y-130398502D01*
X190374249Y-130398502D01*
X191032823Y-131992372D01*
X192251213Y-133212892D01*
X193843932Y-133874246D01*
X195568502Y-133875751D01*
X197162372Y-133217177D01*
X198382892Y-131998787D01*
X199044246Y-130406068D01*
X199045751Y-128681498D01*
X198387177Y-127087628D01*
X197168787Y-125867108D01*
X195576068Y-125205754D01*
X193851498Y-125204249D01*
X192257628Y-125862823D01*
X191037108Y-127081213D01*
X190375754Y-128673932D01*
X190374249Y-130398502D01*
X153559252Y-130398502D01*
X153560751Y-128681498D01*
X152902177Y-127087628D01*
X151683787Y-125867108D01*
X150091068Y-125205754D01*
X148366498Y-125204249D01*
X146772628Y-125862823D01*
X145552108Y-127081213D01*
X144890754Y-128673932D01*
X144889249Y-130398502D01*
X144272000Y-130398502D01*
X144272000Y-123190000D01*
X155381887Y-123190000D01*
X155491120Y-123739151D01*
X155802189Y-124204698D01*
X156267736Y-124515767D01*
X156816887Y-124625000D01*
X156873113Y-124625000D01*
X157422264Y-124515767D01*
X157887811Y-124204698D01*
X158198880Y-123739151D01*
X158308113Y-123190000D01*
X158198880Y-122640849D01*
X158031268Y-122390000D01*
X168097560Y-122390000D01*
X168097560Y-123990000D01*
X168141838Y-124225317D01*
X168280910Y-124441441D01*
X168493110Y-124586431D01*
X168745000Y-124637440D01*
X170345000Y-124637440D01*
X170580317Y-124593162D01*
X170796441Y-124454090D01*
X170941431Y-124241890D01*
X170992440Y-123990000D01*
X170992440Y-122390000D01*
X170948162Y-122154683D01*
X170809090Y-121938559D01*
X170596890Y-121793569D01*
X170345000Y-121742560D01*
X168745000Y-121742560D01*
X168509683Y-121786838D01*
X168293559Y-121925910D01*
X168148569Y-122138110D01*
X168097560Y-122390000D01*
X158031268Y-122390000D01*
X157887811Y-122175302D01*
X157422264Y-121864233D01*
X156873113Y-121755000D01*
X156816887Y-121755000D01*
X156267736Y-121864233D01*
X155802189Y-122175302D01*
X155491120Y-122640849D01*
X155381887Y-123190000D01*
X144272000Y-123190000D01*
X144272000Y-93980000D01*
X144261994Y-93930590D01*
X144233553Y-93888965D01*
X144191159Y-93861685D01*
X144145000Y-93853000D01*
X140335000Y-93853000D01*
X140285590Y-93863006D01*
X140243965Y-93891447D01*
X140216685Y-93933841D01*
X140208000Y-93980000D01*
X140208000Y-133935000D01*
X101650000Y-133935000D01*
X101650000Y-132669868D01*
X103094737Y-132669868D01*
X103205641Y-132947099D01*
X103851593Y-133190323D01*
X104541453Y-133167836D01*
X105074359Y-132947099D01*
X105185263Y-132669868D01*
X108174737Y-132669868D01*
X108285641Y-132947099D01*
X108931593Y-133190323D01*
X109621453Y-133167836D01*
X110154359Y-132947099D01*
X110265263Y-132669868D01*
X109220000Y-131624605D01*
X108174737Y-132669868D01*
X105185263Y-132669868D01*
X104140000Y-131624605D01*
X103094737Y-132669868D01*
X101650000Y-132669868D01*
X101650000Y-131156593D01*
X102394677Y-131156593D01*
X102417164Y-131846453D01*
X102637901Y-132379359D01*
X102915132Y-132490263D01*
X103960395Y-131445000D01*
X104319605Y-131445000D01*
X105364868Y-132490263D01*
X105642099Y-132379359D01*
X105885323Y-131733407D01*
X105866521Y-131156593D01*
X107474677Y-131156593D01*
X107497164Y-131846453D01*
X107717901Y-132379359D01*
X107995132Y-132490263D01*
X109040395Y-131445000D01*
X109399605Y-131445000D01*
X110444868Y-132490263D01*
X110722099Y-132379359D01*
X110965323Y-131733407D01*
X110942836Y-131043547D01*
X110722099Y-130510641D01*
X110444868Y-130399737D01*
X109399605Y-131445000D01*
X109040395Y-131445000D01*
X107995132Y-130399737D01*
X107717901Y-130510641D01*
X107474677Y-131156593D01*
X105866521Y-131156593D01*
X105862836Y-131043547D01*
X105642099Y-130510641D01*
X105364868Y-130399737D01*
X104319605Y-131445000D01*
X103960395Y-131445000D01*
X102915132Y-130399737D01*
X102637901Y-130510641D01*
X102394677Y-131156593D01*
X101650000Y-131156593D01*
X101650000Y-130220132D01*
X103094737Y-130220132D01*
X104140000Y-131265395D01*
X105185263Y-130220132D01*
X105074359Y-129942901D01*
X104428407Y-129699677D01*
X103738547Y-129722164D01*
X103205641Y-129942901D01*
X103094737Y-130220132D01*
X101650000Y-130220132D01*
X101650000Y-129228795D01*
X105044716Y-129228795D01*
X105293106Y-129829943D01*
X105752637Y-130290278D01*
X106353352Y-130539716D01*
X107003795Y-130540284D01*
X107604943Y-130291894D01*
X107676830Y-130220132D01*
X108174737Y-130220132D01*
X109220000Y-131265395D01*
X110265263Y-130220132D01*
X110154359Y-129942901D01*
X109508407Y-129699677D01*
X108818547Y-129722164D01*
X108285641Y-129942901D01*
X108174737Y-130220132D01*
X107676830Y-130220132D01*
X108065278Y-129832363D01*
X108314716Y-129231648D01*
X108315134Y-128752226D01*
X118214579Y-128752226D01*
X118584504Y-129647514D01*
X119268883Y-130333088D01*
X120163524Y-130704576D01*
X121132226Y-130705421D01*
X121875027Y-130398502D01*
X123299249Y-130398502D01*
X123957823Y-131992372D01*
X125176213Y-133212892D01*
X126768932Y-133874246D01*
X128493502Y-133875751D01*
X130087372Y-133217177D01*
X131307892Y-131998787D01*
X131969246Y-130406068D01*
X131970751Y-128681498D01*
X131312177Y-127087628D01*
X130093787Y-125867108D01*
X128501068Y-125205754D01*
X126776498Y-125204249D01*
X125182628Y-125862823D01*
X123962108Y-127081213D01*
X123300754Y-128673932D01*
X123299249Y-130398502D01*
X121875027Y-130398502D01*
X122027514Y-130335496D01*
X122713088Y-129651117D01*
X123084576Y-128756476D01*
X123085421Y-127787774D01*
X122715496Y-126892486D01*
X122031117Y-126206912D01*
X121136476Y-125835424D01*
X120167774Y-125834579D01*
X119272486Y-126204504D01*
X118586912Y-126888883D01*
X118215424Y-127783524D01*
X118214579Y-128752226D01*
X108315134Y-128752226D01*
X108315284Y-128581205D01*
X108066894Y-127980057D01*
X107677387Y-127589868D01*
X108174737Y-127589868D01*
X108285641Y-127867099D01*
X108931593Y-128110323D01*
X109621453Y-128087836D01*
X110154359Y-127867099D01*
X110265263Y-127589868D01*
X109220000Y-126544605D01*
X108174737Y-127589868D01*
X107677387Y-127589868D01*
X107607363Y-127519722D01*
X107006648Y-127270284D01*
X106356205Y-127269716D01*
X105755057Y-127518106D01*
X105294722Y-127977637D01*
X105045284Y-128578352D01*
X105044716Y-129228795D01*
X101650000Y-129228795D01*
X101650000Y-127589868D01*
X103094737Y-127589868D01*
X103205641Y-127867099D01*
X103851593Y-128110323D01*
X104541453Y-128087836D01*
X105074359Y-127867099D01*
X105185263Y-127589868D01*
X104140000Y-126544605D01*
X103094737Y-127589868D01*
X101650000Y-127589868D01*
X101650000Y-126076593D01*
X102394677Y-126076593D01*
X102417164Y-126766453D01*
X102637901Y-127299359D01*
X102915132Y-127410263D01*
X103960395Y-126365000D01*
X104319605Y-126365000D01*
X105364868Y-127410263D01*
X105642099Y-127299359D01*
X105885323Y-126653407D01*
X105866521Y-126076593D01*
X107474677Y-126076593D01*
X107497164Y-126766453D01*
X107717901Y-127299359D01*
X107995132Y-127410263D01*
X109040395Y-126365000D01*
X109399605Y-126365000D01*
X110444868Y-127410263D01*
X110722099Y-127299359D01*
X110965323Y-126653407D01*
X110942836Y-125963547D01*
X110722099Y-125430641D01*
X110444868Y-125319737D01*
X109399605Y-126365000D01*
X109040395Y-126365000D01*
X107995132Y-125319737D01*
X107717901Y-125430641D01*
X107474677Y-126076593D01*
X105866521Y-126076593D01*
X105862836Y-125963547D01*
X105642099Y-125430641D01*
X105364868Y-125319737D01*
X104319605Y-126365000D01*
X103960395Y-126365000D01*
X102915132Y-125319737D01*
X102637901Y-125430641D01*
X102394677Y-126076593D01*
X101650000Y-126076593D01*
X101650000Y-125140132D01*
X103094737Y-125140132D01*
X104140000Y-126185395D01*
X105185263Y-125140132D01*
X108174737Y-125140132D01*
X109220000Y-126185395D01*
X110265263Y-125140132D01*
X110154359Y-124862901D01*
X109508407Y-124619677D01*
X108818547Y-124642164D01*
X108285641Y-124862901D01*
X108174737Y-125140132D01*
X105185263Y-125140132D01*
X105074359Y-124862901D01*
X104428407Y-124619677D01*
X103738547Y-124642164D01*
X103205641Y-124862901D01*
X103094737Y-125140132D01*
X101650000Y-125140132D01*
X101650000Y-123650630D01*
X119098975Y-123650630D01*
X119295358Y-124000569D01*
X120194673Y-124360594D01*
X121163308Y-124349061D01*
X122004642Y-124000569D01*
X122201025Y-123650630D01*
X120650000Y-122099605D01*
X119098975Y-123650630D01*
X101650000Y-123650630D01*
X101650000Y-121464673D01*
X118209406Y-121464673D01*
X118220939Y-122433308D01*
X118569431Y-123274642D01*
X118919370Y-123471025D01*
X120470395Y-121920000D01*
X120829605Y-121920000D01*
X122380630Y-123471025D01*
X122730569Y-123274642D01*
X123090594Y-122375327D01*
X123079061Y-121406692D01*
X122730569Y-120565358D01*
X122380630Y-120368975D01*
X120829605Y-121920000D01*
X120470395Y-121920000D01*
X118919370Y-120368975D01*
X118569431Y-120565358D01*
X118209406Y-121464673D01*
X101650000Y-121464673D01*
X101650000Y-120189370D01*
X119098975Y-120189370D01*
X120650000Y-121740395D01*
X122201025Y-120189370D01*
X122004642Y-119839431D01*
X121105327Y-119479406D01*
X120136692Y-119490939D01*
X119295358Y-119839431D01*
X119098975Y-120189370D01*
X101650000Y-120189370D01*
X101650000Y-109702226D01*
X118214579Y-109702226D01*
X118584504Y-110597514D01*
X119268883Y-111283088D01*
X120163524Y-111654576D01*
X121132226Y-111655421D01*
X122027514Y-111285496D01*
X122713088Y-110601117D01*
X123084576Y-109706476D01*
X123085421Y-108737774D01*
X122715496Y-107842486D01*
X122031117Y-107156912D01*
X121136476Y-106785424D01*
X120167774Y-106784579D01*
X119272486Y-107154504D01*
X118586912Y-107838883D01*
X118215424Y-108733524D01*
X118214579Y-109702226D01*
X101650000Y-109702226D01*
X101650000Y-105999868D01*
X103094737Y-105999868D01*
X103205641Y-106277099D01*
X103851593Y-106520323D01*
X104541453Y-106497836D01*
X105074359Y-106277099D01*
X105185263Y-105999868D01*
X108174737Y-105999868D01*
X108285641Y-106277099D01*
X108931593Y-106520323D01*
X109621453Y-106497836D01*
X110154359Y-106277099D01*
X110265263Y-105999868D01*
X109220000Y-104954605D01*
X108174737Y-105999868D01*
X105185263Y-105999868D01*
X104140000Y-104954605D01*
X103094737Y-105999868D01*
X101650000Y-105999868D01*
X101650000Y-104486593D01*
X102394677Y-104486593D01*
X102417164Y-105176453D01*
X102637901Y-105709359D01*
X102915132Y-105820263D01*
X103960395Y-104775000D01*
X104319605Y-104775000D01*
X105364868Y-105820263D01*
X105642099Y-105709359D01*
X105885323Y-105063407D01*
X105866521Y-104486593D01*
X107474677Y-104486593D01*
X107497164Y-105176453D01*
X107717901Y-105709359D01*
X107995132Y-105820263D01*
X109040395Y-104775000D01*
X109399605Y-104775000D01*
X110444868Y-105820263D01*
X110722099Y-105709359D01*
X110965323Y-105063407D01*
X110942836Y-104373547D01*
X110722099Y-103840641D01*
X110444868Y-103729737D01*
X109399605Y-104775000D01*
X109040395Y-104775000D01*
X107995132Y-103729737D01*
X107717901Y-103840641D01*
X107474677Y-104486593D01*
X105866521Y-104486593D01*
X105862836Y-104373547D01*
X105642099Y-103840641D01*
X105364868Y-103729737D01*
X104319605Y-104775000D01*
X103960395Y-104775000D01*
X102915132Y-103729737D01*
X102637901Y-103840641D01*
X102394677Y-104486593D01*
X101650000Y-104486593D01*
X101650000Y-103550132D01*
X103094737Y-103550132D01*
X104140000Y-104595395D01*
X105185263Y-103550132D01*
X105074359Y-103272901D01*
X104428407Y-103029677D01*
X103738547Y-103052164D01*
X103205641Y-103272901D01*
X103094737Y-103550132D01*
X101650000Y-103550132D01*
X101650000Y-102558795D01*
X105044716Y-102558795D01*
X105293106Y-103159943D01*
X105752637Y-103620278D01*
X106353352Y-103869716D01*
X107003795Y-103870284D01*
X107604943Y-103621894D01*
X107676830Y-103550132D01*
X108174737Y-103550132D01*
X109220000Y-104595395D01*
X110265263Y-103550132D01*
X110186093Y-103352226D01*
X118214579Y-103352226D01*
X118584504Y-104247514D01*
X119268883Y-104933088D01*
X120163524Y-105304576D01*
X121132226Y-105305421D01*
X122027514Y-104935496D01*
X122713088Y-104251117D01*
X123084576Y-103356476D01*
X123085421Y-102387774D01*
X122715496Y-101492486D01*
X122031117Y-100806912D01*
X121136476Y-100435424D01*
X120167774Y-100434579D01*
X119272486Y-100804504D01*
X118586912Y-101488883D01*
X118215424Y-102383524D01*
X118214579Y-103352226D01*
X110186093Y-103352226D01*
X110154359Y-103272901D01*
X109508407Y-103029677D01*
X108818547Y-103052164D01*
X108285641Y-103272901D01*
X108174737Y-103550132D01*
X107676830Y-103550132D01*
X108065278Y-103162363D01*
X108314716Y-102561648D01*
X108315284Y-101911205D01*
X108066894Y-101310057D01*
X107677387Y-100919868D01*
X108174737Y-100919868D01*
X108285641Y-101197099D01*
X108931593Y-101440323D01*
X109621453Y-101417836D01*
X110154359Y-101197099D01*
X110265263Y-100919868D01*
X109220000Y-99874605D01*
X108174737Y-100919868D01*
X107677387Y-100919868D01*
X107607363Y-100849722D01*
X107006648Y-100600284D01*
X106356205Y-100599716D01*
X105755057Y-100848106D01*
X105294722Y-101307637D01*
X105045284Y-101908352D01*
X105044716Y-102558795D01*
X101650000Y-102558795D01*
X101650000Y-100919868D01*
X103094737Y-100919868D01*
X103205641Y-101197099D01*
X103851593Y-101440323D01*
X104541453Y-101417836D01*
X105074359Y-101197099D01*
X105185263Y-100919868D01*
X104140000Y-99874605D01*
X103094737Y-100919868D01*
X101650000Y-100919868D01*
X101650000Y-99406593D01*
X102394677Y-99406593D01*
X102417164Y-100096453D01*
X102637901Y-100629359D01*
X102915132Y-100740263D01*
X103960395Y-99695000D01*
X104319605Y-99695000D01*
X105364868Y-100740263D01*
X105642099Y-100629359D01*
X105885323Y-99983407D01*
X105866521Y-99406593D01*
X107474677Y-99406593D01*
X107497164Y-100096453D01*
X107717901Y-100629359D01*
X107995132Y-100740263D01*
X109040395Y-99695000D01*
X109399605Y-99695000D01*
X110444868Y-100740263D01*
X110722099Y-100629359D01*
X110965323Y-99983407D01*
X110942836Y-99293547D01*
X110722099Y-98760641D01*
X110444868Y-98649737D01*
X109399605Y-99695000D01*
X109040395Y-99695000D01*
X107995132Y-98649737D01*
X107717901Y-98760641D01*
X107474677Y-99406593D01*
X105866521Y-99406593D01*
X105862836Y-99293547D01*
X105642099Y-98760641D01*
X105364868Y-98649737D01*
X104319605Y-99695000D01*
X103960395Y-99695000D01*
X102915132Y-98649737D01*
X102637901Y-98760641D01*
X102394677Y-99406593D01*
X101650000Y-99406593D01*
X101650000Y-98470132D01*
X103094737Y-98470132D01*
X104140000Y-99515395D01*
X105185263Y-98470132D01*
X108174737Y-98470132D01*
X109220000Y-99515395D01*
X110265263Y-98470132D01*
X110154359Y-98192901D01*
X109508407Y-97949677D01*
X108818547Y-97972164D01*
X108285641Y-98192901D01*
X108174737Y-98470132D01*
X105185263Y-98470132D01*
X105074359Y-98192901D01*
X104428407Y-97949677D01*
X103738547Y-97972164D01*
X103205641Y-98192901D01*
X103094737Y-98470132D01*
X101650000Y-98470132D01*
X101650000Y-66522226D01*
X104244579Y-66522226D01*
X104614504Y-67417514D01*
X105298883Y-68103088D01*
X106193524Y-68474576D01*
X107162226Y-68475421D01*
X108057514Y-68105496D01*
X108743088Y-67421117D01*
X109114576Y-66526476D01*
X109114579Y-66522226D01*
X110594579Y-66522226D01*
X110964504Y-67417514D01*
X111648883Y-68103088D01*
X112543524Y-68474576D01*
X113512226Y-68475421D01*
X114407514Y-68105496D01*
X115093088Y-67421117D01*
X115464576Y-66526476D01*
X115464579Y-66522226D01*
X123294579Y-66522226D01*
X123664504Y-67417514D01*
X124348883Y-68103088D01*
X125243524Y-68474576D01*
X126212226Y-68475421D01*
X127107514Y-68105496D01*
X127442964Y-67770630D01*
X130528975Y-67770630D01*
X130725358Y-68120569D01*
X131624673Y-68480594D01*
X132593308Y-68469061D01*
X133434642Y-68120569D01*
X133631025Y-67770630D01*
X132080000Y-66219605D01*
X130528975Y-67770630D01*
X127442964Y-67770630D01*
X127793088Y-67421117D01*
X128164576Y-66526476D01*
X128165397Y-65584673D01*
X129639406Y-65584673D01*
X129650939Y-66553308D01*
X129999431Y-67394642D01*
X130349370Y-67591025D01*
X131900395Y-66040000D01*
X132259605Y-66040000D01*
X133810630Y-67591025D01*
X134160569Y-67394642D01*
X134520594Y-66495327D01*
X134509061Y-65526692D01*
X134160569Y-64685358D01*
X133810630Y-64488975D01*
X132259605Y-66040000D01*
X131900395Y-66040000D01*
X130349370Y-64488975D01*
X129999431Y-64685358D01*
X129639406Y-65584673D01*
X128165397Y-65584673D01*
X128165421Y-65557774D01*
X127795496Y-64662486D01*
X127442996Y-64309370D01*
X130528975Y-64309370D01*
X132080000Y-65860395D01*
X133631025Y-64309370D01*
X133434642Y-63959431D01*
X132535327Y-63599406D01*
X131566692Y-63610939D01*
X130725358Y-63959431D01*
X130528975Y-64309370D01*
X127442996Y-64309370D01*
X127111117Y-63976912D01*
X126216476Y-63605424D01*
X125247774Y-63604579D01*
X124352486Y-63974504D01*
X123666912Y-64658883D01*
X123295424Y-65553524D01*
X123294579Y-66522226D01*
X115464579Y-66522226D01*
X115465421Y-65557774D01*
X115095496Y-64662486D01*
X114411117Y-63976912D01*
X113516476Y-63605424D01*
X112547774Y-63604579D01*
X111652486Y-63974504D01*
X110966912Y-64658883D01*
X110595424Y-65553524D01*
X110594579Y-66522226D01*
X109114579Y-66522226D01*
X109115421Y-65557774D01*
X108745496Y-64662486D01*
X108061117Y-63976912D01*
X107166476Y-63605424D01*
X106197774Y-63604579D01*
X105302486Y-63974504D01*
X104616912Y-64658883D01*
X104245424Y-65553524D01*
X104244579Y-66522226D01*
X101650000Y-66522226D01*
X101650000Y-47213502D01*
X102344249Y-47213502D01*
X103002823Y-48807372D01*
X104221213Y-50027892D01*
X105813932Y-50689246D01*
X107538502Y-50690751D01*
X109132372Y-50032177D01*
X110352892Y-48813787D01*
X111014246Y-47221068D01*
X111014252Y-47213502D01*
X130919249Y-47213502D01*
X131577823Y-48807372D01*
X132796213Y-50027892D01*
X134388932Y-50689246D01*
X136113502Y-50690751D01*
X137707372Y-50032177D01*
X138927892Y-48813787D01*
X139589246Y-47221068D01*
X139590751Y-45496498D01*
X138932177Y-43902628D01*
X137713787Y-42682108D01*
X136121068Y-42020754D01*
X134396498Y-42019249D01*
X132802628Y-42677823D01*
X131582108Y-43896213D01*
X130920754Y-45488932D01*
X130919249Y-47213502D01*
X111014252Y-47213502D01*
X111015751Y-45496498D01*
X110357177Y-43902628D01*
X109138787Y-42682108D01*
X107546068Y-42020754D01*
X105821498Y-42019249D01*
X104227628Y-42677823D01*
X103007108Y-43896213D01*
X102345754Y-45488932D01*
X102344249Y-47213502D01*
X101650000Y-47213502D01*
X101650000Y-41325000D01*
X140208000Y-41325000D01*
X140208000Y-92710000D01*
X140208000Y-92710000D01*
G37*
X140208000Y-92710000D02*
X140218006Y-92759410D01*
X140246447Y-92801035D01*
X140288841Y-92828315D01*
X140335000Y-92837000D01*
X144145000Y-92837000D01*
X144194410Y-92826994D01*
X144236035Y-92798553D01*
X144263315Y-92756159D01*
X144272000Y-92710000D01*
X144272000Y-66860167D01*
X174324838Y-66860167D01*
X174375000Y-66981569D01*
X174375000Y-92403178D01*
X174325162Y-92523201D01*
X174324838Y-92895167D01*
X174466883Y-93238943D01*
X174729673Y-93502192D01*
X175073201Y-93644838D01*
X175445167Y-93645162D01*
X175788943Y-93503117D01*
X176052192Y-93240327D01*
X176194838Y-92896799D01*
X176195162Y-92524833D01*
X176145000Y-92403431D01*
X176145000Y-89720167D01*
X176229838Y-89720167D01*
X176280000Y-89841569D01*
X176280000Y-113993178D01*
X176230162Y-114113201D01*
X176229838Y-114485167D01*
X176371883Y-114828943D01*
X176634673Y-115092192D01*
X176978201Y-115234838D01*
X177350167Y-115235162D01*
X177693943Y-115093117D01*
X177957192Y-114830327D01*
X178099838Y-114486799D01*
X178100162Y-114114833D01*
X178050000Y-113993431D01*
X178050000Y-98170000D01*
X188529336Y-98170000D01*
X188629054Y-98671315D01*
X188913026Y-99096310D01*
X189023311Y-99170000D01*
X188913026Y-99243690D01*
X188629054Y-99668685D01*
X188529336Y-100170000D01*
X188629054Y-100671315D01*
X188913026Y-101096310D01*
X189023311Y-101170000D01*
X188913026Y-101243690D01*
X188629054Y-101668685D01*
X188529336Y-102170000D01*
X188629054Y-102671315D01*
X188913026Y-103096310D01*
X189023311Y-103170000D01*
X188913026Y-103243690D01*
X188629054Y-103668685D01*
X188529336Y-104170000D01*
X188629054Y-104671315D01*
X188913026Y-105096310D01*
X189023311Y-105170000D01*
X188913026Y-105243690D01*
X188629054Y-105668685D01*
X188529336Y-106170000D01*
X188629054Y-106671315D01*
X188830008Y-106972064D01*
X188738559Y-107030910D01*
X188593569Y-107243110D01*
X188542560Y-107495000D01*
X188542560Y-108845000D01*
X188586838Y-109080317D01*
X188725910Y-109296441D01*
X188938110Y-109441431D01*
X189190000Y-109492440D01*
X190540000Y-109492440D01*
X190775317Y-109448162D01*
X190991441Y-109309090D01*
X191136431Y-109096890D01*
X191187440Y-108845000D01*
X191187440Y-107495000D01*
X191143162Y-107259683D01*
X191004090Y-107043559D01*
X190899823Y-106972317D01*
X191100946Y-106671315D01*
X191200664Y-106170000D01*
X191100946Y-105668685D01*
X190816974Y-105243690D01*
X190706689Y-105170000D01*
X190816974Y-105096310D01*
X191100946Y-104671315D01*
X191200664Y-104170000D01*
X191100946Y-103668685D01*
X190816974Y-103243690D01*
X190706689Y-103170000D01*
X190816974Y-103096310D01*
X191100946Y-102671315D01*
X191200664Y-102170000D01*
X191100946Y-101668685D01*
X190816974Y-101243690D01*
X190706689Y-101170000D01*
X190816974Y-101096310D01*
X191100946Y-100671315D01*
X191200664Y-100170000D01*
X191100946Y-99668685D01*
X190816974Y-99243690D01*
X190706689Y-99170000D01*
X190816974Y-99096310D01*
X191100946Y-98671315D01*
X191200664Y-98170000D01*
X191100946Y-97668685D01*
X190816974Y-97243690D01*
X190699314Y-97165072D01*
X190994478Y-96833633D01*
X191132910Y-96499400D01*
X191009224Y-96297000D01*
X189992000Y-96297000D01*
X189992000Y-96317000D01*
X189738000Y-96317000D01*
X189738000Y-96297000D01*
X188720776Y-96297000D01*
X188597090Y-96499400D01*
X188735522Y-96833633D01*
X189030686Y-97165072D01*
X188913026Y-97243690D01*
X188629054Y-97668685D01*
X188529336Y-98170000D01*
X178050000Y-98170000D01*
X178050000Y-90170000D01*
X188529336Y-90170000D01*
X188629054Y-90671315D01*
X188913026Y-91096310D01*
X189023311Y-91170000D01*
X188913026Y-91243690D01*
X188629054Y-91668685D01*
X188529336Y-92170000D01*
X188629054Y-92671315D01*
X188913026Y-93096310D01*
X189023311Y-93170000D01*
X188913026Y-93243690D01*
X188629054Y-93668685D01*
X188529336Y-94170000D01*
X188629054Y-94671315D01*
X188913026Y-95096310D01*
X189030686Y-95174928D01*
X188735522Y-95506367D01*
X188597090Y-95840600D01*
X188720776Y-96043000D01*
X189738000Y-96043000D01*
X189738000Y-96023000D01*
X189992000Y-96023000D01*
X189992000Y-96043000D01*
X191009224Y-96043000D01*
X191132910Y-95840600D01*
X190994478Y-95506367D01*
X190699314Y-95174928D01*
X190816974Y-95096310D01*
X191100946Y-94671315D01*
X191200664Y-94170000D01*
X191100946Y-93668685D01*
X190816974Y-93243690D01*
X190706689Y-93170000D01*
X190816974Y-93096310D01*
X191100946Y-92671315D01*
X191200664Y-92170000D01*
X191100946Y-91668685D01*
X190816974Y-91243690D01*
X190706689Y-91170000D01*
X190816974Y-91096310D01*
X191100946Y-90671315D01*
X191200664Y-90170000D01*
X191100946Y-89668685D01*
X190816974Y-89243690D01*
X190391979Y-88959718D01*
X189890664Y-88860000D01*
X189839336Y-88860000D01*
X189338021Y-88959718D01*
X188913026Y-89243690D01*
X188629054Y-89668685D01*
X188529336Y-90170000D01*
X178050000Y-90170000D01*
X178050000Y-89841822D01*
X178099838Y-89721799D01*
X178100162Y-89349833D01*
X177958117Y-89006057D01*
X177695327Y-88742808D01*
X177351799Y-88600162D01*
X176979833Y-88599838D01*
X176636057Y-88741883D01*
X176372808Y-89004673D01*
X176230162Y-89348201D01*
X176229838Y-89720167D01*
X176145000Y-89720167D01*
X176145000Y-81465167D01*
X176864838Y-81465167D01*
X177006883Y-81808943D01*
X177269673Y-82072192D01*
X177613201Y-82214838D01*
X177985167Y-82215162D01*
X178106569Y-82165000D01*
X194003178Y-82165000D01*
X194123201Y-82214838D01*
X194495167Y-82215162D01*
X194838943Y-82073117D01*
X195102192Y-81810327D01*
X195244838Y-81466799D01*
X195245162Y-81094833D01*
X195103117Y-80751057D01*
X194840327Y-80487808D01*
X194496799Y-80345162D01*
X194124833Y-80344838D01*
X194003431Y-80395000D01*
X178106822Y-80395000D01*
X177986799Y-80345162D01*
X177614833Y-80344838D01*
X177271057Y-80486883D01*
X177007808Y-80749673D01*
X176865162Y-81093201D01*
X176864838Y-81465167D01*
X176145000Y-81465167D01*
X176145000Y-71940167D01*
X183214838Y-71940167D01*
X183356883Y-72283943D01*
X183619673Y-72547192D01*
X183963201Y-72689838D01*
X184335167Y-72690162D01*
X184678943Y-72548117D01*
X184942192Y-72285327D01*
X184992566Y-72164014D01*
X190490787Y-66665792D01*
X190490790Y-66665790D01*
X190682633Y-66378675D01*
X190682634Y-66378674D01*
X190750001Y-66040000D01*
X190750000Y-66039995D01*
X190750000Y-64441822D01*
X190799838Y-64321799D01*
X190800162Y-63949833D01*
X190658117Y-63606057D01*
X190395327Y-63342808D01*
X190051799Y-63200162D01*
X189679833Y-63199838D01*
X189336057Y-63341883D01*
X189072808Y-63604673D01*
X188930162Y-63948201D01*
X188929838Y-64320167D01*
X188980000Y-64441569D01*
X188980000Y-65673421D01*
X183741164Y-70912256D01*
X183621057Y-70961883D01*
X183357808Y-71224673D01*
X183215162Y-71568201D01*
X183214838Y-71940167D01*
X176145000Y-71940167D01*
X176145000Y-66981822D01*
X176194838Y-66861799D01*
X176195162Y-66489833D01*
X176053117Y-66146057D01*
X175790327Y-65882808D01*
X175446799Y-65740162D01*
X175074833Y-65739838D01*
X174731057Y-65881883D01*
X174467808Y-66144673D01*
X174325162Y-66488201D01*
X174324838Y-66860167D01*
X144272000Y-66860167D01*
X144272000Y-47213502D01*
X144889249Y-47213502D01*
X145547823Y-48807372D01*
X146766213Y-50027892D01*
X148358932Y-50689246D01*
X150083502Y-50690751D01*
X151677372Y-50032177D01*
X152897892Y-48813787D01*
X153559246Y-47221068D01*
X153559447Y-46990000D01*
X159826887Y-46990000D01*
X159936120Y-47539151D01*
X160247189Y-48004698D01*
X160712736Y-48315767D01*
X161261887Y-48425000D01*
X161318113Y-48425000D01*
X161867264Y-48315767D01*
X162332811Y-48004698D01*
X162643880Y-47539151D01*
X162753113Y-46990000D01*
X162643880Y-46440849D01*
X162476268Y-46190000D01*
X172542560Y-46190000D01*
X172542560Y-47790000D01*
X172586838Y-48025317D01*
X172725910Y-48241441D01*
X172938110Y-48386431D01*
X173190000Y-48437440D01*
X174790000Y-48437440D01*
X175025317Y-48393162D01*
X175241441Y-48254090D01*
X175386431Y-48041890D01*
X175437440Y-47790000D01*
X175437440Y-47213502D01*
X189974249Y-47213502D01*
X190632823Y-48807372D01*
X191851213Y-50027892D01*
X193443932Y-50689246D01*
X195168502Y-50690751D01*
X196762372Y-50032177D01*
X197982892Y-48813787D01*
X198644246Y-47221068D01*
X198645751Y-45496498D01*
X197987177Y-43902628D01*
X196768787Y-42682108D01*
X195176068Y-42020754D01*
X193451498Y-42019249D01*
X191857628Y-42677823D01*
X190637108Y-43896213D01*
X189975754Y-45488932D01*
X189974249Y-47213502D01*
X175437440Y-47213502D01*
X175437440Y-46190000D01*
X175393162Y-45954683D01*
X175254090Y-45738559D01*
X175041890Y-45593569D01*
X174790000Y-45542560D01*
X173190000Y-45542560D01*
X172954683Y-45586838D01*
X172738559Y-45725910D01*
X172593569Y-45938110D01*
X172542560Y-46190000D01*
X162476268Y-46190000D01*
X162332811Y-45975302D01*
X161867264Y-45664233D01*
X161318113Y-45555000D01*
X161261887Y-45555000D01*
X160712736Y-45664233D01*
X160247189Y-45975302D01*
X159936120Y-46440849D01*
X159826887Y-46990000D01*
X153559447Y-46990000D01*
X153560751Y-45496498D01*
X152902177Y-43902628D01*
X151683787Y-42682108D01*
X150091068Y-42020754D01*
X148366498Y-42019249D01*
X146772628Y-42677823D01*
X145552108Y-43896213D01*
X144890754Y-45488932D01*
X144889249Y-47213502D01*
X144272000Y-47213502D01*
X144272000Y-41325000D01*
X199340000Y-41325000D01*
X199340000Y-133935000D01*
X144272000Y-133935000D01*
X144272000Y-130398502D01*
X144889249Y-130398502D01*
X145547823Y-131992372D01*
X146766213Y-133212892D01*
X148358932Y-133874246D01*
X150083502Y-133875751D01*
X151677372Y-133217177D01*
X152897892Y-131998787D01*
X153559246Y-130406068D01*
X153559252Y-130398502D01*
X190374249Y-130398502D01*
X191032823Y-131992372D01*
X192251213Y-133212892D01*
X193843932Y-133874246D01*
X195568502Y-133875751D01*
X197162372Y-133217177D01*
X198382892Y-131998787D01*
X199044246Y-130406068D01*
X199045751Y-128681498D01*
X198387177Y-127087628D01*
X197168787Y-125867108D01*
X195576068Y-125205754D01*
X193851498Y-125204249D01*
X192257628Y-125862823D01*
X191037108Y-127081213D01*
X190375754Y-128673932D01*
X190374249Y-130398502D01*
X153559252Y-130398502D01*
X153560751Y-128681498D01*
X152902177Y-127087628D01*
X151683787Y-125867108D01*
X150091068Y-125205754D01*
X148366498Y-125204249D01*
X146772628Y-125862823D01*
X145552108Y-127081213D01*
X144890754Y-128673932D01*
X144889249Y-130398502D01*
X144272000Y-130398502D01*
X144272000Y-123190000D01*
X155381887Y-123190000D01*
X155491120Y-123739151D01*
X155802189Y-124204698D01*
X156267736Y-124515767D01*
X156816887Y-124625000D01*
X156873113Y-124625000D01*
X157422264Y-124515767D01*
X157887811Y-124204698D01*
X158198880Y-123739151D01*
X158308113Y-123190000D01*
X158198880Y-122640849D01*
X158031268Y-122390000D01*
X168097560Y-122390000D01*
X168097560Y-123990000D01*
X168141838Y-124225317D01*
X168280910Y-124441441D01*
X168493110Y-124586431D01*
X168745000Y-124637440D01*
X170345000Y-124637440D01*
X170580317Y-124593162D01*
X170796441Y-124454090D01*
X170941431Y-124241890D01*
X170992440Y-123990000D01*
X170992440Y-122390000D01*
X170948162Y-122154683D01*
X170809090Y-121938559D01*
X170596890Y-121793569D01*
X170345000Y-121742560D01*
X168745000Y-121742560D01*
X168509683Y-121786838D01*
X168293559Y-121925910D01*
X168148569Y-122138110D01*
X168097560Y-122390000D01*
X158031268Y-122390000D01*
X157887811Y-122175302D01*
X157422264Y-121864233D01*
X156873113Y-121755000D01*
X156816887Y-121755000D01*
X156267736Y-121864233D01*
X155802189Y-122175302D01*
X155491120Y-122640849D01*
X155381887Y-123190000D01*
X144272000Y-123190000D01*
X144272000Y-93980000D01*
X144261994Y-93930590D01*
X144233553Y-93888965D01*
X144191159Y-93861685D01*
X144145000Y-93853000D01*
X140335000Y-93853000D01*
X140285590Y-93863006D01*
X140243965Y-93891447D01*
X140216685Y-93933841D01*
X140208000Y-93980000D01*
X140208000Y-133935000D01*
X101650000Y-133935000D01*
X101650000Y-132669868D01*
X103094737Y-132669868D01*
X103205641Y-132947099D01*
X103851593Y-133190323D01*
X104541453Y-133167836D01*
X105074359Y-132947099D01*
X105185263Y-132669868D01*
X108174737Y-132669868D01*
X108285641Y-132947099D01*
X108931593Y-133190323D01*
X109621453Y-133167836D01*
X110154359Y-132947099D01*
X110265263Y-132669868D01*
X109220000Y-131624605D01*
X108174737Y-132669868D01*
X105185263Y-132669868D01*
X104140000Y-131624605D01*
X103094737Y-132669868D01*
X101650000Y-132669868D01*
X101650000Y-131156593D01*
X102394677Y-131156593D01*
X102417164Y-131846453D01*
X102637901Y-132379359D01*
X102915132Y-132490263D01*
X103960395Y-131445000D01*
X104319605Y-131445000D01*
X105364868Y-132490263D01*
X105642099Y-132379359D01*
X105885323Y-131733407D01*
X105866521Y-131156593D01*
X107474677Y-131156593D01*
X107497164Y-131846453D01*
X107717901Y-132379359D01*
X107995132Y-132490263D01*
X109040395Y-131445000D01*
X109399605Y-131445000D01*
X110444868Y-132490263D01*
X110722099Y-132379359D01*
X110965323Y-131733407D01*
X110942836Y-131043547D01*
X110722099Y-130510641D01*
X110444868Y-130399737D01*
X109399605Y-131445000D01*
X109040395Y-131445000D01*
X107995132Y-130399737D01*
X107717901Y-130510641D01*
X107474677Y-131156593D01*
X105866521Y-131156593D01*
X105862836Y-131043547D01*
X105642099Y-130510641D01*
X105364868Y-130399737D01*
X104319605Y-131445000D01*
X103960395Y-131445000D01*
X102915132Y-130399737D01*
X102637901Y-130510641D01*
X102394677Y-131156593D01*
X101650000Y-131156593D01*
X101650000Y-130220132D01*
X103094737Y-130220132D01*
X104140000Y-131265395D01*
X105185263Y-130220132D01*
X105074359Y-129942901D01*
X104428407Y-129699677D01*
X103738547Y-129722164D01*
X103205641Y-129942901D01*
X103094737Y-130220132D01*
X101650000Y-130220132D01*
X101650000Y-129228795D01*
X105044716Y-129228795D01*
X105293106Y-129829943D01*
X105752637Y-130290278D01*
X106353352Y-130539716D01*
X107003795Y-130540284D01*
X107604943Y-130291894D01*
X107676830Y-130220132D01*
X108174737Y-130220132D01*
X109220000Y-131265395D01*
X110265263Y-130220132D01*
X110154359Y-129942901D01*
X109508407Y-129699677D01*
X108818547Y-129722164D01*
X108285641Y-129942901D01*
X108174737Y-130220132D01*
X107676830Y-130220132D01*
X108065278Y-129832363D01*
X108314716Y-129231648D01*
X108315134Y-128752226D01*
X118214579Y-128752226D01*
X118584504Y-129647514D01*
X119268883Y-130333088D01*
X120163524Y-130704576D01*
X121132226Y-130705421D01*
X121875027Y-130398502D01*
X123299249Y-130398502D01*
X123957823Y-131992372D01*
X125176213Y-133212892D01*
X126768932Y-133874246D01*
X128493502Y-133875751D01*
X130087372Y-133217177D01*
X131307892Y-131998787D01*
X131969246Y-130406068D01*
X131970751Y-128681498D01*
X131312177Y-127087628D01*
X130093787Y-125867108D01*
X128501068Y-125205754D01*
X126776498Y-125204249D01*
X125182628Y-125862823D01*
X123962108Y-127081213D01*
X123300754Y-128673932D01*
X123299249Y-130398502D01*
X121875027Y-130398502D01*
X122027514Y-130335496D01*
X122713088Y-129651117D01*
X123084576Y-128756476D01*
X123085421Y-127787774D01*
X122715496Y-126892486D01*
X122031117Y-126206912D01*
X121136476Y-125835424D01*
X120167774Y-125834579D01*
X119272486Y-126204504D01*
X118586912Y-126888883D01*
X118215424Y-127783524D01*
X118214579Y-128752226D01*
X108315134Y-128752226D01*
X108315284Y-128581205D01*
X108066894Y-127980057D01*
X107677387Y-127589868D01*
X108174737Y-127589868D01*
X108285641Y-127867099D01*
X108931593Y-128110323D01*
X109621453Y-128087836D01*
X110154359Y-127867099D01*
X110265263Y-127589868D01*
X109220000Y-126544605D01*
X108174737Y-127589868D01*
X107677387Y-127589868D01*
X107607363Y-127519722D01*
X107006648Y-127270284D01*
X106356205Y-127269716D01*
X105755057Y-127518106D01*
X105294722Y-127977637D01*
X105045284Y-128578352D01*
X105044716Y-129228795D01*
X101650000Y-129228795D01*
X101650000Y-127589868D01*
X103094737Y-127589868D01*
X103205641Y-127867099D01*
X103851593Y-128110323D01*
X104541453Y-128087836D01*
X105074359Y-127867099D01*
X105185263Y-127589868D01*
X104140000Y-126544605D01*
X103094737Y-127589868D01*
X101650000Y-127589868D01*
X101650000Y-126076593D01*
X102394677Y-126076593D01*
X102417164Y-126766453D01*
X102637901Y-127299359D01*
X102915132Y-127410263D01*
X103960395Y-126365000D01*
X104319605Y-126365000D01*
X105364868Y-127410263D01*
X105642099Y-127299359D01*
X105885323Y-126653407D01*
X105866521Y-126076593D01*
X107474677Y-126076593D01*
X107497164Y-126766453D01*
X107717901Y-127299359D01*
X107995132Y-127410263D01*
X109040395Y-126365000D01*
X109399605Y-126365000D01*
X110444868Y-127410263D01*
X110722099Y-127299359D01*
X110965323Y-126653407D01*
X110942836Y-125963547D01*
X110722099Y-125430641D01*
X110444868Y-125319737D01*
X109399605Y-126365000D01*
X109040395Y-126365000D01*
X107995132Y-125319737D01*
X107717901Y-125430641D01*
X107474677Y-126076593D01*
X105866521Y-126076593D01*
X105862836Y-125963547D01*
X105642099Y-125430641D01*
X105364868Y-125319737D01*
X104319605Y-126365000D01*
X103960395Y-126365000D01*
X102915132Y-125319737D01*
X102637901Y-125430641D01*
X102394677Y-126076593D01*
X101650000Y-126076593D01*
X101650000Y-125140132D01*
X103094737Y-125140132D01*
X104140000Y-126185395D01*
X105185263Y-125140132D01*
X108174737Y-125140132D01*
X109220000Y-126185395D01*
X110265263Y-125140132D01*
X110154359Y-124862901D01*
X109508407Y-124619677D01*
X108818547Y-124642164D01*
X108285641Y-124862901D01*
X108174737Y-125140132D01*
X105185263Y-125140132D01*
X105074359Y-124862901D01*
X104428407Y-124619677D01*
X103738547Y-124642164D01*
X103205641Y-124862901D01*
X103094737Y-125140132D01*
X101650000Y-125140132D01*
X101650000Y-123650630D01*
X119098975Y-123650630D01*
X119295358Y-124000569D01*
X120194673Y-124360594D01*
X121163308Y-124349061D01*
X122004642Y-124000569D01*
X122201025Y-123650630D01*
X120650000Y-122099605D01*
X119098975Y-123650630D01*
X101650000Y-123650630D01*
X101650000Y-121464673D01*
X118209406Y-121464673D01*
X118220939Y-122433308D01*
X118569431Y-123274642D01*
X118919370Y-123471025D01*
X120470395Y-121920000D01*
X120829605Y-121920000D01*
X122380630Y-123471025D01*
X122730569Y-123274642D01*
X123090594Y-122375327D01*
X123079061Y-121406692D01*
X122730569Y-120565358D01*
X122380630Y-120368975D01*
X120829605Y-121920000D01*
X120470395Y-121920000D01*
X118919370Y-120368975D01*
X118569431Y-120565358D01*
X118209406Y-121464673D01*
X101650000Y-121464673D01*
X101650000Y-120189370D01*
X119098975Y-120189370D01*
X120650000Y-121740395D01*
X122201025Y-120189370D01*
X122004642Y-119839431D01*
X121105327Y-119479406D01*
X120136692Y-119490939D01*
X119295358Y-119839431D01*
X119098975Y-120189370D01*
X101650000Y-120189370D01*
X101650000Y-109702226D01*
X118214579Y-109702226D01*
X118584504Y-110597514D01*
X119268883Y-111283088D01*
X120163524Y-111654576D01*
X121132226Y-111655421D01*
X122027514Y-111285496D01*
X122713088Y-110601117D01*
X123084576Y-109706476D01*
X123085421Y-108737774D01*
X122715496Y-107842486D01*
X122031117Y-107156912D01*
X121136476Y-106785424D01*
X120167774Y-106784579D01*
X119272486Y-107154504D01*
X118586912Y-107838883D01*
X118215424Y-108733524D01*
X118214579Y-109702226D01*
X101650000Y-109702226D01*
X101650000Y-105999868D01*
X103094737Y-105999868D01*
X103205641Y-106277099D01*
X103851593Y-106520323D01*
X104541453Y-106497836D01*
X105074359Y-106277099D01*
X105185263Y-105999868D01*
X108174737Y-105999868D01*
X108285641Y-106277099D01*
X108931593Y-106520323D01*
X109621453Y-106497836D01*
X110154359Y-106277099D01*
X110265263Y-105999868D01*
X109220000Y-104954605D01*
X108174737Y-105999868D01*
X105185263Y-105999868D01*
X104140000Y-104954605D01*
X103094737Y-105999868D01*
X101650000Y-105999868D01*
X101650000Y-104486593D01*
X102394677Y-104486593D01*
X102417164Y-105176453D01*
X102637901Y-105709359D01*
X102915132Y-105820263D01*
X103960395Y-104775000D01*
X104319605Y-104775000D01*
X105364868Y-105820263D01*
X105642099Y-105709359D01*
X105885323Y-105063407D01*
X105866521Y-104486593D01*
X107474677Y-104486593D01*
X107497164Y-105176453D01*
X107717901Y-105709359D01*
X107995132Y-105820263D01*
X109040395Y-104775000D01*
X109399605Y-104775000D01*
X110444868Y-105820263D01*
X110722099Y-105709359D01*
X110965323Y-105063407D01*
X110942836Y-104373547D01*
X110722099Y-103840641D01*
X110444868Y-103729737D01*
X109399605Y-104775000D01*
X109040395Y-104775000D01*
X107995132Y-103729737D01*
X107717901Y-103840641D01*
X107474677Y-104486593D01*
X105866521Y-104486593D01*
X105862836Y-104373547D01*
X105642099Y-103840641D01*
X105364868Y-103729737D01*
X104319605Y-104775000D01*
X103960395Y-104775000D01*
X102915132Y-103729737D01*
X102637901Y-103840641D01*
X102394677Y-104486593D01*
X101650000Y-104486593D01*
X101650000Y-103550132D01*
X103094737Y-103550132D01*
X104140000Y-104595395D01*
X105185263Y-103550132D01*
X105074359Y-103272901D01*
X104428407Y-103029677D01*
X103738547Y-103052164D01*
X103205641Y-103272901D01*
X103094737Y-103550132D01*
X101650000Y-103550132D01*
X101650000Y-102558795D01*
X105044716Y-102558795D01*
X105293106Y-103159943D01*
X105752637Y-103620278D01*
X106353352Y-103869716D01*
X107003795Y-103870284D01*
X107604943Y-103621894D01*
X107676830Y-103550132D01*
X108174737Y-103550132D01*
X109220000Y-104595395D01*
X110265263Y-103550132D01*
X110186093Y-103352226D01*
X118214579Y-103352226D01*
X118584504Y-104247514D01*
X119268883Y-104933088D01*
X120163524Y-105304576D01*
X121132226Y-105305421D01*
X122027514Y-104935496D01*
X122713088Y-104251117D01*
X123084576Y-103356476D01*
X123085421Y-102387774D01*
X122715496Y-101492486D01*
X122031117Y-100806912D01*
X121136476Y-100435424D01*
X120167774Y-100434579D01*
X119272486Y-100804504D01*
X118586912Y-101488883D01*
X118215424Y-102383524D01*
X118214579Y-103352226D01*
X110186093Y-103352226D01*
X110154359Y-103272901D01*
X109508407Y-103029677D01*
X108818547Y-103052164D01*
X108285641Y-103272901D01*
X108174737Y-103550132D01*
X107676830Y-103550132D01*
X108065278Y-103162363D01*
X108314716Y-102561648D01*
X108315284Y-101911205D01*
X108066894Y-101310057D01*
X107677387Y-100919868D01*
X108174737Y-100919868D01*
X108285641Y-101197099D01*
X108931593Y-101440323D01*
X109621453Y-101417836D01*
X110154359Y-101197099D01*
X110265263Y-100919868D01*
X109220000Y-99874605D01*
X108174737Y-100919868D01*
X107677387Y-100919868D01*
X107607363Y-100849722D01*
X107006648Y-100600284D01*
X106356205Y-100599716D01*
X105755057Y-100848106D01*
X105294722Y-101307637D01*
X105045284Y-101908352D01*
X105044716Y-102558795D01*
X101650000Y-102558795D01*
X101650000Y-100919868D01*
X103094737Y-100919868D01*
X103205641Y-101197099D01*
X103851593Y-101440323D01*
X104541453Y-101417836D01*
X105074359Y-101197099D01*
X105185263Y-100919868D01*
X104140000Y-99874605D01*
X103094737Y-100919868D01*
X101650000Y-100919868D01*
X101650000Y-99406593D01*
X102394677Y-99406593D01*
X102417164Y-100096453D01*
X102637901Y-100629359D01*
X102915132Y-100740263D01*
X103960395Y-99695000D01*
X104319605Y-99695000D01*
X105364868Y-100740263D01*
X105642099Y-100629359D01*
X105885323Y-99983407D01*
X105866521Y-99406593D01*
X107474677Y-99406593D01*
X107497164Y-100096453D01*
X107717901Y-100629359D01*
X107995132Y-100740263D01*
X109040395Y-99695000D01*
X109399605Y-99695000D01*
X110444868Y-100740263D01*
X110722099Y-100629359D01*
X110965323Y-99983407D01*
X110942836Y-99293547D01*
X110722099Y-98760641D01*
X110444868Y-98649737D01*
X109399605Y-99695000D01*
X109040395Y-99695000D01*
X107995132Y-98649737D01*
X107717901Y-98760641D01*
X107474677Y-99406593D01*
X105866521Y-99406593D01*
X105862836Y-99293547D01*
X105642099Y-98760641D01*
X105364868Y-98649737D01*
X104319605Y-99695000D01*
X103960395Y-99695000D01*
X102915132Y-98649737D01*
X102637901Y-98760641D01*
X102394677Y-99406593D01*
X101650000Y-99406593D01*
X101650000Y-98470132D01*
X103094737Y-98470132D01*
X104140000Y-99515395D01*
X105185263Y-98470132D01*
X108174737Y-98470132D01*
X109220000Y-99515395D01*
X110265263Y-98470132D01*
X110154359Y-98192901D01*
X109508407Y-97949677D01*
X108818547Y-97972164D01*
X108285641Y-98192901D01*
X108174737Y-98470132D01*
X105185263Y-98470132D01*
X105074359Y-98192901D01*
X104428407Y-97949677D01*
X103738547Y-97972164D01*
X103205641Y-98192901D01*
X103094737Y-98470132D01*
X101650000Y-98470132D01*
X101650000Y-66522226D01*
X104244579Y-66522226D01*
X104614504Y-67417514D01*
X105298883Y-68103088D01*
X106193524Y-68474576D01*
X107162226Y-68475421D01*
X108057514Y-68105496D01*
X108743088Y-67421117D01*
X109114576Y-66526476D01*
X109114579Y-66522226D01*
X110594579Y-66522226D01*
X110964504Y-67417514D01*
X111648883Y-68103088D01*
X112543524Y-68474576D01*
X113512226Y-68475421D01*
X114407514Y-68105496D01*
X115093088Y-67421117D01*
X115464576Y-66526476D01*
X115464579Y-66522226D01*
X123294579Y-66522226D01*
X123664504Y-67417514D01*
X124348883Y-68103088D01*
X125243524Y-68474576D01*
X126212226Y-68475421D01*
X127107514Y-68105496D01*
X127442964Y-67770630D01*
X130528975Y-67770630D01*
X130725358Y-68120569D01*
X131624673Y-68480594D01*
X132593308Y-68469061D01*
X133434642Y-68120569D01*
X133631025Y-67770630D01*
X132080000Y-66219605D01*
X130528975Y-67770630D01*
X127442964Y-67770630D01*
X127793088Y-67421117D01*
X128164576Y-66526476D01*
X128165397Y-65584673D01*
X129639406Y-65584673D01*
X129650939Y-66553308D01*
X129999431Y-67394642D01*
X130349370Y-67591025D01*
X131900395Y-66040000D01*
X132259605Y-66040000D01*
X133810630Y-67591025D01*
X134160569Y-67394642D01*
X134520594Y-66495327D01*
X134509061Y-65526692D01*
X134160569Y-64685358D01*
X133810630Y-64488975D01*
X132259605Y-66040000D01*
X131900395Y-66040000D01*
X130349370Y-64488975D01*
X129999431Y-64685358D01*
X129639406Y-65584673D01*
X128165397Y-65584673D01*
X128165421Y-65557774D01*
X127795496Y-64662486D01*
X127442996Y-64309370D01*
X130528975Y-64309370D01*
X132080000Y-65860395D01*
X133631025Y-64309370D01*
X133434642Y-63959431D01*
X132535327Y-63599406D01*
X131566692Y-63610939D01*
X130725358Y-63959431D01*
X130528975Y-64309370D01*
X127442996Y-64309370D01*
X127111117Y-63976912D01*
X126216476Y-63605424D01*
X125247774Y-63604579D01*
X124352486Y-63974504D01*
X123666912Y-64658883D01*
X123295424Y-65553524D01*
X123294579Y-66522226D01*
X115464579Y-66522226D01*
X115465421Y-65557774D01*
X115095496Y-64662486D01*
X114411117Y-63976912D01*
X113516476Y-63605424D01*
X112547774Y-63604579D01*
X111652486Y-63974504D01*
X110966912Y-64658883D01*
X110595424Y-65553524D01*
X110594579Y-66522226D01*
X109114579Y-66522226D01*
X109115421Y-65557774D01*
X108745496Y-64662486D01*
X108061117Y-63976912D01*
X107166476Y-63605424D01*
X106197774Y-63604579D01*
X105302486Y-63974504D01*
X104616912Y-64658883D01*
X104245424Y-65553524D01*
X104244579Y-66522226D01*
X101650000Y-66522226D01*
X101650000Y-47213502D01*
X102344249Y-47213502D01*
X103002823Y-48807372D01*
X104221213Y-50027892D01*
X105813932Y-50689246D01*
X107538502Y-50690751D01*
X109132372Y-50032177D01*
X110352892Y-48813787D01*
X111014246Y-47221068D01*
X111014252Y-47213502D01*
X130919249Y-47213502D01*
X131577823Y-48807372D01*
X132796213Y-50027892D01*
X134388932Y-50689246D01*
X136113502Y-50690751D01*
X137707372Y-50032177D01*
X138927892Y-48813787D01*
X139589246Y-47221068D01*
X139590751Y-45496498D01*
X138932177Y-43902628D01*
X137713787Y-42682108D01*
X136121068Y-42020754D01*
X134396498Y-42019249D01*
X132802628Y-42677823D01*
X131582108Y-43896213D01*
X130920754Y-45488932D01*
X130919249Y-47213502D01*
X111014252Y-47213502D01*
X111015751Y-45496498D01*
X110357177Y-43902628D01*
X109138787Y-42682108D01*
X107546068Y-42020754D01*
X105821498Y-42019249D01*
X104227628Y-42677823D01*
X103007108Y-43896213D01*
X102345754Y-45488932D01*
X102344249Y-47213502D01*
X101650000Y-47213502D01*
X101650000Y-41325000D01*
X140208000Y-41325000D01*
X140208000Y-92710000D01*
M02*
