G04 #@! TF.FileFunction,Legend,Top*
%FSLAX46Y46*%
G04 Gerber Fmt 4.6, Leading zero omitted, Abs format (unit mm)*
G04 Created by KiCad (PCBNEW 4.0.6) date Friday, July 21, 2017 'PMt' 04:29:49 PM*
%MOMM*%
%LPD*%
G01*
G04 APERTURE LIST*
%ADD10C,0.100000*%
%ADD11C,0.203200*%
%ADD12C,0.120000*%
%ADD13C,0.150000*%
%ADD14C,0.152400*%
G04 APERTURE END LIST*
D10*
D11*
X152230000Y-71420000D02*
X152230000Y-70820000D01*
X152630000Y-71420000D02*
X152130000Y-71420000D01*
X152630000Y-71420000D02*
X152630000Y-70820000D01*
X152630000Y-70820000D02*
X152130000Y-70820000D01*
X151330000Y-71120000D02*
G75*
G03X151330000Y-71120000I-200000J0D01*
G01*
X152130000Y-71120000D02*
G75*
G03X152130000Y-71120000I-1000000J0D01*
G01*
X149530000Y-70120000D02*
G75*
G03X149530000Y-70120000I-200000J0D01*
G01*
X149830000Y-69820000D02*
X149830000Y-72420000D01*
X149830000Y-72420000D02*
X152430000Y-72420000D01*
X152430000Y-72420000D02*
X152430000Y-69820000D01*
X152430000Y-69820000D02*
X149830000Y-69820000D01*
X150960000Y-104440000D02*
X150960000Y-103840000D01*
X151360000Y-104440000D02*
X150860000Y-104440000D01*
X151360000Y-104440000D02*
X151360000Y-103840000D01*
X151360000Y-103840000D02*
X150860000Y-103840000D01*
X150060000Y-104140000D02*
G75*
G03X150060000Y-104140000I-200000J0D01*
G01*
X150860000Y-104140000D02*
G75*
G03X150860000Y-104140000I-1000000J0D01*
G01*
X148260000Y-103140000D02*
G75*
G03X148260000Y-103140000I-200000J0D01*
G01*
X148560000Y-102840000D02*
X148560000Y-105440000D01*
X148560000Y-105440000D02*
X151160000Y-105440000D01*
X151160000Y-105440000D02*
X151160000Y-102840000D01*
X151160000Y-102840000D02*
X148560000Y-102840000D01*
D12*
X186090000Y-78455000D02*
X186090000Y-77755000D01*
X187290000Y-77755000D02*
X187290000Y-78455000D01*
X189265000Y-61945000D02*
X189265000Y-61245000D01*
X190465000Y-61245000D02*
X190465000Y-61945000D01*
X194339941Y-70412021D02*
X194339941Y-71112021D01*
X193139941Y-71112021D02*
X193139941Y-70412021D01*
X181325000Y-59020000D02*
X180625000Y-59020000D01*
X180625000Y-57820000D02*
X181325000Y-57820000D01*
X181325000Y-63465000D02*
X180625000Y-63465000D01*
X180625000Y-62265000D02*
X181325000Y-62265000D01*
X166335000Y-72040000D02*
X166335000Y-72740000D01*
X165135000Y-72740000D02*
X165135000Y-72040000D01*
X175225000Y-72040000D02*
X175225000Y-72740000D01*
X174025000Y-72740000D02*
X174025000Y-72040000D01*
X173390000Y-52420000D02*
X173390000Y-51720000D01*
X174590000Y-51720000D02*
X174590000Y-52420000D01*
X179740000Y-52420000D02*
X179740000Y-51720000D01*
X180940000Y-51720000D02*
X180940000Y-52420000D01*
X168945000Y-128620000D02*
X168945000Y-127920000D01*
X170145000Y-127920000D02*
X170145000Y-128620000D01*
X175295000Y-128620000D02*
X175295000Y-127920000D01*
X176495000Y-127920000D02*
X176495000Y-128620000D01*
X155540000Y-97440000D02*
X155540000Y-98140000D01*
X154340000Y-98140000D02*
X154340000Y-97440000D01*
X154340000Y-101950000D02*
X154340000Y-101250000D01*
X155540000Y-101250000D02*
X155540000Y-101950000D01*
X162210000Y-93380000D02*
X162910000Y-93380000D01*
X162910000Y-94580000D02*
X162210000Y-94580000D01*
X159100000Y-98390000D02*
X158400000Y-98390000D01*
X158400000Y-97190000D02*
X159100000Y-97190000D01*
X159100000Y-100930000D02*
X158400000Y-100930000D01*
X158400000Y-99730000D02*
X159100000Y-99730000D01*
X162210000Y-103540000D02*
X162910000Y-103540000D01*
X162910000Y-104740000D02*
X162210000Y-104740000D01*
X155540000Y-81245000D02*
X155540000Y-81945000D01*
X154340000Y-81945000D02*
X154340000Y-81245000D01*
X154340000Y-86395000D02*
X154340000Y-85695000D01*
X155540000Y-85695000D02*
X155540000Y-86395000D01*
X162530000Y-77505000D02*
X163230000Y-77505000D01*
X163230000Y-78705000D02*
X162530000Y-78705000D01*
X159420000Y-82515000D02*
X158720000Y-82515000D01*
X158720000Y-81315000D02*
X159420000Y-81315000D01*
X159420000Y-85055000D02*
X158720000Y-85055000D01*
X158720000Y-83855000D02*
X159420000Y-83855000D01*
X161890000Y-87665000D02*
X162590000Y-87665000D01*
X162590000Y-88865000D02*
X161890000Y-88865000D01*
X169700000Y-48050000D02*
X169700000Y-45930000D01*
X169700000Y-45930000D02*
X165580000Y-45930000D01*
X165580000Y-45930000D02*
X165580000Y-48050000D01*
X165580000Y-48050000D02*
X169700000Y-48050000D01*
X173010000Y-46990000D02*
X169700000Y-46990000D01*
X162270000Y-46990000D02*
X165580000Y-46990000D01*
X169040000Y-48050000D02*
X169040000Y-45930000D01*
X165255000Y-124250000D02*
X165255000Y-122130000D01*
X165255000Y-122130000D02*
X161135000Y-122130000D01*
X161135000Y-122130000D02*
X161135000Y-124250000D01*
X161135000Y-124250000D02*
X165255000Y-124250000D01*
X168565000Y-123190000D02*
X165255000Y-123190000D01*
X157825000Y-123190000D02*
X161135000Y-123190000D01*
X164595000Y-124250000D02*
X164595000Y-122130000D01*
X105680000Y-98935000D02*
X107680000Y-98935000D01*
X105680000Y-105535000D02*
X107680000Y-105535000D01*
X109980000Y-101235000D02*
X109980000Y-103235000D01*
X103380000Y-101235000D02*
X103380000Y-103235000D01*
X105680000Y-125605000D02*
X107680000Y-125605000D01*
X105680000Y-132205000D02*
X107680000Y-132205000D01*
X109980000Y-127905000D02*
X109980000Y-129905000D01*
X103380000Y-127905000D02*
X103380000Y-129905000D01*
X190925000Y-89110000D02*
X188805000Y-89110000D01*
X190925000Y-107170000D02*
X190925000Y-89110000D01*
X188805000Y-107170000D02*
X188805000Y-89110000D01*
X190925000Y-107170000D02*
X188805000Y-107170000D01*
X190925000Y-108170000D02*
X190925000Y-109230000D01*
X190925000Y-109230000D02*
X189865000Y-109230000D01*
X191789941Y-77442021D02*
X191789941Y-76442021D01*
X193149941Y-76442021D02*
X193149941Y-77442021D01*
X195600000Y-74885000D02*
X196600000Y-74885000D01*
X196600000Y-76245000D02*
X195600000Y-76245000D01*
X184814941Y-72622021D02*
X185814941Y-72622021D01*
X185814941Y-73982021D02*
X184814941Y-73982021D01*
X190545000Y-66175000D02*
X190545000Y-67175000D01*
X189185000Y-67175000D02*
X189185000Y-66175000D01*
X186100000Y-66175000D02*
X186100000Y-67175000D01*
X184740000Y-67175000D02*
X184740000Y-66175000D01*
X184740000Y-62095000D02*
X184740000Y-61095000D01*
X186100000Y-61095000D02*
X186100000Y-62095000D01*
X169500000Y-72890000D02*
X169500000Y-71890000D01*
X170860000Y-71890000D02*
X170860000Y-72890000D01*
X179570000Y-73070000D02*
X178570000Y-73070000D01*
X178570000Y-71710000D02*
X179570000Y-71710000D01*
X161970000Y-51570000D02*
X161970000Y-52570000D01*
X160610000Y-52570000D02*
X160610000Y-51570000D01*
X178570000Y-46310000D02*
X179570000Y-46310000D01*
X179570000Y-47670000D02*
X178570000Y-47670000D01*
X157525000Y-127770000D02*
X157525000Y-128770000D01*
X156165000Y-128770000D02*
X156165000Y-127770000D01*
X174125000Y-122510000D02*
X175125000Y-122510000D01*
X175125000Y-123870000D02*
X174125000Y-123870000D01*
X166970000Y-93300000D02*
X167970000Y-93300000D01*
X167970000Y-94660000D02*
X166970000Y-94660000D01*
X167970000Y-104820000D02*
X166970000Y-104820000D01*
X166970000Y-103460000D02*
X167970000Y-103460000D01*
X166970000Y-77425000D02*
X167970000Y-77425000D01*
X167970000Y-78785000D02*
X166970000Y-78785000D01*
X167970000Y-88945000D02*
X166970000Y-88945000D01*
X166970000Y-87585000D02*
X167970000Y-87585000D01*
X148260000Y-56470000D02*
X149260000Y-56470000D01*
X149260000Y-57830000D02*
X148260000Y-57830000D01*
X154440000Y-53930000D02*
X155440000Y-53930000D01*
X155440000Y-55290000D02*
X154440000Y-55290000D01*
X154440000Y-60280000D02*
X155440000Y-60280000D01*
X155440000Y-61640000D02*
X154440000Y-61640000D01*
X159430000Y-65075000D02*
X159430000Y-66075000D01*
X158070000Y-66075000D02*
X158070000Y-65075000D01*
X161425000Y-60280000D02*
X162425000Y-60280000D01*
X162425000Y-61640000D02*
X161425000Y-61640000D01*
X165780000Y-65075000D02*
X165780000Y-66075000D01*
X164420000Y-66075000D02*
X164420000Y-65075000D01*
X169045000Y-60280000D02*
X170045000Y-60280000D01*
X170045000Y-61640000D02*
X169045000Y-61640000D01*
X174125000Y-64090000D02*
X175125000Y-64090000D01*
X175125000Y-65450000D02*
X174125000Y-65450000D01*
X174125000Y-57740000D02*
X175125000Y-57740000D01*
X175125000Y-59100000D02*
X174125000Y-59100000D01*
X146820000Y-116160000D02*
X147820000Y-116160000D01*
X147820000Y-117520000D02*
X146820000Y-117520000D01*
X151900000Y-122510000D02*
X152900000Y-122510000D01*
X152900000Y-123870000D02*
X151900000Y-123870000D01*
X151900000Y-111080000D02*
X152900000Y-111080000D01*
X152900000Y-112440000D02*
X151900000Y-112440000D01*
X158160000Y-116340000D02*
X158160000Y-117340000D01*
X156800000Y-117340000D02*
X156800000Y-116340000D01*
X159520000Y-111080000D02*
X160520000Y-111080000D01*
X160520000Y-112440000D02*
X159520000Y-112440000D01*
X163240000Y-116340000D02*
X163240000Y-117340000D01*
X161880000Y-117340000D02*
X161880000Y-116340000D01*
X167140000Y-111080000D02*
X168140000Y-111080000D01*
X168140000Y-112440000D02*
X167140000Y-112440000D01*
X172220000Y-108540000D02*
X173220000Y-108540000D01*
X173220000Y-109900000D02*
X172220000Y-109900000D01*
X172220000Y-113620000D02*
X173220000Y-113620000D01*
X173220000Y-114980000D02*
X172220000Y-114980000D01*
X102810000Y-106620000D02*
X138490000Y-106620000D01*
X102810000Y-124520000D02*
X138490000Y-124520000D01*
X102810000Y-106620000D02*
X102810000Y-124520000D01*
X138490000Y-106620000D02*
X138490000Y-124520000D01*
X110430000Y-83880000D02*
X110430000Y-48200000D01*
X128330000Y-83880000D02*
X128330000Y-48200000D01*
X110430000Y-83880000D02*
X128330000Y-83880000D01*
X110430000Y-48200000D02*
X128330000Y-48200000D01*
X190659941Y-72007021D02*
X188859941Y-72007021D01*
X188859941Y-75227021D02*
X191309941Y-75227021D01*
D13*
X164045000Y-96435000D02*
X164045000Y-96560000D01*
X168695000Y-96435000D02*
X168695000Y-96660000D01*
X168695000Y-101685000D02*
X168695000Y-101460000D01*
X164045000Y-101685000D02*
X164045000Y-101460000D01*
X164045000Y-96435000D02*
X168695000Y-96435000D01*
X164045000Y-101685000D02*
X168695000Y-101685000D01*
X164045000Y-96560000D02*
X162695000Y-96560000D01*
X164045000Y-80560000D02*
X164045000Y-80685000D01*
X168695000Y-80560000D02*
X168695000Y-80785000D01*
X168695000Y-85810000D02*
X168695000Y-85585000D01*
X164045000Y-85810000D02*
X164045000Y-85585000D01*
X164045000Y-80560000D02*
X168695000Y-80560000D01*
X164045000Y-85810000D02*
X168695000Y-85810000D01*
X164045000Y-80685000D02*
X162695000Y-80685000D01*
D12*
X141740000Y-103460000D02*
X142740000Y-103460000D01*
X142740000Y-104820000D02*
X141740000Y-104820000D01*
X141740000Y-70440000D02*
X142740000Y-70440000D01*
X142740000Y-71800000D02*
X141740000Y-71800000D01*
D14*
X150876001Y-73242714D02*
X150876001Y-73787000D01*
X150839715Y-73895857D01*
X150767144Y-73968429D01*
X150658287Y-74004714D01*
X150585715Y-74004714D01*
X151565429Y-73496714D02*
X151565429Y-74004714D01*
X151384000Y-73206429D02*
X151202572Y-73750714D01*
X151674286Y-73750714D01*
X149606001Y-106262714D02*
X149606001Y-106807000D01*
X149569715Y-106915857D01*
X149497144Y-106988429D01*
X149388287Y-107024714D01*
X149315715Y-107024714D01*
X150331715Y-106262714D02*
X149968858Y-106262714D01*
X149932572Y-106625571D01*
X149968858Y-106589286D01*
X150041429Y-106553000D01*
X150222858Y-106553000D01*
X150295429Y-106589286D01*
X150331715Y-106625571D01*
X150368000Y-106698143D01*
X150368000Y-106879571D01*
X150331715Y-106952143D01*
X150295429Y-106988429D01*
X150222858Y-107024714D01*
X150041429Y-107024714D01*
X149968858Y-106988429D01*
X149932572Y-106952143D01*
D13*
X185797143Y-78271666D02*
X185844762Y-78319285D01*
X185892381Y-78462142D01*
X185892381Y-78557380D01*
X185844762Y-78700238D01*
X185749524Y-78795476D01*
X185654286Y-78843095D01*
X185463810Y-78890714D01*
X185320952Y-78890714D01*
X185130476Y-78843095D01*
X185035238Y-78795476D01*
X184940000Y-78700238D01*
X184892381Y-78557380D01*
X184892381Y-78462142D01*
X184940000Y-78319285D01*
X184987619Y-78271666D01*
X185892381Y-77319285D02*
X185892381Y-77890714D01*
X185892381Y-77605000D02*
X184892381Y-77605000D01*
X185035238Y-77700238D01*
X185130476Y-77795476D01*
X185178095Y-77890714D01*
X188972143Y-61761666D02*
X189019762Y-61809285D01*
X189067381Y-61952142D01*
X189067381Y-62047380D01*
X189019762Y-62190238D01*
X188924524Y-62285476D01*
X188829286Y-62333095D01*
X188638810Y-62380714D01*
X188495952Y-62380714D01*
X188305476Y-62333095D01*
X188210238Y-62285476D01*
X188115000Y-62190238D01*
X188067381Y-62047380D01*
X188067381Y-61952142D01*
X188115000Y-61809285D01*
X188162619Y-61761666D01*
X188162619Y-61380714D02*
X188115000Y-61333095D01*
X188067381Y-61237857D01*
X188067381Y-60999761D01*
X188115000Y-60904523D01*
X188162619Y-60856904D01*
X188257857Y-60809285D01*
X188353095Y-60809285D01*
X188495952Y-60856904D01*
X189067381Y-61428333D01*
X189067381Y-60809285D01*
X195347084Y-70928687D02*
X195394703Y-70976306D01*
X195442322Y-71119163D01*
X195442322Y-71214401D01*
X195394703Y-71357259D01*
X195299465Y-71452497D01*
X195204227Y-71500116D01*
X195013751Y-71547735D01*
X194870893Y-71547735D01*
X194680417Y-71500116D01*
X194585179Y-71452497D01*
X194489941Y-71357259D01*
X194442322Y-71214401D01*
X194442322Y-71119163D01*
X194489941Y-70976306D01*
X194537560Y-70928687D01*
X194442322Y-70595354D02*
X194442322Y-69976306D01*
X194823274Y-70309640D01*
X194823274Y-70166782D01*
X194870893Y-70071544D01*
X194918512Y-70023925D01*
X195013751Y-69976306D01*
X195251846Y-69976306D01*
X195347084Y-70023925D01*
X195394703Y-70071544D01*
X195442322Y-70166782D01*
X195442322Y-70452497D01*
X195394703Y-70547735D01*
X195347084Y-70595354D01*
X180808334Y-60027143D02*
X180760715Y-60074762D01*
X180617858Y-60122381D01*
X180522620Y-60122381D01*
X180379762Y-60074762D01*
X180284524Y-59979524D01*
X180236905Y-59884286D01*
X180189286Y-59693810D01*
X180189286Y-59550952D01*
X180236905Y-59360476D01*
X180284524Y-59265238D01*
X180379762Y-59170000D01*
X180522620Y-59122381D01*
X180617858Y-59122381D01*
X180760715Y-59170000D01*
X180808334Y-59217619D01*
X181665477Y-59455714D02*
X181665477Y-60122381D01*
X181427381Y-59074762D02*
X181189286Y-59789048D01*
X181808334Y-59789048D01*
X180808334Y-64472143D02*
X180760715Y-64519762D01*
X180617858Y-64567381D01*
X180522620Y-64567381D01*
X180379762Y-64519762D01*
X180284524Y-64424524D01*
X180236905Y-64329286D01*
X180189286Y-64138810D01*
X180189286Y-63995952D01*
X180236905Y-63805476D01*
X180284524Y-63710238D01*
X180379762Y-63615000D01*
X180522620Y-63567381D01*
X180617858Y-63567381D01*
X180760715Y-63615000D01*
X180808334Y-63662619D01*
X181713096Y-63567381D02*
X181236905Y-63567381D01*
X181189286Y-64043571D01*
X181236905Y-63995952D01*
X181332143Y-63948333D01*
X181570239Y-63948333D01*
X181665477Y-63995952D01*
X181713096Y-64043571D01*
X181760715Y-64138810D01*
X181760715Y-64376905D01*
X181713096Y-64472143D01*
X181665477Y-64519762D01*
X181570239Y-64567381D01*
X181332143Y-64567381D01*
X181236905Y-64519762D01*
X181189286Y-64472143D01*
X167342143Y-72556666D02*
X167389762Y-72604285D01*
X167437381Y-72747142D01*
X167437381Y-72842380D01*
X167389762Y-72985238D01*
X167294524Y-73080476D01*
X167199286Y-73128095D01*
X167008810Y-73175714D01*
X166865952Y-73175714D01*
X166675476Y-73128095D01*
X166580238Y-73080476D01*
X166485000Y-72985238D01*
X166437381Y-72842380D01*
X166437381Y-72747142D01*
X166485000Y-72604285D01*
X166532619Y-72556666D01*
X166437381Y-71699523D02*
X166437381Y-71890000D01*
X166485000Y-71985238D01*
X166532619Y-72032857D01*
X166675476Y-72128095D01*
X166865952Y-72175714D01*
X167246905Y-72175714D01*
X167342143Y-72128095D01*
X167389762Y-72080476D01*
X167437381Y-71985238D01*
X167437381Y-71794761D01*
X167389762Y-71699523D01*
X167342143Y-71651904D01*
X167246905Y-71604285D01*
X167008810Y-71604285D01*
X166913571Y-71651904D01*
X166865952Y-71699523D01*
X166818333Y-71794761D01*
X166818333Y-71985238D01*
X166865952Y-72080476D01*
X166913571Y-72128095D01*
X167008810Y-72175714D01*
X176232143Y-72556666D02*
X176279762Y-72604285D01*
X176327381Y-72747142D01*
X176327381Y-72842380D01*
X176279762Y-72985238D01*
X176184524Y-73080476D01*
X176089286Y-73128095D01*
X175898810Y-73175714D01*
X175755952Y-73175714D01*
X175565476Y-73128095D01*
X175470238Y-73080476D01*
X175375000Y-72985238D01*
X175327381Y-72842380D01*
X175327381Y-72747142D01*
X175375000Y-72604285D01*
X175422619Y-72556666D01*
X175327381Y-72223333D02*
X175327381Y-71556666D01*
X176327381Y-71985238D01*
X173097143Y-52236666D02*
X173144762Y-52284285D01*
X173192381Y-52427142D01*
X173192381Y-52522380D01*
X173144762Y-52665238D01*
X173049524Y-52760476D01*
X172954286Y-52808095D01*
X172763810Y-52855714D01*
X172620952Y-52855714D01*
X172430476Y-52808095D01*
X172335238Y-52760476D01*
X172240000Y-52665238D01*
X172192381Y-52522380D01*
X172192381Y-52427142D01*
X172240000Y-52284285D01*
X172287619Y-52236666D01*
X172620952Y-51665238D02*
X172573333Y-51760476D01*
X172525714Y-51808095D01*
X172430476Y-51855714D01*
X172382857Y-51855714D01*
X172287619Y-51808095D01*
X172240000Y-51760476D01*
X172192381Y-51665238D01*
X172192381Y-51474761D01*
X172240000Y-51379523D01*
X172287619Y-51331904D01*
X172382857Y-51284285D01*
X172430476Y-51284285D01*
X172525714Y-51331904D01*
X172573333Y-51379523D01*
X172620952Y-51474761D01*
X172620952Y-51665238D01*
X172668571Y-51760476D01*
X172716190Y-51808095D01*
X172811429Y-51855714D01*
X173001905Y-51855714D01*
X173097143Y-51808095D01*
X173144762Y-51760476D01*
X173192381Y-51665238D01*
X173192381Y-51474761D01*
X173144762Y-51379523D01*
X173097143Y-51331904D01*
X173001905Y-51284285D01*
X172811429Y-51284285D01*
X172716190Y-51331904D01*
X172668571Y-51379523D01*
X172620952Y-51474761D01*
X179447143Y-52236666D02*
X179494762Y-52284285D01*
X179542381Y-52427142D01*
X179542381Y-52522380D01*
X179494762Y-52665238D01*
X179399524Y-52760476D01*
X179304286Y-52808095D01*
X179113810Y-52855714D01*
X178970952Y-52855714D01*
X178780476Y-52808095D01*
X178685238Y-52760476D01*
X178590000Y-52665238D01*
X178542381Y-52522380D01*
X178542381Y-52427142D01*
X178590000Y-52284285D01*
X178637619Y-52236666D01*
X179542381Y-51760476D02*
X179542381Y-51570000D01*
X179494762Y-51474761D01*
X179447143Y-51427142D01*
X179304286Y-51331904D01*
X179113810Y-51284285D01*
X178732857Y-51284285D01*
X178637619Y-51331904D01*
X178590000Y-51379523D01*
X178542381Y-51474761D01*
X178542381Y-51665238D01*
X178590000Y-51760476D01*
X178637619Y-51808095D01*
X178732857Y-51855714D01*
X178970952Y-51855714D01*
X179066190Y-51808095D01*
X179113810Y-51760476D01*
X179161429Y-51665238D01*
X179161429Y-51474761D01*
X179113810Y-51379523D01*
X179066190Y-51331904D01*
X178970952Y-51284285D01*
X168652143Y-128912857D02*
X168699762Y-128960476D01*
X168747381Y-129103333D01*
X168747381Y-129198571D01*
X168699762Y-129341429D01*
X168604524Y-129436667D01*
X168509286Y-129484286D01*
X168318810Y-129531905D01*
X168175952Y-129531905D01*
X167985476Y-129484286D01*
X167890238Y-129436667D01*
X167795000Y-129341429D01*
X167747381Y-129198571D01*
X167747381Y-129103333D01*
X167795000Y-128960476D01*
X167842619Y-128912857D01*
X168747381Y-127960476D02*
X168747381Y-128531905D01*
X168747381Y-128246191D02*
X167747381Y-128246191D01*
X167890238Y-128341429D01*
X167985476Y-128436667D01*
X168033095Y-128531905D01*
X167747381Y-127341429D02*
X167747381Y-127246190D01*
X167795000Y-127150952D01*
X167842619Y-127103333D01*
X167937857Y-127055714D01*
X168128333Y-127008095D01*
X168366429Y-127008095D01*
X168556905Y-127055714D01*
X168652143Y-127103333D01*
X168699762Y-127150952D01*
X168747381Y-127246190D01*
X168747381Y-127341429D01*
X168699762Y-127436667D01*
X168652143Y-127484286D01*
X168556905Y-127531905D01*
X168366429Y-127579524D01*
X168128333Y-127579524D01*
X167937857Y-127531905D01*
X167842619Y-127484286D01*
X167795000Y-127436667D01*
X167747381Y-127341429D01*
X175002143Y-128912857D02*
X175049762Y-128960476D01*
X175097381Y-129103333D01*
X175097381Y-129198571D01*
X175049762Y-129341429D01*
X174954524Y-129436667D01*
X174859286Y-129484286D01*
X174668810Y-129531905D01*
X174525952Y-129531905D01*
X174335476Y-129484286D01*
X174240238Y-129436667D01*
X174145000Y-129341429D01*
X174097381Y-129198571D01*
X174097381Y-129103333D01*
X174145000Y-128960476D01*
X174192619Y-128912857D01*
X175097381Y-127960476D02*
X175097381Y-128531905D01*
X175097381Y-128246191D02*
X174097381Y-128246191D01*
X174240238Y-128341429D01*
X174335476Y-128436667D01*
X174383095Y-128531905D01*
X175097381Y-127008095D02*
X175097381Y-127579524D01*
X175097381Y-127293810D02*
X174097381Y-127293810D01*
X174240238Y-127389048D01*
X174335476Y-127484286D01*
X174383095Y-127579524D01*
X155297143Y-94622857D02*
X155344762Y-94670476D01*
X155392381Y-94813333D01*
X155392381Y-94908571D01*
X155344762Y-95051429D01*
X155249524Y-95146667D01*
X155154286Y-95194286D01*
X154963810Y-95241905D01*
X154820952Y-95241905D01*
X154630476Y-95194286D01*
X154535238Y-95146667D01*
X154440000Y-95051429D01*
X154392381Y-94908571D01*
X154392381Y-94813333D01*
X154440000Y-94670476D01*
X154487619Y-94622857D01*
X155392381Y-93670476D02*
X155392381Y-94241905D01*
X155392381Y-93956191D02*
X154392381Y-93956191D01*
X154535238Y-94051429D01*
X154630476Y-94146667D01*
X154678095Y-94241905D01*
X154487619Y-93289524D02*
X154440000Y-93241905D01*
X154392381Y-93146667D01*
X154392381Y-92908571D01*
X154440000Y-92813333D01*
X154487619Y-92765714D01*
X154582857Y-92718095D01*
X154678095Y-92718095D01*
X154820952Y-92765714D01*
X155392381Y-93337143D01*
X155392381Y-92718095D01*
X155297143Y-106052857D02*
X155344762Y-106100476D01*
X155392381Y-106243333D01*
X155392381Y-106338571D01*
X155344762Y-106481429D01*
X155249524Y-106576667D01*
X155154286Y-106624286D01*
X154963810Y-106671905D01*
X154820952Y-106671905D01*
X154630476Y-106624286D01*
X154535238Y-106576667D01*
X154440000Y-106481429D01*
X154392381Y-106338571D01*
X154392381Y-106243333D01*
X154440000Y-106100476D01*
X154487619Y-106052857D01*
X155392381Y-105100476D02*
X155392381Y-105671905D01*
X155392381Y-105386191D02*
X154392381Y-105386191D01*
X154535238Y-105481429D01*
X154630476Y-105576667D01*
X154678095Y-105671905D01*
X154392381Y-104767143D02*
X154392381Y-104148095D01*
X154773333Y-104481429D01*
X154773333Y-104338571D01*
X154820952Y-104243333D01*
X154868571Y-104195714D01*
X154963810Y-104148095D01*
X155201905Y-104148095D01*
X155297143Y-104195714D01*
X155344762Y-104243333D01*
X155392381Y-104338571D01*
X155392381Y-104624286D01*
X155344762Y-104719524D01*
X155297143Y-104767143D01*
X161917143Y-93087143D02*
X161869524Y-93134762D01*
X161726667Y-93182381D01*
X161631429Y-93182381D01*
X161488571Y-93134762D01*
X161393333Y-93039524D01*
X161345714Y-92944286D01*
X161298095Y-92753810D01*
X161298095Y-92610952D01*
X161345714Y-92420476D01*
X161393333Y-92325238D01*
X161488571Y-92230000D01*
X161631429Y-92182381D01*
X161726667Y-92182381D01*
X161869524Y-92230000D01*
X161917143Y-92277619D01*
X162869524Y-93182381D02*
X162298095Y-93182381D01*
X162583809Y-93182381D02*
X162583809Y-92182381D01*
X162488571Y-92325238D01*
X162393333Y-92420476D01*
X162298095Y-92468095D01*
X163726667Y-92515714D02*
X163726667Y-93182381D01*
X163488571Y-92134762D02*
X163250476Y-92849048D01*
X163869524Y-92849048D01*
X158107143Y-96877143D02*
X158059524Y-96924762D01*
X157916667Y-96972381D01*
X157821429Y-96972381D01*
X157678571Y-96924762D01*
X157583333Y-96829524D01*
X157535714Y-96734286D01*
X157488095Y-96543810D01*
X157488095Y-96400952D01*
X157535714Y-96210476D01*
X157583333Y-96115238D01*
X157678571Y-96020000D01*
X157821429Y-95972381D01*
X157916667Y-95972381D01*
X158059524Y-96020000D01*
X158107143Y-96067619D01*
X159059524Y-96972381D02*
X158488095Y-96972381D01*
X158773809Y-96972381D02*
X158773809Y-95972381D01*
X158678571Y-96115238D01*
X158583333Y-96210476D01*
X158488095Y-96258095D01*
X159964286Y-95972381D02*
X159488095Y-95972381D01*
X159440476Y-96448571D01*
X159488095Y-96400952D01*
X159583333Y-96353333D01*
X159821429Y-96353333D01*
X159916667Y-96400952D01*
X159964286Y-96448571D01*
X160011905Y-96543810D01*
X160011905Y-96781905D01*
X159964286Y-96877143D01*
X159916667Y-96924762D01*
X159821429Y-96972381D01*
X159583333Y-96972381D01*
X159488095Y-96924762D01*
X159440476Y-96877143D01*
X158107143Y-101937143D02*
X158059524Y-101984762D01*
X157916667Y-102032381D01*
X157821429Y-102032381D01*
X157678571Y-101984762D01*
X157583333Y-101889524D01*
X157535714Y-101794286D01*
X157488095Y-101603810D01*
X157488095Y-101460952D01*
X157535714Y-101270476D01*
X157583333Y-101175238D01*
X157678571Y-101080000D01*
X157821429Y-101032381D01*
X157916667Y-101032381D01*
X158059524Y-101080000D01*
X158107143Y-101127619D01*
X159059524Y-102032381D02*
X158488095Y-102032381D01*
X158773809Y-102032381D02*
X158773809Y-101032381D01*
X158678571Y-101175238D01*
X158583333Y-101270476D01*
X158488095Y-101318095D01*
X159916667Y-101032381D02*
X159726190Y-101032381D01*
X159630952Y-101080000D01*
X159583333Y-101127619D01*
X159488095Y-101270476D01*
X159440476Y-101460952D01*
X159440476Y-101841905D01*
X159488095Y-101937143D01*
X159535714Y-101984762D01*
X159630952Y-102032381D01*
X159821429Y-102032381D01*
X159916667Y-101984762D01*
X159964286Y-101937143D01*
X160011905Y-101841905D01*
X160011905Y-101603810D01*
X159964286Y-101508571D01*
X159916667Y-101460952D01*
X159821429Y-101413333D01*
X159630952Y-101413333D01*
X159535714Y-101460952D01*
X159488095Y-101508571D01*
X159440476Y-101603810D01*
X161917143Y-103247143D02*
X161869524Y-103294762D01*
X161726667Y-103342381D01*
X161631429Y-103342381D01*
X161488571Y-103294762D01*
X161393333Y-103199524D01*
X161345714Y-103104286D01*
X161298095Y-102913810D01*
X161298095Y-102770952D01*
X161345714Y-102580476D01*
X161393333Y-102485238D01*
X161488571Y-102390000D01*
X161631429Y-102342381D01*
X161726667Y-102342381D01*
X161869524Y-102390000D01*
X161917143Y-102437619D01*
X162869524Y-103342381D02*
X162298095Y-103342381D01*
X162583809Y-103342381D02*
X162583809Y-102342381D01*
X162488571Y-102485238D01*
X162393333Y-102580476D01*
X162298095Y-102628095D01*
X163202857Y-102342381D02*
X163869524Y-102342381D01*
X163440952Y-103342381D01*
X155297143Y-78747857D02*
X155344762Y-78795476D01*
X155392381Y-78938333D01*
X155392381Y-79033571D01*
X155344762Y-79176429D01*
X155249524Y-79271667D01*
X155154286Y-79319286D01*
X154963810Y-79366905D01*
X154820952Y-79366905D01*
X154630476Y-79319286D01*
X154535238Y-79271667D01*
X154440000Y-79176429D01*
X154392381Y-79033571D01*
X154392381Y-78938333D01*
X154440000Y-78795476D01*
X154487619Y-78747857D01*
X155392381Y-77795476D02*
X155392381Y-78366905D01*
X155392381Y-78081191D02*
X154392381Y-78081191D01*
X154535238Y-78176429D01*
X154630476Y-78271667D01*
X154678095Y-78366905D01*
X154820952Y-77224048D02*
X154773333Y-77319286D01*
X154725714Y-77366905D01*
X154630476Y-77414524D01*
X154582857Y-77414524D01*
X154487619Y-77366905D01*
X154440000Y-77319286D01*
X154392381Y-77224048D01*
X154392381Y-77033571D01*
X154440000Y-76938333D01*
X154487619Y-76890714D01*
X154582857Y-76843095D01*
X154630476Y-76843095D01*
X154725714Y-76890714D01*
X154773333Y-76938333D01*
X154820952Y-77033571D01*
X154820952Y-77224048D01*
X154868571Y-77319286D01*
X154916190Y-77366905D01*
X155011429Y-77414524D01*
X155201905Y-77414524D01*
X155297143Y-77366905D01*
X155344762Y-77319286D01*
X155392381Y-77224048D01*
X155392381Y-77033571D01*
X155344762Y-76938333D01*
X155297143Y-76890714D01*
X155201905Y-76843095D01*
X155011429Y-76843095D01*
X154916190Y-76890714D01*
X154868571Y-76938333D01*
X154820952Y-77033571D01*
X155297143Y-90497857D02*
X155344762Y-90545476D01*
X155392381Y-90688333D01*
X155392381Y-90783571D01*
X155344762Y-90926429D01*
X155249524Y-91021667D01*
X155154286Y-91069286D01*
X154963810Y-91116905D01*
X154820952Y-91116905D01*
X154630476Y-91069286D01*
X154535238Y-91021667D01*
X154440000Y-90926429D01*
X154392381Y-90783571D01*
X154392381Y-90688333D01*
X154440000Y-90545476D01*
X154487619Y-90497857D01*
X155392381Y-89545476D02*
X155392381Y-90116905D01*
X155392381Y-89831191D02*
X154392381Y-89831191D01*
X154535238Y-89926429D01*
X154630476Y-90021667D01*
X154678095Y-90116905D01*
X155392381Y-89069286D02*
X155392381Y-88878810D01*
X155344762Y-88783571D01*
X155297143Y-88735952D01*
X155154286Y-88640714D01*
X154963810Y-88593095D01*
X154582857Y-88593095D01*
X154487619Y-88640714D01*
X154440000Y-88688333D01*
X154392381Y-88783571D01*
X154392381Y-88974048D01*
X154440000Y-89069286D01*
X154487619Y-89116905D01*
X154582857Y-89164524D01*
X154820952Y-89164524D01*
X154916190Y-89116905D01*
X154963810Y-89069286D01*
X155011429Y-88974048D01*
X155011429Y-88783571D01*
X154963810Y-88688333D01*
X154916190Y-88640714D01*
X154820952Y-88593095D01*
X162237143Y-77212143D02*
X162189524Y-77259762D01*
X162046667Y-77307381D01*
X161951429Y-77307381D01*
X161808571Y-77259762D01*
X161713333Y-77164524D01*
X161665714Y-77069286D01*
X161618095Y-76878810D01*
X161618095Y-76735952D01*
X161665714Y-76545476D01*
X161713333Y-76450238D01*
X161808571Y-76355000D01*
X161951429Y-76307381D01*
X162046667Y-76307381D01*
X162189524Y-76355000D01*
X162237143Y-76402619D01*
X162618095Y-76402619D02*
X162665714Y-76355000D01*
X162760952Y-76307381D01*
X162999048Y-76307381D01*
X163094286Y-76355000D01*
X163141905Y-76402619D01*
X163189524Y-76497857D01*
X163189524Y-76593095D01*
X163141905Y-76735952D01*
X162570476Y-77307381D01*
X163189524Y-77307381D01*
X163808571Y-76307381D02*
X163903810Y-76307381D01*
X163999048Y-76355000D01*
X164046667Y-76402619D01*
X164094286Y-76497857D01*
X164141905Y-76688333D01*
X164141905Y-76926429D01*
X164094286Y-77116905D01*
X164046667Y-77212143D01*
X163999048Y-77259762D01*
X163903810Y-77307381D01*
X163808571Y-77307381D01*
X163713333Y-77259762D01*
X163665714Y-77212143D01*
X163618095Y-77116905D01*
X163570476Y-76926429D01*
X163570476Y-76688333D01*
X163618095Y-76497857D01*
X163665714Y-76402619D01*
X163713333Y-76355000D01*
X163808571Y-76307381D01*
X158427143Y-81002143D02*
X158379524Y-81049762D01*
X158236667Y-81097381D01*
X158141429Y-81097381D01*
X157998571Y-81049762D01*
X157903333Y-80954524D01*
X157855714Y-80859286D01*
X157808095Y-80668810D01*
X157808095Y-80525952D01*
X157855714Y-80335476D01*
X157903333Y-80240238D01*
X157998571Y-80145000D01*
X158141429Y-80097381D01*
X158236667Y-80097381D01*
X158379524Y-80145000D01*
X158427143Y-80192619D01*
X158808095Y-80192619D02*
X158855714Y-80145000D01*
X158950952Y-80097381D01*
X159189048Y-80097381D01*
X159284286Y-80145000D01*
X159331905Y-80192619D01*
X159379524Y-80287857D01*
X159379524Y-80383095D01*
X159331905Y-80525952D01*
X158760476Y-81097381D01*
X159379524Y-81097381D01*
X160331905Y-81097381D02*
X159760476Y-81097381D01*
X160046190Y-81097381D02*
X160046190Y-80097381D01*
X159950952Y-80240238D01*
X159855714Y-80335476D01*
X159760476Y-80383095D01*
X158427143Y-86062143D02*
X158379524Y-86109762D01*
X158236667Y-86157381D01*
X158141429Y-86157381D01*
X157998571Y-86109762D01*
X157903333Y-86014524D01*
X157855714Y-85919286D01*
X157808095Y-85728810D01*
X157808095Y-85585952D01*
X157855714Y-85395476D01*
X157903333Y-85300238D01*
X157998571Y-85205000D01*
X158141429Y-85157381D01*
X158236667Y-85157381D01*
X158379524Y-85205000D01*
X158427143Y-85252619D01*
X158808095Y-85252619D02*
X158855714Y-85205000D01*
X158950952Y-85157381D01*
X159189048Y-85157381D01*
X159284286Y-85205000D01*
X159331905Y-85252619D01*
X159379524Y-85347857D01*
X159379524Y-85443095D01*
X159331905Y-85585952D01*
X158760476Y-86157381D01*
X159379524Y-86157381D01*
X159760476Y-85252619D02*
X159808095Y-85205000D01*
X159903333Y-85157381D01*
X160141429Y-85157381D01*
X160236667Y-85205000D01*
X160284286Y-85252619D01*
X160331905Y-85347857D01*
X160331905Y-85443095D01*
X160284286Y-85585952D01*
X159712857Y-86157381D01*
X160331905Y-86157381D01*
X161597143Y-87352143D02*
X161549524Y-87399762D01*
X161406667Y-87447381D01*
X161311429Y-87447381D01*
X161168571Y-87399762D01*
X161073333Y-87304524D01*
X161025714Y-87209286D01*
X160978095Y-87018810D01*
X160978095Y-86875952D01*
X161025714Y-86685476D01*
X161073333Y-86590238D01*
X161168571Y-86495000D01*
X161311429Y-86447381D01*
X161406667Y-86447381D01*
X161549524Y-86495000D01*
X161597143Y-86542619D01*
X161978095Y-86542619D02*
X162025714Y-86495000D01*
X162120952Y-86447381D01*
X162359048Y-86447381D01*
X162454286Y-86495000D01*
X162501905Y-86542619D01*
X162549524Y-86637857D01*
X162549524Y-86733095D01*
X162501905Y-86875952D01*
X161930476Y-87447381D01*
X162549524Y-87447381D01*
X162882857Y-86447381D02*
X163501905Y-86447381D01*
X163168571Y-86828333D01*
X163311429Y-86828333D01*
X163406667Y-86875952D01*
X163454286Y-86923571D01*
X163501905Y-87018810D01*
X163501905Y-87256905D01*
X163454286Y-87352143D01*
X163406667Y-87399762D01*
X163311429Y-87447381D01*
X163025714Y-87447381D01*
X162930476Y-87399762D01*
X162882857Y-87352143D01*
X166901905Y-49502381D02*
X166901905Y-48502381D01*
X167140000Y-48502381D01*
X167282858Y-48550000D01*
X167378096Y-48645238D01*
X167425715Y-48740476D01*
X167473334Y-48930952D01*
X167473334Y-49073810D01*
X167425715Y-49264286D01*
X167378096Y-49359524D01*
X167282858Y-49454762D01*
X167140000Y-49502381D01*
X166901905Y-49502381D01*
X168425715Y-49502381D02*
X167854286Y-49502381D01*
X168140000Y-49502381D02*
X168140000Y-48502381D01*
X168044762Y-48645238D01*
X167949524Y-48740476D01*
X167854286Y-48788095D01*
X162456905Y-125702381D02*
X162456905Y-124702381D01*
X162695000Y-124702381D01*
X162837858Y-124750000D01*
X162933096Y-124845238D01*
X162980715Y-124940476D01*
X163028334Y-125130952D01*
X163028334Y-125273810D01*
X162980715Y-125464286D01*
X162933096Y-125559524D01*
X162837858Y-125654762D01*
X162695000Y-125702381D01*
X162456905Y-125702381D01*
X163409286Y-124797619D02*
X163456905Y-124750000D01*
X163552143Y-124702381D01*
X163790239Y-124702381D01*
X163885477Y-124750000D01*
X163933096Y-124797619D01*
X163980715Y-124892857D01*
X163980715Y-124988095D01*
X163933096Y-125130952D01*
X163361667Y-125702381D01*
X163980715Y-125702381D01*
X107616667Y-96607381D02*
X107616667Y-97321667D01*
X107569047Y-97464524D01*
X107473809Y-97559762D01*
X107330952Y-97607381D01*
X107235714Y-97607381D01*
X108616667Y-97607381D02*
X108045238Y-97607381D01*
X108330952Y-97607381D02*
X108330952Y-96607381D01*
X108235714Y-96750238D01*
X108140476Y-96845476D01*
X108045238Y-96893095D01*
X106346667Y-123357381D02*
X106346667Y-124071667D01*
X106299047Y-124214524D01*
X106203809Y-124309762D01*
X106060952Y-124357381D01*
X105965714Y-124357381D01*
X106775238Y-123452619D02*
X106822857Y-123405000D01*
X106918095Y-123357381D01*
X107156191Y-123357381D01*
X107251429Y-123405000D01*
X107299048Y-123452619D01*
X107346667Y-123547857D01*
X107346667Y-123643095D01*
X107299048Y-123785952D01*
X106727619Y-124357381D01*
X107346667Y-124357381D01*
X189531667Y-109682381D02*
X189531667Y-110396667D01*
X189484047Y-110539524D01*
X189388809Y-110634762D01*
X189245952Y-110682381D01*
X189150714Y-110682381D01*
X189912619Y-109682381D02*
X190531667Y-109682381D01*
X190198333Y-110063333D01*
X190341191Y-110063333D01*
X190436429Y-110110952D01*
X190484048Y-110158571D01*
X190531667Y-110253810D01*
X190531667Y-110491905D01*
X190484048Y-110587143D01*
X190436429Y-110634762D01*
X190341191Y-110682381D01*
X190055476Y-110682381D01*
X189960238Y-110634762D01*
X189912619Y-110587143D01*
X194372322Y-77108687D02*
X193896131Y-77442021D01*
X194372322Y-77680116D02*
X193372322Y-77680116D01*
X193372322Y-77299163D01*
X193419941Y-77203925D01*
X193467560Y-77156306D01*
X193562798Y-77108687D01*
X193705655Y-77108687D01*
X193800893Y-77156306D01*
X193848512Y-77203925D01*
X193896131Y-77299163D01*
X193896131Y-77680116D01*
X194372322Y-76156306D02*
X194372322Y-76727735D01*
X194372322Y-76442021D02*
X193372322Y-76442021D01*
X193515179Y-76537259D01*
X193610417Y-76632497D01*
X193658036Y-76727735D01*
X195933334Y-77467381D02*
X195600000Y-76991190D01*
X195361905Y-77467381D02*
X195361905Y-76467381D01*
X195742858Y-76467381D01*
X195838096Y-76515000D01*
X195885715Y-76562619D01*
X195933334Y-76657857D01*
X195933334Y-76800714D01*
X195885715Y-76895952D01*
X195838096Y-76943571D01*
X195742858Y-76991190D01*
X195361905Y-76991190D01*
X196314286Y-76562619D02*
X196361905Y-76515000D01*
X196457143Y-76467381D01*
X196695239Y-76467381D01*
X196790477Y-76515000D01*
X196838096Y-76562619D01*
X196885715Y-76657857D01*
X196885715Y-76753095D01*
X196838096Y-76895952D01*
X196266667Y-77467381D01*
X196885715Y-77467381D01*
X182143275Y-73754402D02*
X181809941Y-73278211D01*
X181571846Y-73754402D02*
X181571846Y-72754402D01*
X181952799Y-72754402D01*
X182048037Y-72802021D01*
X182095656Y-72849640D01*
X182143275Y-72944878D01*
X182143275Y-73087735D01*
X182095656Y-73182973D01*
X182048037Y-73230592D01*
X181952799Y-73278211D01*
X181571846Y-73278211D01*
X182476608Y-72754402D02*
X183095656Y-72754402D01*
X182762322Y-73135354D01*
X182905180Y-73135354D01*
X183000418Y-73182973D01*
X183048037Y-73230592D01*
X183095656Y-73325831D01*
X183095656Y-73563926D01*
X183048037Y-73659164D01*
X183000418Y-73706783D01*
X182905180Y-73754402D01*
X182619465Y-73754402D01*
X182524227Y-73706783D01*
X182476608Y-73659164D01*
X188867381Y-66841666D02*
X188391190Y-67175000D01*
X188867381Y-67413095D02*
X187867381Y-67413095D01*
X187867381Y-67032142D01*
X187915000Y-66936904D01*
X187962619Y-66889285D01*
X188057857Y-66841666D01*
X188200714Y-66841666D01*
X188295952Y-66889285D01*
X188343571Y-66936904D01*
X188391190Y-67032142D01*
X188391190Y-67413095D01*
X188200714Y-65984523D02*
X188867381Y-65984523D01*
X187819762Y-66222619D02*
X188534048Y-66460714D01*
X188534048Y-65841666D01*
X184422381Y-66841666D02*
X183946190Y-67175000D01*
X184422381Y-67413095D02*
X183422381Y-67413095D01*
X183422381Y-67032142D01*
X183470000Y-66936904D01*
X183517619Y-66889285D01*
X183612857Y-66841666D01*
X183755714Y-66841666D01*
X183850952Y-66889285D01*
X183898571Y-66936904D01*
X183946190Y-67032142D01*
X183946190Y-67413095D01*
X183422381Y-65936904D02*
X183422381Y-66413095D01*
X183898571Y-66460714D01*
X183850952Y-66413095D01*
X183803333Y-66317857D01*
X183803333Y-66079761D01*
X183850952Y-65984523D01*
X183898571Y-65936904D01*
X183993810Y-65889285D01*
X184231905Y-65889285D01*
X184327143Y-65936904D01*
X184374762Y-65984523D01*
X184422381Y-66079761D01*
X184422381Y-66317857D01*
X184374762Y-66413095D01*
X184327143Y-66460714D01*
X187322381Y-61761666D02*
X186846190Y-62095000D01*
X187322381Y-62333095D02*
X186322381Y-62333095D01*
X186322381Y-61952142D01*
X186370000Y-61856904D01*
X186417619Y-61809285D01*
X186512857Y-61761666D01*
X186655714Y-61761666D01*
X186750952Y-61809285D01*
X186798571Y-61856904D01*
X186846190Y-61952142D01*
X186846190Y-62333095D01*
X186322381Y-60904523D02*
X186322381Y-61095000D01*
X186370000Y-61190238D01*
X186417619Y-61237857D01*
X186560476Y-61333095D01*
X186750952Y-61380714D01*
X187131905Y-61380714D01*
X187227143Y-61333095D01*
X187274762Y-61285476D01*
X187322381Y-61190238D01*
X187322381Y-60999761D01*
X187274762Y-60904523D01*
X187227143Y-60856904D01*
X187131905Y-60809285D01*
X186893810Y-60809285D01*
X186798571Y-60856904D01*
X186750952Y-60904523D01*
X186703333Y-60999761D01*
X186703333Y-61190238D01*
X186750952Y-61285476D01*
X186798571Y-61333095D01*
X186893810Y-61380714D01*
X172082381Y-72556666D02*
X171606190Y-72890000D01*
X172082381Y-73128095D02*
X171082381Y-73128095D01*
X171082381Y-72747142D01*
X171130000Y-72651904D01*
X171177619Y-72604285D01*
X171272857Y-72556666D01*
X171415714Y-72556666D01*
X171510952Y-72604285D01*
X171558571Y-72651904D01*
X171606190Y-72747142D01*
X171606190Y-73128095D01*
X171082381Y-72223333D02*
X171082381Y-71556666D01*
X172082381Y-71985238D01*
X178903334Y-71392381D02*
X178570000Y-70916190D01*
X178331905Y-71392381D02*
X178331905Y-70392381D01*
X178712858Y-70392381D01*
X178808096Y-70440000D01*
X178855715Y-70487619D01*
X178903334Y-70582857D01*
X178903334Y-70725714D01*
X178855715Y-70820952D01*
X178808096Y-70868571D01*
X178712858Y-70916190D01*
X178331905Y-70916190D01*
X179474762Y-70820952D02*
X179379524Y-70773333D01*
X179331905Y-70725714D01*
X179284286Y-70630476D01*
X179284286Y-70582857D01*
X179331905Y-70487619D01*
X179379524Y-70440000D01*
X179474762Y-70392381D01*
X179665239Y-70392381D01*
X179760477Y-70440000D01*
X179808096Y-70487619D01*
X179855715Y-70582857D01*
X179855715Y-70630476D01*
X179808096Y-70725714D01*
X179760477Y-70773333D01*
X179665239Y-70820952D01*
X179474762Y-70820952D01*
X179379524Y-70868571D01*
X179331905Y-70916190D01*
X179284286Y-71011429D01*
X179284286Y-71201905D01*
X179331905Y-71297143D01*
X179379524Y-71344762D01*
X179474762Y-71392381D01*
X179665239Y-71392381D01*
X179760477Y-71344762D01*
X179808096Y-71297143D01*
X179855715Y-71201905D01*
X179855715Y-71011429D01*
X179808096Y-70916190D01*
X179760477Y-70868571D01*
X179665239Y-70820952D01*
X160292381Y-52236666D02*
X159816190Y-52570000D01*
X160292381Y-52808095D02*
X159292381Y-52808095D01*
X159292381Y-52427142D01*
X159340000Y-52331904D01*
X159387619Y-52284285D01*
X159482857Y-52236666D01*
X159625714Y-52236666D01*
X159720952Y-52284285D01*
X159768571Y-52331904D01*
X159816190Y-52427142D01*
X159816190Y-52808095D01*
X160292381Y-51760476D02*
X160292381Y-51570000D01*
X160244762Y-51474761D01*
X160197143Y-51427142D01*
X160054286Y-51331904D01*
X159863810Y-51284285D01*
X159482857Y-51284285D01*
X159387619Y-51331904D01*
X159340000Y-51379523D01*
X159292381Y-51474761D01*
X159292381Y-51665238D01*
X159340000Y-51760476D01*
X159387619Y-51808095D01*
X159482857Y-51855714D01*
X159720952Y-51855714D01*
X159816190Y-51808095D01*
X159863810Y-51760476D01*
X159911429Y-51665238D01*
X159911429Y-51474761D01*
X159863810Y-51379523D01*
X159816190Y-51331904D01*
X159720952Y-51284285D01*
X178427143Y-48892381D02*
X178093809Y-48416190D01*
X177855714Y-48892381D02*
X177855714Y-47892381D01*
X178236667Y-47892381D01*
X178331905Y-47940000D01*
X178379524Y-47987619D01*
X178427143Y-48082857D01*
X178427143Y-48225714D01*
X178379524Y-48320952D01*
X178331905Y-48368571D01*
X178236667Y-48416190D01*
X177855714Y-48416190D01*
X179379524Y-48892381D02*
X178808095Y-48892381D01*
X179093809Y-48892381D02*
X179093809Y-47892381D01*
X178998571Y-48035238D01*
X178903333Y-48130476D01*
X178808095Y-48178095D01*
X179998571Y-47892381D02*
X180093810Y-47892381D01*
X180189048Y-47940000D01*
X180236667Y-47987619D01*
X180284286Y-48082857D01*
X180331905Y-48273333D01*
X180331905Y-48511429D01*
X180284286Y-48701905D01*
X180236667Y-48797143D01*
X180189048Y-48844762D01*
X180093810Y-48892381D01*
X179998571Y-48892381D01*
X179903333Y-48844762D01*
X179855714Y-48797143D01*
X179808095Y-48701905D01*
X179760476Y-48511429D01*
X179760476Y-48273333D01*
X179808095Y-48082857D01*
X179855714Y-47987619D01*
X179903333Y-47940000D01*
X179998571Y-47892381D01*
X155847381Y-128912857D02*
X155371190Y-129246191D01*
X155847381Y-129484286D02*
X154847381Y-129484286D01*
X154847381Y-129103333D01*
X154895000Y-129008095D01*
X154942619Y-128960476D01*
X155037857Y-128912857D01*
X155180714Y-128912857D01*
X155275952Y-128960476D01*
X155323571Y-129008095D01*
X155371190Y-129103333D01*
X155371190Y-129484286D01*
X155847381Y-127960476D02*
X155847381Y-128531905D01*
X155847381Y-128246191D02*
X154847381Y-128246191D01*
X154990238Y-128341429D01*
X155085476Y-128436667D01*
X155133095Y-128531905D01*
X155847381Y-127008095D02*
X155847381Y-127579524D01*
X155847381Y-127293810D02*
X154847381Y-127293810D01*
X154990238Y-127389048D01*
X155085476Y-127484286D01*
X155133095Y-127579524D01*
X173982143Y-125092381D02*
X173648809Y-124616190D01*
X173410714Y-125092381D02*
X173410714Y-124092381D01*
X173791667Y-124092381D01*
X173886905Y-124140000D01*
X173934524Y-124187619D01*
X173982143Y-124282857D01*
X173982143Y-124425714D01*
X173934524Y-124520952D01*
X173886905Y-124568571D01*
X173791667Y-124616190D01*
X173410714Y-124616190D01*
X174934524Y-125092381D02*
X174363095Y-125092381D01*
X174648809Y-125092381D02*
X174648809Y-124092381D01*
X174553571Y-124235238D01*
X174458333Y-124330476D01*
X174363095Y-124378095D01*
X175315476Y-124187619D02*
X175363095Y-124140000D01*
X175458333Y-124092381D01*
X175696429Y-124092381D01*
X175791667Y-124140000D01*
X175839286Y-124187619D01*
X175886905Y-124282857D01*
X175886905Y-124378095D01*
X175839286Y-124520952D01*
X175267857Y-125092381D01*
X175886905Y-125092381D01*
X166827143Y-95882381D02*
X166493809Y-95406190D01*
X166255714Y-95882381D02*
X166255714Y-94882381D01*
X166636667Y-94882381D01*
X166731905Y-94930000D01*
X166779524Y-94977619D01*
X166827143Y-95072857D01*
X166827143Y-95215714D01*
X166779524Y-95310952D01*
X166731905Y-95358571D01*
X166636667Y-95406190D01*
X166255714Y-95406190D01*
X167779524Y-95882381D02*
X167208095Y-95882381D01*
X167493809Y-95882381D02*
X167493809Y-94882381D01*
X167398571Y-95025238D01*
X167303333Y-95120476D01*
X167208095Y-95168095D01*
X168112857Y-94882381D02*
X168731905Y-94882381D01*
X168398571Y-95263333D01*
X168541429Y-95263333D01*
X168636667Y-95310952D01*
X168684286Y-95358571D01*
X168731905Y-95453810D01*
X168731905Y-95691905D01*
X168684286Y-95787143D01*
X168636667Y-95834762D01*
X168541429Y-95882381D01*
X168255714Y-95882381D01*
X168160476Y-95834762D01*
X168112857Y-95787143D01*
X166827143Y-103142381D02*
X166493809Y-102666190D01*
X166255714Y-103142381D02*
X166255714Y-102142381D01*
X166636667Y-102142381D01*
X166731905Y-102190000D01*
X166779524Y-102237619D01*
X166827143Y-102332857D01*
X166827143Y-102475714D01*
X166779524Y-102570952D01*
X166731905Y-102618571D01*
X166636667Y-102666190D01*
X166255714Y-102666190D01*
X167779524Y-103142381D02*
X167208095Y-103142381D01*
X167493809Y-103142381D02*
X167493809Y-102142381D01*
X167398571Y-102285238D01*
X167303333Y-102380476D01*
X167208095Y-102428095D01*
X168636667Y-102475714D02*
X168636667Y-103142381D01*
X168398571Y-102094762D02*
X168160476Y-102809048D01*
X168779524Y-102809048D01*
X166827143Y-80007381D02*
X166493809Y-79531190D01*
X166255714Y-80007381D02*
X166255714Y-79007381D01*
X166636667Y-79007381D01*
X166731905Y-79055000D01*
X166779524Y-79102619D01*
X166827143Y-79197857D01*
X166827143Y-79340714D01*
X166779524Y-79435952D01*
X166731905Y-79483571D01*
X166636667Y-79531190D01*
X166255714Y-79531190D01*
X167779524Y-80007381D02*
X167208095Y-80007381D01*
X167493809Y-80007381D02*
X167493809Y-79007381D01*
X167398571Y-79150238D01*
X167303333Y-79245476D01*
X167208095Y-79293095D01*
X168684286Y-79007381D02*
X168208095Y-79007381D01*
X168160476Y-79483571D01*
X168208095Y-79435952D01*
X168303333Y-79388333D01*
X168541429Y-79388333D01*
X168636667Y-79435952D01*
X168684286Y-79483571D01*
X168731905Y-79578810D01*
X168731905Y-79816905D01*
X168684286Y-79912143D01*
X168636667Y-79959762D01*
X168541429Y-80007381D01*
X168303333Y-80007381D01*
X168208095Y-79959762D01*
X168160476Y-79912143D01*
X166827143Y-87267381D02*
X166493809Y-86791190D01*
X166255714Y-87267381D02*
X166255714Y-86267381D01*
X166636667Y-86267381D01*
X166731905Y-86315000D01*
X166779524Y-86362619D01*
X166827143Y-86457857D01*
X166827143Y-86600714D01*
X166779524Y-86695952D01*
X166731905Y-86743571D01*
X166636667Y-86791190D01*
X166255714Y-86791190D01*
X167779524Y-87267381D02*
X167208095Y-87267381D01*
X167493809Y-87267381D02*
X167493809Y-86267381D01*
X167398571Y-86410238D01*
X167303333Y-86505476D01*
X167208095Y-86553095D01*
X168636667Y-86267381D02*
X168446190Y-86267381D01*
X168350952Y-86315000D01*
X168303333Y-86362619D01*
X168208095Y-86505476D01*
X168160476Y-86695952D01*
X168160476Y-87076905D01*
X168208095Y-87172143D01*
X168255714Y-87219762D01*
X168350952Y-87267381D01*
X168541429Y-87267381D01*
X168636667Y-87219762D01*
X168684286Y-87172143D01*
X168731905Y-87076905D01*
X168731905Y-86838810D01*
X168684286Y-86743571D01*
X168636667Y-86695952D01*
X168541429Y-86648333D01*
X168350952Y-86648333D01*
X168255714Y-86695952D01*
X168208095Y-86743571D01*
X168160476Y-86838810D01*
X148117143Y-59052381D02*
X147783809Y-58576190D01*
X147545714Y-59052381D02*
X147545714Y-58052381D01*
X147926667Y-58052381D01*
X148021905Y-58100000D01*
X148069524Y-58147619D01*
X148117143Y-58242857D01*
X148117143Y-58385714D01*
X148069524Y-58480952D01*
X148021905Y-58528571D01*
X147926667Y-58576190D01*
X147545714Y-58576190D01*
X149069524Y-59052381D02*
X148498095Y-59052381D01*
X148783809Y-59052381D02*
X148783809Y-58052381D01*
X148688571Y-58195238D01*
X148593333Y-58290476D01*
X148498095Y-58338095D01*
X149402857Y-58052381D02*
X150069524Y-58052381D01*
X149640952Y-59052381D01*
X154297143Y-56512381D02*
X153963809Y-56036190D01*
X153725714Y-56512381D02*
X153725714Y-55512381D01*
X154106667Y-55512381D01*
X154201905Y-55560000D01*
X154249524Y-55607619D01*
X154297143Y-55702857D01*
X154297143Y-55845714D01*
X154249524Y-55940952D01*
X154201905Y-55988571D01*
X154106667Y-56036190D01*
X153725714Y-56036190D01*
X155249524Y-56512381D02*
X154678095Y-56512381D01*
X154963809Y-56512381D02*
X154963809Y-55512381D01*
X154868571Y-55655238D01*
X154773333Y-55750476D01*
X154678095Y-55798095D01*
X155820952Y-55940952D02*
X155725714Y-55893333D01*
X155678095Y-55845714D01*
X155630476Y-55750476D01*
X155630476Y-55702857D01*
X155678095Y-55607619D01*
X155725714Y-55560000D01*
X155820952Y-55512381D01*
X156011429Y-55512381D01*
X156106667Y-55560000D01*
X156154286Y-55607619D01*
X156201905Y-55702857D01*
X156201905Y-55750476D01*
X156154286Y-55845714D01*
X156106667Y-55893333D01*
X156011429Y-55940952D01*
X155820952Y-55940952D01*
X155725714Y-55988571D01*
X155678095Y-56036190D01*
X155630476Y-56131429D01*
X155630476Y-56321905D01*
X155678095Y-56417143D01*
X155725714Y-56464762D01*
X155820952Y-56512381D01*
X156011429Y-56512381D01*
X156106667Y-56464762D01*
X156154286Y-56417143D01*
X156201905Y-56321905D01*
X156201905Y-56131429D01*
X156154286Y-56036190D01*
X156106667Y-55988571D01*
X156011429Y-55940952D01*
X154297143Y-62862381D02*
X153963809Y-62386190D01*
X153725714Y-62862381D02*
X153725714Y-61862381D01*
X154106667Y-61862381D01*
X154201905Y-61910000D01*
X154249524Y-61957619D01*
X154297143Y-62052857D01*
X154297143Y-62195714D01*
X154249524Y-62290952D01*
X154201905Y-62338571D01*
X154106667Y-62386190D01*
X153725714Y-62386190D01*
X155249524Y-62862381D02*
X154678095Y-62862381D01*
X154963809Y-62862381D02*
X154963809Y-61862381D01*
X154868571Y-62005238D01*
X154773333Y-62100476D01*
X154678095Y-62148095D01*
X155725714Y-62862381D02*
X155916190Y-62862381D01*
X156011429Y-62814762D01*
X156059048Y-62767143D01*
X156154286Y-62624286D01*
X156201905Y-62433810D01*
X156201905Y-62052857D01*
X156154286Y-61957619D01*
X156106667Y-61910000D01*
X156011429Y-61862381D01*
X155820952Y-61862381D01*
X155725714Y-61910000D01*
X155678095Y-61957619D01*
X155630476Y-62052857D01*
X155630476Y-62290952D01*
X155678095Y-62386190D01*
X155725714Y-62433810D01*
X155820952Y-62481429D01*
X156011429Y-62481429D01*
X156106667Y-62433810D01*
X156154286Y-62386190D01*
X156201905Y-62290952D01*
X157752381Y-66217857D02*
X157276190Y-66551191D01*
X157752381Y-66789286D02*
X156752381Y-66789286D01*
X156752381Y-66408333D01*
X156800000Y-66313095D01*
X156847619Y-66265476D01*
X156942857Y-66217857D01*
X157085714Y-66217857D01*
X157180952Y-66265476D01*
X157228571Y-66313095D01*
X157276190Y-66408333D01*
X157276190Y-66789286D01*
X156847619Y-65836905D02*
X156800000Y-65789286D01*
X156752381Y-65694048D01*
X156752381Y-65455952D01*
X156800000Y-65360714D01*
X156847619Y-65313095D01*
X156942857Y-65265476D01*
X157038095Y-65265476D01*
X157180952Y-65313095D01*
X157752381Y-65884524D01*
X157752381Y-65265476D01*
X156752381Y-64646429D02*
X156752381Y-64551190D01*
X156800000Y-64455952D01*
X156847619Y-64408333D01*
X156942857Y-64360714D01*
X157133333Y-64313095D01*
X157371429Y-64313095D01*
X157561905Y-64360714D01*
X157657143Y-64408333D01*
X157704762Y-64455952D01*
X157752381Y-64551190D01*
X157752381Y-64646429D01*
X157704762Y-64741667D01*
X157657143Y-64789286D01*
X157561905Y-64836905D01*
X157371429Y-64884524D01*
X157133333Y-64884524D01*
X156942857Y-64836905D01*
X156847619Y-64789286D01*
X156800000Y-64741667D01*
X156752381Y-64646429D01*
X161282143Y-62862381D02*
X160948809Y-62386190D01*
X160710714Y-62862381D02*
X160710714Y-61862381D01*
X161091667Y-61862381D01*
X161186905Y-61910000D01*
X161234524Y-61957619D01*
X161282143Y-62052857D01*
X161282143Y-62195714D01*
X161234524Y-62290952D01*
X161186905Y-62338571D01*
X161091667Y-62386190D01*
X160710714Y-62386190D01*
X161663095Y-61957619D02*
X161710714Y-61910000D01*
X161805952Y-61862381D01*
X162044048Y-61862381D01*
X162139286Y-61910000D01*
X162186905Y-61957619D01*
X162234524Y-62052857D01*
X162234524Y-62148095D01*
X162186905Y-62290952D01*
X161615476Y-62862381D01*
X162234524Y-62862381D01*
X163186905Y-62862381D02*
X162615476Y-62862381D01*
X162901190Y-62862381D02*
X162901190Y-61862381D01*
X162805952Y-62005238D01*
X162710714Y-62100476D01*
X162615476Y-62148095D01*
X164102381Y-66217857D02*
X163626190Y-66551191D01*
X164102381Y-66789286D02*
X163102381Y-66789286D01*
X163102381Y-66408333D01*
X163150000Y-66313095D01*
X163197619Y-66265476D01*
X163292857Y-66217857D01*
X163435714Y-66217857D01*
X163530952Y-66265476D01*
X163578571Y-66313095D01*
X163626190Y-66408333D01*
X163626190Y-66789286D01*
X163197619Y-65836905D02*
X163150000Y-65789286D01*
X163102381Y-65694048D01*
X163102381Y-65455952D01*
X163150000Y-65360714D01*
X163197619Y-65313095D01*
X163292857Y-65265476D01*
X163388095Y-65265476D01*
X163530952Y-65313095D01*
X164102381Y-65884524D01*
X164102381Y-65265476D01*
X163197619Y-64884524D02*
X163150000Y-64836905D01*
X163102381Y-64741667D01*
X163102381Y-64503571D01*
X163150000Y-64408333D01*
X163197619Y-64360714D01*
X163292857Y-64313095D01*
X163388095Y-64313095D01*
X163530952Y-64360714D01*
X164102381Y-64932143D01*
X164102381Y-64313095D01*
X168902143Y-62862381D02*
X168568809Y-62386190D01*
X168330714Y-62862381D02*
X168330714Y-61862381D01*
X168711667Y-61862381D01*
X168806905Y-61910000D01*
X168854524Y-61957619D01*
X168902143Y-62052857D01*
X168902143Y-62195714D01*
X168854524Y-62290952D01*
X168806905Y-62338571D01*
X168711667Y-62386190D01*
X168330714Y-62386190D01*
X169283095Y-61957619D02*
X169330714Y-61910000D01*
X169425952Y-61862381D01*
X169664048Y-61862381D01*
X169759286Y-61910000D01*
X169806905Y-61957619D01*
X169854524Y-62052857D01*
X169854524Y-62148095D01*
X169806905Y-62290952D01*
X169235476Y-62862381D01*
X169854524Y-62862381D01*
X170187857Y-61862381D02*
X170806905Y-61862381D01*
X170473571Y-62243333D01*
X170616429Y-62243333D01*
X170711667Y-62290952D01*
X170759286Y-62338571D01*
X170806905Y-62433810D01*
X170806905Y-62671905D01*
X170759286Y-62767143D01*
X170711667Y-62814762D01*
X170616429Y-62862381D01*
X170330714Y-62862381D01*
X170235476Y-62814762D01*
X170187857Y-62767143D01*
X173982143Y-66672381D02*
X173648809Y-66196190D01*
X173410714Y-66672381D02*
X173410714Y-65672381D01*
X173791667Y-65672381D01*
X173886905Y-65720000D01*
X173934524Y-65767619D01*
X173982143Y-65862857D01*
X173982143Y-66005714D01*
X173934524Y-66100952D01*
X173886905Y-66148571D01*
X173791667Y-66196190D01*
X173410714Y-66196190D01*
X174363095Y-65767619D02*
X174410714Y-65720000D01*
X174505952Y-65672381D01*
X174744048Y-65672381D01*
X174839286Y-65720000D01*
X174886905Y-65767619D01*
X174934524Y-65862857D01*
X174934524Y-65958095D01*
X174886905Y-66100952D01*
X174315476Y-66672381D01*
X174934524Y-66672381D01*
X175791667Y-66005714D02*
X175791667Y-66672381D01*
X175553571Y-65624762D02*
X175315476Y-66339048D01*
X175934524Y-66339048D01*
X173982143Y-60322381D02*
X173648809Y-59846190D01*
X173410714Y-60322381D02*
X173410714Y-59322381D01*
X173791667Y-59322381D01*
X173886905Y-59370000D01*
X173934524Y-59417619D01*
X173982143Y-59512857D01*
X173982143Y-59655714D01*
X173934524Y-59750952D01*
X173886905Y-59798571D01*
X173791667Y-59846190D01*
X173410714Y-59846190D01*
X174363095Y-59417619D02*
X174410714Y-59370000D01*
X174505952Y-59322381D01*
X174744048Y-59322381D01*
X174839286Y-59370000D01*
X174886905Y-59417619D01*
X174934524Y-59512857D01*
X174934524Y-59608095D01*
X174886905Y-59750952D01*
X174315476Y-60322381D01*
X174934524Y-60322381D01*
X175839286Y-59322381D02*
X175363095Y-59322381D01*
X175315476Y-59798571D01*
X175363095Y-59750952D01*
X175458333Y-59703333D01*
X175696429Y-59703333D01*
X175791667Y-59750952D01*
X175839286Y-59798571D01*
X175886905Y-59893810D01*
X175886905Y-60131905D01*
X175839286Y-60227143D01*
X175791667Y-60274762D01*
X175696429Y-60322381D01*
X175458333Y-60322381D01*
X175363095Y-60274762D01*
X175315476Y-60227143D01*
X146677143Y-118742381D02*
X146343809Y-118266190D01*
X146105714Y-118742381D02*
X146105714Y-117742381D01*
X146486667Y-117742381D01*
X146581905Y-117790000D01*
X146629524Y-117837619D01*
X146677143Y-117932857D01*
X146677143Y-118075714D01*
X146629524Y-118170952D01*
X146581905Y-118218571D01*
X146486667Y-118266190D01*
X146105714Y-118266190D01*
X147058095Y-117837619D02*
X147105714Y-117790000D01*
X147200952Y-117742381D01*
X147439048Y-117742381D01*
X147534286Y-117790000D01*
X147581905Y-117837619D01*
X147629524Y-117932857D01*
X147629524Y-118028095D01*
X147581905Y-118170952D01*
X147010476Y-118742381D01*
X147629524Y-118742381D01*
X148486667Y-117742381D02*
X148296190Y-117742381D01*
X148200952Y-117790000D01*
X148153333Y-117837619D01*
X148058095Y-117980476D01*
X148010476Y-118170952D01*
X148010476Y-118551905D01*
X148058095Y-118647143D01*
X148105714Y-118694762D01*
X148200952Y-118742381D01*
X148391429Y-118742381D01*
X148486667Y-118694762D01*
X148534286Y-118647143D01*
X148581905Y-118551905D01*
X148581905Y-118313810D01*
X148534286Y-118218571D01*
X148486667Y-118170952D01*
X148391429Y-118123333D01*
X148200952Y-118123333D01*
X148105714Y-118170952D01*
X148058095Y-118218571D01*
X148010476Y-118313810D01*
X151757143Y-125092381D02*
X151423809Y-124616190D01*
X151185714Y-125092381D02*
X151185714Y-124092381D01*
X151566667Y-124092381D01*
X151661905Y-124140000D01*
X151709524Y-124187619D01*
X151757143Y-124282857D01*
X151757143Y-124425714D01*
X151709524Y-124520952D01*
X151661905Y-124568571D01*
X151566667Y-124616190D01*
X151185714Y-124616190D01*
X152138095Y-124187619D02*
X152185714Y-124140000D01*
X152280952Y-124092381D01*
X152519048Y-124092381D01*
X152614286Y-124140000D01*
X152661905Y-124187619D01*
X152709524Y-124282857D01*
X152709524Y-124378095D01*
X152661905Y-124520952D01*
X152090476Y-125092381D01*
X152709524Y-125092381D01*
X153042857Y-124092381D02*
X153709524Y-124092381D01*
X153280952Y-125092381D01*
X151757143Y-113662381D02*
X151423809Y-113186190D01*
X151185714Y-113662381D02*
X151185714Y-112662381D01*
X151566667Y-112662381D01*
X151661905Y-112710000D01*
X151709524Y-112757619D01*
X151757143Y-112852857D01*
X151757143Y-112995714D01*
X151709524Y-113090952D01*
X151661905Y-113138571D01*
X151566667Y-113186190D01*
X151185714Y-113186190D01*
X152138095Y-112757619D02*
X152185714Y-112710000D01*
X152280952Y-112662381D01*
X152519048Y-112662381D01*
X152614286Y-112710000D01*
X152661905Y-112757619D01*
X152709524Y-112852857D01*
X152709524Y-112948095D01*
X152661905Y-113090952D01*
X152090476Y-113662381D01*
X152709524Y-113662381D01*
X153280952Y-113090952D02*
X153185714Y-113043333D01*
X153138095Y-112995714D01*
X153090476Y-112900476D01*
X153090476Y-112852857D01*
X153138095Y-112757619D01*
X153185714Y-112710000D01*
X153280952Y-112662381D01*
X153471429Y-112662381D01*
X153566667Y-112710000D01*
X153614286Y-112757619D01*
X153661905Y-112852857D01*
X153661905Y-112900476D01*
X153614286Y-112995714D01*
X153566667Y-113043333D01*
X153471429Y-113090952D01*
X153280952Y-113090952D01*
X153185714Y-113138571D01*
X153138095Y-113186190D01*
X153090476Y-113281429D01*
X153090476Y-113471905D01*
X153138095Y-113567143D01*
X153185714Y-113614762D01*
X153280952Y-113662381D01*
X153471429Y-113662381D01*
X153566667Y-113614762D01*
X153614286Y-113567143D01*
X153661905Y-113471905D01*
X153661905Y-113281429D01*
X153614286Y-113186190D01*
X153566667Y-113138571D01*
X153471429Y-113090952D01*
X156482381Y-117482857D02*
X156006190Y-117816191D01*
X156482381Y-118054286D02*
X155482381Y-118054286D01*
X155482381Y-117673333D01*
X155530000Y-117578095D01*
X155577619Y-117530476D01*
X155672857Y-117482857D01*
X155815714Y-117482857D01*
X155910952Y-117530476D01*
X155958571Y-117578095D01*
X156006190Y-117673333D01*
X156006190Y-118054286D01*
X155577619Y-117101905D02*
X155530000Y-117054286D01*
X155482381Y-116959048D01*
X155482381Y-116720952D01*
X155530000Y-116625714D01*
X155577619Y-116578095D01*
X155672857Y-116530476D01*
X155768095Y-116530476D01*
X155910952Y-116578095D01*
X156482381Y-117149524D01*
X156482381Y-116530476D01*
X156482381Y-116054286D02*
X156482381Y-115863810D01*
X156434762Y-115768571D01*
X156387143Y-115720952D01*
X156244286Y-115625714D01*
X156053810Y-115578095D01*
X155672857Y-115578095D01*
X155577619Y-115625714D01*
X155530000Y-115673333D01*
X155482381Y-115768571D01*
X155482381Y-115959048D01*
X155530000Y-116054286D01*
X155577619Y-116101905D01*
X155672857Y-116149524D01*
X155910952Y-116149524D01*
X156006190Y-116101905D01*
X156053810Y-116054286D01*
X156101429Y-115959048D01*
X156101429Y-115768571D01*
X156053810Y-115673333D01*
X156006190Y-115625714D01*
X155910952Y-115578095D01*
X159377143Y-113662381D02*
X159043809Y-113186190D01*
X158805714Y-113662381D02*
X158805714Y-112662381D01*
X159186667Y-112662381D01*
X159281905Y-112710000D01*
X159329524Y-112757619D01*
X159377143Y-112852857D01*
X159377143Y-112995714D01*
X159329524Y-113090952D01*
X159281905Y-113138571D01*
X159186667Y-113186190D01*
X158805714Y-113186190D01*
X159710476Y-112662381D02*
X160329524Y-112662381D01*
X159996190Y-113043333D01*
X160139048Y-113043333D01*
X160234286Y-113090952D01*
X160281905Y-113138571D01*
X160329524Y-113233810D01*
X160329524Y-113471905D01*
X160281905Y-113567143D01*
X160234286Y-113614762D01*
X160139048Y-113662381D01*
X159853333Y-113662381D01*
X159758095Y-113614762D01*
X159710476Y-113567143D01*
X160948571Y-112662381D02*
X161043810Y-112662381D01*
X161139048Y-112710000D01*
X161186667Y-112757619D01*
X161234286Y-112852857D01*
X161281905Y-113043333D01*
X161281905Y-113281429D01*
X161234286Y-113471905D01*
X161186667Y-113567143D01*
X161139048Y-113614762D01*
X161043810Y-113662381D01*
X160948571Y-113662381D01*
X160853333Y-113614762D01*
X160805714Y-113567143D01*
X160758095Y-113471905D01*
X160710476Y-113281429D01*
X160710476Y-113043333D01*
X160758095Y-112852857D01*
X160805714Y-112757619D01*
X160853333Y-112710000D01*
X160948571Y-112662381D01*
X161562381Y-117482857D02*
X161086190Y-117816191D01*
X161562381Y-118054286D02*
X160562381Y-118054286D01*
X160562381Y-117673333D01*
X160610000Y-117578095D01*
X160657619Y-117530476D01*
X160752857Y-117482857D01*
X160895714Y-117482857D01*
X160990952Y-117530476D01*
X161038571Y-117578095D01*
X161086190Y-117673333D01*
X161086190Y-118054286D01*
X160562381Y-117149524D02*
X160562381Y-116530476D01*
X160943333Y-116863810D01*
X160943333Y-116720952D01*
X160990952Y-116625714D01*
X161038571Y-116578095D01*
X161133810Y-116530476D01*
X161371905Y-116530476D01*
X161467143Y-116578095D01*
X161514762Y-116625714D01*
X161562381Y-116720952D01*
X161562381Y-117006667D01*
X161514762Y-117101905D01*
X161467143Y-117149524D01*
X161562381Y-115578095D02*
X161562381Y-116149524D01*
X161562381Y-115863810D02*
X160562381Y-115863810D01*
X160705238Y-115959048D01*
X160800476Y-116054286D01*
X160848095Y-116149524D01*
X166997143Y-113662381D02*
X166663809Y-113186190D01*
X166425714Y-113662381D02*
X166425714Y-112662381D01*
X166806667Y-112662381D01*
X166901905Y-112710000D01*
X166949524Y-112757619D01*
X166997143Y-112852857D01*
X166997143Y-112995714D01*
X166949524Y-113090952D01*
X166901905Y-113138571D01*
X166806667Y-113186190D01*
X166425714Y-113186190D01*
X167330476Y-112662381D02*
X167949524Y-112662381D01*
X167616190Y-113043333D01*
X167759048Y-113043333D01*
X167854286Y-113090952D01*
X167901905Y-113138571D01*
X167949524Y-113233810D01*
X167949524Y-113471905D01*
X167901905Y-113567143D01*
X167854286Y-113614762D01*
X167759048Y-113662381D01*
X167473333Y-113662381D01*
X167378095Y-113614762D01*
X167330476Y-113567143D01*
X168330476Y-112757619D02*
X168378095Y-112710000D01*
X168473333Y-112662381D01*
X168711429Y-112662381D01*
X168806667Y-112710000D01*
X168854286Y-112757619D01*
X168901905Y-112852857D01*
X168901905Y-112948095D01*
X168854286Y-113090952D01*
X168282857Y-113662381D01*
X168901905Y-113662381D01*
X172077143Y-111122381D02*
X171743809Y-110646190D01*
X171505714Y-111122381D02*
X171505714Y-110122381D01*
X171886667Y-110122381D01*
X171981905Y-110170000D01*
X172029524Y-110217619D01*
X172077143Y-110312857D01*
X172077143Y-110455714D01*
X172029524Y-110550952D01*
X171981905Y-110598571D01*
X171886667Y-110646190D01*
X171505714Y-110646190D01*
X172410476Y-110122381D02*
X173029524Y-110122381D01*
X172696190Y-110503333D01*
X172839048Y-110503333D01*
X172934286Y-110550952D01*
X172981905Y-110598571D01*
X173029524Y-110693810D01*
X173029524Y-110931905D01*
X172981905Y-111027143D01*
X172934286Y-111074762D01*
X172839048Y-111122381D01*
X172553333Y-111122381D01*
X172458095Y-111074762D01*
X172410476Y-111027143D01*
X173362857Y-110122381D02*
X173981905Y-110122381D01*
X173648571Y-110503333D01*
X173791429Y-110503333D01*
X173886667Y-110550952D01*
X173934286Y-110598571D01*
X173981905Y-110693810D01*
X173981905Y-110931905D01*
X173934286Y-111027143D01*
X173886667Y-111074762D01*
X173791429Y-111122381D01*
X173505714Y-111122381D01*
X173410476Y-111074762D01*
X173362857Y-111027143D01*
X172077143Y-116202381D02*
X171743809Y-115726190D01*
X171505714Y-116202381D02*
X171505714Y-115202381D01*
X171886667Y-115202381D01*
X171981905Y-115250000D01*
X172029524Y-115297619D01*
X172077143Y-115392857D01*
X172077143Y-115535714D01*
X172029524Y-115630952D01*
X171981905Y-115678571D01*
X171886667Y-115726190D01*
X171505714Y-115726190D01*
X172410476Y-115202381D02*
X173029524Y-115202381D01*
X172696190Y-115583333D01*
X172839048Y-115583333D01*
X172934286Y-115630952D01*
X172981905Y-115678571D01*
X173029524Y-115773810D01*
X173029524Y-116011905D01*
X172981905Y-116107143D01*
X172934286Y-116154762D01*
X172839048Y-116202381D01*
X172553333Y-116202381D01*
X172458095Y-116154762D01*
X172410476Y-116107143D01*
X173886667Y-115535714D02*
X173886667Y-116202381D01*
X173648571Y-115154762D02*
X173410476Y-115869048D01*
X174029524Y-115869048D01*
X119888095Y-104822381D02*
X120459524Y-104822381D01*
X120173809Y-105822381D02*
X120173809Y-104822381D01*
X121316667Y-105822381D02*
X120745238Y-105822381D01*
X121030952Y-105822381D02*
X121030952Y-104822381D01*
X120935714Y-104965238D01*
X120840476Y-105060476D01*
X120745238Y-105108095D01*
X108632381Y-66801905D02*
X108632381Y-66230476D01*
X109632381Y-66516191D02*
X108632381Y-66516191D01*
X108727619Y-65944762D02*
X108680000Y-65897143D01*
X108632381Y-65801905D01*
X108632381Y-65563809D01*
X108680000Y-65468571D01*
X108727619Y-65420952D01*
X108822857Y-65373333D01*
X108918095Y-65373333D01*
X109060952Y-65420952D01*
X109632381Y-65992381D01*
X109632381Y-65373333D01*
X188998036Y-75969402D02*
X188998036Y-76778926D01*
X189045655Y-76874164D01*
X189093274Y-76921783D01*
X189188512Y-76969402D01*
X189378989Y-76969402D01*
X189474227Y-76921783D01*
X189521846Y-76874164D01*
X189569465Y-76778926D01*
X189569465Y-75969402D01*
X190569465Y-76969402D02*
X189998036Y-76969402D01*
X190283750Y-76969402D02*
X190283750Y-75969402D01*
X190188512Y-76112259D01*
X190093274Y-76207497D01*
X189998036Y-76255116D01*
X172172381Y-99821905D02*
X172981905Y-99821905D01*
X173077143Y-99774286D01*
X173124762Y-99726667D01*
X173172381Y-99631429D01*
X173172381Y-99440952D01*
X173124762Y-99345714D01*
X173077143Y-99298095D01*
X172981905Y-99250476D01*
X172172381Y-99250476D01*
X172267619Y-98821905D02*
X172220000Y-98774286D01*
X172172381Y-98679048D01*
X172172381Y-98440952D01*
X172220000Y-98345714D01*
X172267619Y-98298095D01*
X172362857Y-98250476D01*
X172458095Y-98250476D01*
X172600952Y-98298095D01*
X173172381Y-98869524D01*
X173172381Y-98250476D01*
X172172381Y-83946905D02*
X172981905Y-83946905D01*
X173077143Y-83899286D01*
X173124762Y-83851667D01*
X173172381Y-83756429D01*
X173172381Y-83565952D01*
X173124762Y-83470714D01*
X173077143Y-83423095D01*
X172981905Y-83375476D01*
X172172381Y-83375476D01*
X172172381Y-82994524D02*
X172172381Y-82375476D01*
X172553333Y-82708810D01*
X172553333Y-82565952D01*
X172600952Y-82470714D01*
X172648571Y-82423095D01*
X172743810Y-82375476D01*
X172981905Y-82375476D01*
X173077143Y-82423095D01*
X173124762Y-82470714D01*
X173172381Y-82565952D01*
X173172381Y-82851667D01*
X173124762Y-82946905D01*
X173077143Y-82994524D01*
X141597143Y-106042381D02*
X141263809Y-105566190D01*
X141025714Y-106042381D02*
X141025714Y-105042381D01*
X141406667Y-105042381D01*
X141501905Y-105090000D01*
X141549524Y-105137619D01*
X141597143Y-105232857D01*
X141597143Y-105375714D01*
X141549524Y-105470952D01*
X141501905Y-105518571D01*
X141406667Y-105566190D01*
X141025714Y-105566190D01*
X141930476Y-105042381D02*
X142549524Y-105042381D01*
X142216190Y-105423333D01*
X142359048Y-105423333D01*
X142454286Y-105470952D01*
X142501905Y-105518571D01*
X142549524Y-105613810D01*
X142549524Y-105851905D01*
X142501905Y-105947143D01*
X142454286Y-105994762D01*
X142359048Y-106042381D01*
X142073333Y-106042381D01*
X141978095Y-105994762D01*
X141930476Y-105947143D01*
X143454286Y-105042381D02*
X142978095Y-105042381D01*
X142930476Y-105518571D01*
X142978095Y-105470952D01*
X143073333Y-105423333D01*
X143311429Y-105423333D01*
X143406667Y-105470952D01*
X143454286Y-105518571D01*
X143501905Y-105613810D01*
X143501905Y-105851905D01*
X143454286Y-105947143D01*
X143406667Y-105994762D01*
X143311429Y-106042381D01*
X143073333Y-106042381D01*
X142978095Y-105994762D01*
X142930476Y-105947143D01*
X141597143Y-73022381D02*
X141263809Y-72546190D01*
X141025714Y-73022381D02*
X141025714Y-72022381D01*
X141406667Y-72022381D01*
X141501905Y-72070000D01*
X141549524Y-72117619D01*
X141597143Y-72212857D01*
X141597143Y-72355714D01*
X141549524Y-72450952D01*
X141501905Y-72498571D01*
X141406667Y-72546190D01*
X141025714Y-72546190D01*
X141930476Y-72022381D02*
X142549524Y-72022381D01*
X142216190Y-72403333D01*
X142359048Y-72403333D01*
X142454286Y-72450952D01*
X142501905Y-72498571D01*
X142549524Y-72593810D01*
X142549524Y-72831905D01*
X142501905Y-72927143D01*
X142454286Y-72974762D01*
X142359048Y-73022381D01*
X142073333Y-73022381D01*
X141978095Y-72974762D01*
X141930476Y-72927143D01*
X143406667Y-72022381D02*
X143216190Y-72022381D01*
X143120952Y-72070000D01*
X143073333Y-72117619D01*
X142978095Y-72260476D01*
X142930476Y-72450952D01*
X142930476Y-72831905D01*
X142978095Y-72927143D01*
X143025714Y-72974762D01*
X143120952Y-73022381D01*
X143311429Y-73022381D01*
X143406667Y-72974762D01*
X143454286Y-72927143D01*
X143501905Y-72831905D01*
X143501905Y-72593810D01*
X143454286Y-72498571D01*
X143406667Y-72450952D01*
X143311429Y-72403333D01*
X143120952Y-72403333D01*
X143025714Y-72450952D01*
X142978095Y-72498571D01*
X142930476Y-72593810D01*
X192976667Y-42107381D02*
X192643333Y-41631190D01*
X192405238Y-42107381D02*
X192405238Y-41107381D01*
X192786191Y-41107381D01*
X192881429Y-41155000D01*
X192929048Y-41202619D01*
X192976667Y-41297857D01*
X192976667Y-41440714D01*
X192929048Y-41535952D01*
X192881429Y-41583571D01*
X192786191Y-41631190D01*
X192405238Y-41631190D01*
X193405238Y-41583571D02*
X193738572Y-41583571D01*
X193881429Y-42107381D02*
X193405238Y-42107381D01*
X193405238Y-41107381D01*
X193881429Y-41107381D01*
X194643334Y-41583571D02*
X194310000Y-41583571D01*
X194310000Y-42107381D02*
X194310000Y-41107381D01*
X194786191Y-41107381D01*
X195310000Y-41107381D02*
X195310000Y-41345476D01*
X195071905Y-41250238D02*
X195310000Y-41345476D01*
X195548096Y-41250238D01*
X195167143Y-41535952D02*
X195310000Y-41345476D01*
X195452858Y-41535952D01*
X196071905Y-41107381D02*
X196071905Y-41345476D01*
X195833810Y-41250238D02*
X196071905Y-41345476D01*
X196310001Y-41250238D01*
X195929048Y-41535952D02*
X196071905Y-41345476D01*
X196214763Y-41535952D01*
X147891667Y-42107381D02*
X147558333Y-41631190D01*
X147320238Y-42107381D02*
X147320238Y-41107381D01*
X147701191Y-41107381D01*
X147796429Y-41155000D01*
X147844048Y-41202619D01*
X147891667Y-41297857D01*
X147891667Y-41440714D01*
X147844048Y-41535952D01*
X147796429Y-41583571D01*
X147701191Y-41631190D01*
X147320238Y-41631190D01*
X148320238Y-41583571D02*
X148653572Y-41583571D01*
X148796429Y-42107381D02*
X148320238Y-42107381D01*
X148320238Y-41107381D01*
X148796429Y-41107381D01*
X149558334Y-41583571D02*
X149225000Y-41583571D01*
X149225000Y-42107381D02*
X149225000Y-41107381D01*
X149701191Y-41107381D01*
X150225000Y-41107381D02*
X150225000Y-41345476D01*
X149986905Y-41250238D02*
X150225000Y-41345476D01*
X150463096Y-41250238D01*
X150082143Y-41535952D02*
X150225000Y-41345476D01*
X150367858Y-41535952D01*
X150986905Y-41107381D02*
X150986905Y-41345476D01*
X150748810Y-41250238D02*
X150986905Y-41345476D01*
X151225001Y-41250238D01*
X150844048Y-41535952D02*
X150986905Y-41345476D01*
X151129763Y-41535952D01*
X147891667Y-125292381D02*
X147558333Y-124816190D01*
X147320238Y-125292381D02*
X147320238Y-124292381D01*
X147701191Y-124292381D01*
X147796429Y-124340000D01*
X147844048Y-124387619D01*
X147891667Y-124482857D01*
X147891667Y-124625714D01*
X147844048Y-124720952D01*
X147796429Y-124768571D01*
X147701191Y-124816190D01*
X147320238Y-124816190D01*
X148320238Y-124768571D02*
X148653572Y-124768571D01*
X148796429Y-125292381D02*
X148320238Y-125292381D01*
X148320238Y-124292381D01*
X148796429Y-124292381D01*
X149558334Y-124768571D02*
X149225000Y-124768571D01*
X149225000Y-125292381D02*
X149225000Y-124292381D01*
X149701191Y-124292381D01*
X150225000Y-124292381D02*
X150225000Y-124530476D01*
X149986905Y-124435238D02*
X150225000Y-124530476D01*
X150463096Y-124435238D01*
X150082143Y-124720952D02*
X150225000Y-124530476D01*
X150367858Y-124720952D01*
X150986905Y-124292381D02*
X150986905Y-124530476D01*
X150748810Y-124435238D02*
X150986905Y-124530476D01*
X151225001Y-124435238D01*
X150844048Y-124720952D02*
X150986905Y-124530476D01*
X151129763Y-124720952D01*
X193376667Y-125292381D02*
X193043333Y-124816190D01*
X192805238Y-125292381D02*
X192805238Y-124292381D01*
X193186191Y-124292381D01*
X193281429Y-124340000D01*
X193329048Y-124387619D01*
X193376667Y-124482857D01*
X193376667Y-124625714D01*
X193329048Y-124720952D01*
X193281429Y-124768571D01*
X193186191Y-124816190D01*
X192805238Y-124816190D01*
X193805238Y-124768571D02*
X194138572Y-124768571D01*
X194281429Y-125292381D02*
X193805238Y-125292381D01*
X193805238Y-124292381D01*
X194281429Y-124292381D01*
X195043334Y-124768571D02*
X194710000Y-124768571D01*
X194710000Y-125292381D02*
X194710000Y-124292381D01*
X195186191Y-124292381D01*
X195710000Y-124292381D02*
X195710000Y-124530476D01*
X195471905Y-124435238D02*
X195710000Y-124530476D01*
X195948096Y-124435238D01*
X195567143Y-124720952D02*
X195710000Y-124530476D01*
X195852858Y-124720952D01*
X196471905Y-124292381D02*
X196471905Y-124530476D01*
X196233810Y-124435238D02*
X196471905Y-124530476D01*
X196710001Y-124435238D01*
X196329048Y-124720952D02*
X196471905Y-124530476D01*
X196614763Y-124720952D01*
X126301667Y-125292381D02*
X125968333Y-124816190D01*
X125730238Y-125292381D02*
X125730238Y-124292381D01*
X126111191Y-124292381D01*
X126206429Y-124340000D01*
X126254048Y-124387619D01*
X126301667Y-124482857D01*
X126301667Y-124625714D01*
X126254048Y-124720952D01*
X126206429Y-124768571D01*
X126111191Y-124816190D01*
X125730238Y-124816190D01*
X126730238Y-124768571D02*
X127063572Y-124768571D01*
X127206429Y-125292381D02*
X126730238Y-125292381D01*
X126730238Y-124292381D01*
X127206429Y-124292381D01*
X127968334Y-124768571D02*
X127635000Y-124768571D01*
X127635000Y-125292381D02*
X127635000Y-124292381D01*
X128111191Y-124292381D01*
X128635000Y-124292381D02*
X128635000Y-124530476D01*
X128396905Y-124435238D02*
X128635000Y-124530476D01*
X128873096Y-124435238D01*
X128492143Y-124720952D02*
X128635000Y-124530476D01*
X128777858Y-124720952D01*
X129396905Y-124292381D02*
X129396905Y-124530476D01*
X129158810Y-124435238D02*
X129396905Y-124530476D01*
X129635001Y-124435238D01*
X129254048Y-124720952D02*
X129396905Y-124530476D01*
X129539763Y-124720952D01*
X105346667Y-42107381D02*
X105013333Y-41631190D01*
X104775238Y-42107381D02*
X104775238Y-41107381D01*
X105156191Y-41107381D01*
X105251429Y-41155000D01*
X105299048Y-41202619D01*
X105346667Y-41297857D01*
X105346667Y-41440714D01*
X105299048Y-41535952D01*
X105251429Y-41583571D01*
X105156191Y-41631190D01*
X104775238Y-41631190D01*
X105775238Y-41583571D02*
X106108572Y-41583571D01*
X106251429Y-42107381D02*
X105775238Y-42107381D01*
X105775238Y-41107381D01*
X106251429Y-41107381D01*
X107013334Y-41583571D02*
X106680000Y-41583571D01*
X106680000Y-42107381D02*
X106680000Y-41107381D01*
X107156191Y-41107381D01*
X107680000Y-41107381D02*
X107680000Y-41345476D01*
X107441905Y-41250238D02*
X107680000Y-41345476D01*
X107918096Y-41250238D01*
X107537143Y-41535952D02*
X107680000Y-41345476D01*
X107822858Y-41535952D01*
X108441905Y-41107381D02*
X108441905Y-41345476D01*
X108203810Y-41250238D02*
X108441905Y-41345476D01*
X108680001Y-41250238D01*
X108299048Y-41535952D02*
X108441905Y-41345476D01*
X108584763Y-41535952D01*
X133921667Y-42107381D02*
X133588333Y-41631190D01*
X133350238Y-42107381D02*
X133350238Y-41107381D01*
X133731191Y-41107381D01*
X133826429Y-41155000D01*
X133874048Y-41202619D01*
X133921667Y-41297857D01*
X133921667Y-41440714D01*
X133874048Y-41535952D01*
X133826429Y-41583571D01*
X133731191Y-41631190D01*
X133350238Y-41631190D01*
X134350238Y-41583571D02*
X134683572Y-41583571D01*
X134826429Y-42107381D02*
X134350238Y-42107381D01*
X134350238Y-41107381D01*
X134826429Y-41107381D01*
X135588334Y-41583571D02*
X135255000Y-41583571D01*
X135255000Y-42107381D02*
X135255000Y-41107381D01*
X135731191Y-41107381D01*
X136255000Y-41107381D02*
X136255000Y-41345476D01*
X136016905Y-41250238D02*
X136255000Y-41345476D01*
X136493096Y-41250238D01*
X136112143Y-41535952D02*
X136255000Y-41345476D01*
X136397858Y-41535952D01*
X137016905Y-41107381D02*
X137016905Y-41345476D01*
X136778810Y-41250238D02*
X137016905Y-41345476D01*
X137255001Y-41250238D01*
X136874048Y-41535952D02*
X137016905Y-41345476D01*
X137159763Y-41535952D01*
M02*
